<?xml version="1.0" encoding="UTF-8"?>
<svg id="Layer_03" data-name="Layer 03" xmlns="http://www.w3.org/2000/svg" xmlns:xlink="http://www.w3.org/1999/xlink" viewBox="0 0 2049.68 490.84">
  <defs>
    <style>
      .cls-1 {
        fill: url(#linear-gradient-2);
      }

      .cls-2 {
        letter-spacing: -.04em;
      }

      .cls-3 {
        letter-spacing: -.04em;
      }

      .cls-4 {
        fill: none;
      }

      .cls-5 {
        fill: url(#linear-gradient-3);
      }

      .cls-6, .cls-7 {
        fill: #5a6f60;
      }

      .cls-6, .cls-8, .cls-9 {
        opacity: .57;
      }

      .cls-7 {
        font-family: RaftworkDemo-Regular, 'Raftwork Demo';
        font-size: 160px;
      }

      .cls-8 {
        fill: #c7d1c8;
      }

      .cls-9 {
        fill: #8a9a8e;
      }

      .cls-10 {
        fill: url(#linear-gradient);
      }

      .cls-11 {
        letter-spacing: -.05em;
      }
    </style>
    <linearGradient id="linear-gradient" x1="1759.32" y1="354.41" x2="1854.63" y2="354.41" gradientUnits="userSpaceOnUse">
      <stop offset="0" stop-color="#e9e5dc"/>
      <stop offset="1" stop-color="#fff"/>
    </linearGradient>
    <linearGradient id="linear-gradient-2" x1="1759.32" y1="141.3" x2="1854.63" y2="141.3" gradientUnits="userSpaceOnUse">
      <stop offset="0" stop-color="#e9e5dc"/>
      <stop offset="1" stop-color="#fff"/>
    </linearGradient>
    <linearGradient id="linear-gradient-3" x1="1851.73" y1="248.58" x2="1947.04" y2="248.58" gradientUnits="userSpaceOnUse">
      <stop offset="0" stop-color="#fff"/>
      <stop offset="1" stop-color="#e9e5dc"/>
    </linearGradient>
  </defs>
  <g>
    <path class="cls-10" d="M1759.32,259.09c4.79,0,9.56.36,14.3,1.08,4.98.76,9.89,1.9,14.68,3.43,10.13,3.23,19.64,8.13,28.15,14.5,8.31,6.22,15.55,13.76,21.43,22.32,5.71,8.31,10.06,17.47,12.9,27.15,1.46,4.98,2.51,10.06,3.14,15.21.3,2.47.51,4.95.62,7.44.05,1.22.08,2.43.09,3.65,0,1.21,0,2.43-.05,3.64-.16,5.03-.73,10.04-1.68,14.98-1,5.19-2.44,10.29-4.29,15.25-7.21,19.3-20.47,35.75-37.81,46.88-8.88,5.7-18.63,9.88-28.88,12.38-4.81,1.18-9.71,1.97-14.65,2.39-2.37.2-4.74.31-7.12.33-.15,0-.29,0-.44,0-.07,0-.15,0-.22,0h-.18s0,0,0,0h0v-190.63Z"/>
    <path class="cls-1" d="M1759.32,45.99c4.79,0,9.56.36,14.3,1.08,4.98.76,9.89,1.9,14.68,3.43,10.13,3.23,19.64,8.13,28.15,14.5,8.31,6.22,15.55,13.76,21.43,22.32,5.71,8.31,10.06,17.47,12.9,27.15,1.46,4.98,2.51,10.06,3.14,15.21.3,2.47.51,4.95.62,7.44.05,1.22.08,2.43.09,3.65,0,1.21,0,2.42-.05,3.64-.16,5.03-.73,10.04-1.68,14.98-1,5.19-2.44,10.29-4.29,15.25-7.21,19.3-20.47,35.75-37.81,46.88-8.88,5.7-18.63,9.88-28.88,12.38-4.81,1.18-9.71,1.97-14.65,2.39-2.37.2-4.74.31-7.12.33-.15,0-.29,0-.44,0-.07,0-.15,0-.22,0-.04,0-.07,0-.11,0h-.07s0,0,0,0h0V45.99Z"/>
    <path class="cls-4" d="M1759.32,45.99v190.63c6.06,0,12.1-.58,18.04-1.72,6.32-1.22,12.49-3.07,18.43-5.53,11.56-4.79,22.07-11.81,30.92-20.66,8.85-8.85,15.87-19.36,20.66-30.92,2.46-5.94,4.31-12.12,5.53-18.43,1.15-5.95,1.72-11.99,1.72-18.04s-.58-12.1-1.72-18.04c-1.22-6.32-3.07-12.49-5.53-18.43-4.79-11.57-11.81-22.07-20.66-30.92-8.85-8.85-19.36-15.87-30.92-20.66-5.94-2.46-12.12-4.31-18.43-5.53-5.95-1.15-11.99-1.72-18.04-1.72Z"/>
    <path class="cls-4" d="M1947.04,153.27v190.63c-6.06,0-12.1-.58-18.04-1.72-6.32-1.22-12.49-3.07-18.43-5.53-11.56-4.79-22.07-11.81-30.92-20.66-8.85-8.85-15.87-19.36-20.66-30.92-2.46-5.94-4.31-12.12-5.53-18.43-1.15-5.95-1.72-11.99-1.72-18.04s.58-12.1,1.72-18.04c1.22-6.32,3.07-12.49,5.53-18.43,4.79-11.56,11.81-22.07,20.66-30.92,8.85-8.85,19.36-15.87,30.92-20.66,5.94-2.46,12.12-4.31,18.43-5.53,5.95-1.15,11.99-1.72,18.04-1.72Z"/>
    <path class="cls-5" d="M1947.04,153.27c-4.79,0-9.56.36-14.3,1.08-4.98.76-9.89,1.9-14.68,3.43-10.13,3.23-19.64,8.13-28.15,14.5-8.31,6.22-15.55,13.76-21.43,22.32-5.71,8.31-10.06,17.47-12.9,27.15-1.46,4.98-2.51,10.06-3.14,15.21-.3,2.48-.51,4.95-.62,7.44-.05,1.22-.08,2.43-.09,3.65,0,1.21,0,2.42.05,3.64.16,5.03.73,10.04,1.68,14.98,1,5.19,2.44,10.29,4.29,15.25,7.21,19.3,20.47,35.75,37.81,46.88,8.88,5.7,18.63,9.88,28.88,12.38,4.81,1.18,9.71,1.97,14.65,2.39,2.37.2,4.74.31,7.12.33.15,0,.29,0,.44,0,.07,0,.15,0,.22,0h.18s0,0,0,0h0v-190.63Z"/>
    <path class="cls-4" d="M1759.32,259.09v190.63c6.06,0,12.1-.58,18.04-1.72,6.32-1.22,12.49-3.07,18.43-5.53,11.56-4.79,22.07-11.81,30.92-20.66,8.85-8.85,15.87-19.36,20.66-30.92,2.46-5.94,4.31-12.12,5.53-18.43,1.15-5.95,1.72-11.99,1.72-18.04s-.58-12.1-1.72-18.04c-1.22-6.32-3.07-12.49-5.53-18.43-4.79-11.57-11.81-22.07-20.66-30.92-8.85-8.85-19.36-15.87-30.92-20.66-5.94-2.46-12.12-4.31-18.43-5.53-5.95-1.15-11.99-1.72-18.04-1.72Z"/>
    <path class="cls-6" d="M1801.73,56.11c4.46,2.24,8.74,4.82,12.8,7.73.13.09.25.18.38.27.03.02.06.05.09.07.03.02.06.05.09.07.05.06.09.12.12.19.03.08.04.14.05.23.01.08.02.17.03.25.02.17.04.33.06.5.07.66.13,1.31.17,1.97.08,1.29.1,2.57.05,3.86-.09,2.49-.41,4.95-.94,7.38-1.14,5.26-3.21,10.23-5.78,14.91-1.18,2.16-2.46,4.25-3.82,6.31-1.24,1.88-2.53,3.71-3.89,5.5-1.59,2.09-3.27,4.1-5.04,6.05-1.67,1.84-3.41,3.6-5.2,5.31-.88.84-1.78,1.67-2.69,2.49-.91.82-1.83,1.63-2.75,2.44-1.88,1.65-3.78,3.28-5.61,4.99-1.6,1.49-3.15,3.03-4.61,4.66-1.56,1.74-3.01,3.55-4.33,5.47-1.46,2.12-2.73,4.33-3.85,6.65-1.3,2.7-2.35,5.46-3.22,8.33-.42,1.36-.79,2.73-1.13,4.12-.09.37-.18.73-.26,1.1-.04.19-.09.37-.13.56-.02.09-.04.19-.06.28-.01.05-.02.09-.03.14,0,.04-.02.08-.03.12-.1.3-.42.47-.73.37-.15-.05-.28-.15-.35-.29-.03-.07-.05-.14-.06-.22,0-.04,0-.18,0-.22,0-.61,0-1.21,0-1.82,0-.3,0-.61,0-.91,0-.01,0-.1,0-.11,0-.04,0-.08,0-.11,0-.08,0-.15.01-.23,0-.15.01-.3.02-.45.06-1.21.13-2.42.22-3.63.17-2.42.39-4.83.68-7.24.29-2.41.65-4.8,1.09-7.18.23-1.24.49-2.47.77-3.69s.6-2.44.95-3.65c.35-1.21.73-2.4,1.15-3.59.42-1.19.88-2.35,1.38-3.51.5-1.15,1.05-2.28,1.64-3.39.59-1.11,1.22-2.2,1.89-3.26.67-1.06,1.37-2.1,2.1-3.13.72-1.03,1.46-2.05,2.2-3.06s1.5-2.02,2.26-3.02c.76-1,1.53-1.99,2.3-2.99.77-.99,1.53-1.99,2.3-2.99.76-1,1.51-2.01,2.25-3.02.74-1.01,1.47-2.04,2.19-3.07.72-1.03,1.42-2.07,2.11-3.13,1.38-2.1,2.7-4.24,3.93-6.43,1.23-2.2,2.37-4.43,3.38-6.73.51-1.15.98-2.31,1.43-3.49.44-1.18.85-2.37,1.22-3.57.37-1.2.7-2.41.99-3.64.29-1.22.53-2.46.73-3.7s.35-2.49.46-3.74c.05-.63.09-1.25.12-1.88,0-.16.01-.31.02-.47,0-.08,0-.16,0-.24,0-.08.02-.15.05-.23.14-.3.5-.43.8-.28Z"/>
    <path class="cls-8" d="M1801.73,269.21c-.18-.09-.39-.08-.56.02-.17.1-.28.28-.29.48-.04,1.13-.11,2.25-.22,3.38-.11,1.12-.26,2.24-.45,3.36-.38,2.23-.9,4.42-1.55,6.59-1.3,4.34-3.1,8.49-5.23,12.48-1.06,1.99-2.2,3.94-3.4,5.86-.6.96-1.21,1.9-1.84,2.85-.62.94-1.26,1.87-1.9,2.8-.65.93-1.3,1.84-1.97,2.76s-1.34,1.82-2.02,2.72c-1.36,1.8-2.75,3.58-4.13,5.37-.69.9-1.37,1.79-2.05,2.7-.68.9-1.35,1.81-2.01,2.73-.66.92-1.31,1.84-1.95,2.77s-1.25,1.88-1.83,2.85c-.58.97-1.13,1.95-1.65,2.96-.52,1.01-1,2.03-1.44,3.06-.45,1.04-.86,2.09-1.24,3.15-.38,1.06-.73,2.14-1.05,3.22-.64,2.17-1.17,4.36-1.62,6.58-.45,2.22-.81,4.44-1.11,6.68-.3,2.24-.54,4.48-.73,6.73-.19,2.25-.33,4.5-.43,6.76,0,.97,0,1.94,0,2.91,0,.3.22.55.52.58.3.03.57-.16.63-.46.53-2.43,1.15-4.83,1.92-7.2.66-2.05,1.41-4.05,2.29-6.01,1-2.23,2.13-4.36,3.44-6.42,1.18-1.87,2.47-3.64,3.88-5.34,1.52-1.83,3.14-3.54,4.85-5.19,1.63-1.57,3.31-3.07,5.01-4.56,1.84-1.61,3.4-2.95,5.2-4.6,1.71-1.56,3.37-3.15,4.98-4.81,1.56-1.6,3.07-3.26,4.51-4.97,1.54-1.83,3.01-3.71,4.41-5.66,1.29-1.79,2.54-3.66,3.71-5.54,1.28-2.05,2.47-4.13,3.56-6.29,2.08-4.13,3.74-8.47,4.71-13.02.97-4.57,1.2-9.17.57-13.81-.02-.16-.11-.3-.24-.39-4.2-3.05-8.64-5.75-13.28-8.08Z"/>
    <path class="cls-9" d="M1862.81,204.6c-2.44,4.69-4.49,9.58-6.12,14.62-.41,1.26-.79,2.52-1.14,3.79-.09.32-.18.64-.26.95-.04.16-.08.32-.13.48-.01.04-.02.08-.03.12-.01.04-.02.08-.03.12-.01.08,0,.16.01.24,0,.03.02.07.03.1l.03.11c.02.07.04.15.07.22.04.15.09.29.13.44.09.29.17.58.26.87.17.57.35,1.13.53,1.7.67,2.11,1.37,4.2,2.14,6.27.68,1.85,1.4,3.68,2.18,5.48.89,2.07,1.84,4.11,2.89,6.11.91,1.74,1.87,3.43,2.92,5.09.92,1.45,1.89,2.87,2.93,4.24.93,1.23,1.9,2.41,2.92,3.57.93,1.05,1.89,2.08,2.88,3.07.91.92,1.89,1.86,2.83,2.75,1.79,1.67,3.63,3.27,5.53,4.8,2.42,1.95,4.89,3.73,7.49,5.44,1.25.82,2.52,1.61,3.8,2.39.64.39,1.28.77,1.93,1.14.65.38,1.3.75,1.96,1.12,1.33.75,2.67,1.49,4.02,2.22,1.39.76,2.79,1.51,4.18,2.26,1.47.79,2.93,1.59,4.39,2.4,1.55.86,3.09,1.73,4.62,2.62,2.24,1.31,4.46,2.65,6.64,4.04.58.37,1.17.75,1.75,1.13.3.19.59.39.89.58.3.2.6.4.9.6,1.24.83,2.45,1.69,3.64,2.59,2.62,2,4.98,4.17,7.09,6.71,1.18,1.42,2.24,2.9,3.2,4.48,1.07,1.75,1.99,3.57,2.79,5.46.21.5.41,1,.61,1.51.1.26.2.52.29.78.05.13.1.26.14.4.02.07.05.13.07.2.01.03.02.07.04.1,0,.03.02.05.03.08.08.18.25.31.44.35.19.03.38-.03.52-.17.07-.07.12-.16.14-.26.01-.05.02-.09.02-.14,0-.03,0-.11,0-.14-.01-.19-.02-.38-.03-.58-.09-1.54-.2-3.07-.34-4.6-.14-1.53-.31-3.06-.54-4.58-.22-1.52-.5-3.03-.86-4.53-.36-1.5-.81-2.96-1.37-4.4-.28-.72-.58-1.42-.92-2.12-.33-.7-.68-1.38-1.06-2.05-1.5-2.69-3.35-5.18-5.36-7.49-1.04-1.19-2.12-2.34-3.24-3.45-1.12-1.11-2.27-2.19-3.45-3.24-1.18-1.05-2.38-2.08-3.59-3.09-1.22-1.01-2.44-2-3.68-2.98-2.48-1.96-5-3.86-7.56-5.71-2.56-1.85-5.15-3.66-7.76-5.43-.65-.44-1.31-.89-1.96-1.33-.66-.44-1.31-.88-1.97-1.32-1.31-.88-2.61-1.77-3.9-2.69-1.29-.91-2.56-1.85-3.8-2.83-1.24-.97-2.46-1.98-3.66-3.01s-2.36-2.1-3.51-3.19c-.57-.54-1.14-1.09-1.7-1.65-.56-.55-1.12-1.11-1.67-1.68-1.1-1.13-2.17-2.29-3.2-3.49-1.03-1.2-2.01-2.43-2.95-3.71-.94-1.27-1.82-2.58-2.65-3.93-.83-1.34-1.61-2.72-2.34-4.12-1.45-2.81-2.7-5.71-3.76-8.69-1.06-2.97-1.94-6.02-2.67-9.09-.36-1.54-.69-3.08-.98-4.63-.15-.78-.29-1.55-.42-2.33-.03-.19-.06-.39-.1-.58-.02-.1-.03-.2-.05-.29,0-.02,0-.05-.01-.07,0-.02-.01-.05-.02-.07-.02-.05-.04-.09-.07-.13-.12-.16-.31-.25-.51-.24-.2.01-.38.13-.48.31Z"/>
    <path class="cls-9" d="M1853.74,230.78c-1.03,5.41-1.59,10.89-1.67,16.39-.04,2.75.04,5.49.23,8.24.05.68.11,1.37.17,2.05,0,.09.02.17.02.26v.13s.02.09.03.13c0,.02.01.04.02.07,0,.02.02.05.03.07.03.06.06.12.08.18.06.12.11.24.17.36.22.48.45.95.68,1.42.87,1.79,1.8,3.54,2.81,5.25,1.8,3.08,3.8,5.97,6.02,8.76,1.93,2.41,3.97,4.67,6.14,6.86,1.92,1.95,3.9,3.81,5.98,5.59,1.92,1.64,3.9,3.18,5.95,4.65,2.41,1.72,4.86,3.28,7.42,4.76,2.58,1.5,5.22,2.9,7.89,4.24,2.69,1.34,5.4,2.62,8.14,3.86,1.35.61,2.7,1.21,4.06,1.8.67.29,1.34.58,2.01.88.66.29,1.33.57,1.99.86,5.22,2.25,10.11,4.35,15.15,7.01,1.29.68,2.57,1.39,3.84,2.13.65.38,1.3.77,1.94,1.16.66.41,1.3.83,1.94,1.26,2.77,1.91,5.15,4.06,7.11,6.84.22.31.44.64.65.96.11.17.21.33.31.5.05.09.1.17.15.26.03.04.05.09.08.13.02.03.05.09.07.12.1.16.28.26.47.26.18,0,.36-.08.48-.22.06-.08.1-.16.12-.26.02-.1,0-.17-.01-.27-.03-.18-.06-.36-.1-.55-.27-1.45-.58-2.9-.95-4.33-.74-2.86-1.7-5.67-2.96-8.35-.63-1.34-1.33-2.64-2.1-3.9-.39-.63-.79-1.25-1.22-1.85s-.87-1.19-1.33-1.77c-.46-.58-.94-1.14-1.44-1.69s-1.01-1.08-1.54-1.6c-1.06-1.04-2.17-2.01-3.32-2.93-1.16-.93-2.36-1.8-3.58-2.64-.61-.42-1.23-.83-1.85-1.24-.62-.41-1.24-.81-1.86-1.22-2.5-1.61-5.03-3.15-7.6-4.64-1.28-.74-2.58-1.47-3.87-2.2s-2.6-1.43-3.9-2.14c-1.3-.71-2.61-1.41-3.92-2.11s-2.61-1.41-3.91-2.13c-1.3-.72-2.58-1.45-3.86-2.2-1.28-.75-2.54-1.52-3.79-2.32-1.25-.8-2.48-1.62-3.7-2.46-1.22-.85-2.41-1.72-3.59-2.62-1.18-.9-2.33-1.83-3.46-2.79-1.13-.96-2.24-1.94-3.33-2.94-.54-.5-1.08-1.01-1.62-1.52s-1.06-1.03-1.59-1.56c-1.05-1.05-2.07-2.12-3.05-3.23-.98-1.11-1.93-2.25-2.83-3.43s-1.76-2.38-2.58-3.62c-1.64-2.48-3.09-5.05-4.42-7.72-.66-1.33-1.29-2.67-1.88-4.03-.6-1.36-1.16-2.73-1.7-4.11-.54-1.38-1.05-2.77-1.55-4.17-.25-.7-.49-1.4-.72-2.1-.06-.18-.12-.35-.18-.53-.01-.04-.03-.09-.04-.13-.01-.04-.03-.08-.06-.12-.05-.08-.12-.15-.2-.19-.16-.09-.36-.1-.53-.02-.17.08-.3.24-.33.42Z"/>
    <path class="cls-9" d="M1945.37,343.23c-.1-1.32-.24-2.63-.45-3.94-.21-1.31-.48-2.6-.82-3.88-.35-1.28-.77-2.53-1.29-3.75-.26-.61-.54-1.21-.84-1.8-.3-.59-.63-1.16-.99-1.72s-.73-1.1-1.13-1.63-.82-1.04-1.27-1.53c-.89-.99-1.86-1.88-2.89-2.72-1.03-.83-2.11-1.59-3.23-2.31-.56-.36-1.12-.7-1.69-1.04-.57-.34-1.14-.67-1.72-1-1.15-.65-2.31-1.29-3.49-1.9s-2.36-1.2-3.55-1.78c-2.39-1.15-4.8-2.23-7.23-3.28-1.21-.53-2.43-1.05-3.65-1.57s-2.43-1.05-3.64-1.58c-2.43-1.06-4.84-2.14-7.24-3.26-2.4-1.12-4.78-2.27-7.14-3.48-2.36-1.21-4.68-2.48-6.96-3.83-2.28-1.35-4.51-2.77-6.67-4.31-1.08-.76-2.14-1.55-3.19-2.37-1.05-.81-2.07-1.65-3.08-2.51-2.02-1.73-3.96-3.54-5.83-5.42-.94-.94-1.85-1.9-2.75-2.88s-1.78-1.97-2.63-2.99c-1.71-2.04-3.31-4.15-4.8-6.36-.74-1.1-1.46-2.22-2.14-3.36-.02-.04-.04-.07-.06-.11-.02-.03-.04-.07-.07-.09-.06-.06-.13-.11-.21-.14-.16-.06-.33-.06-.48.02-.15.08-.27.22-.31.38-.02.08-.02.16,0,.24,0,.04.01.08.02.11l.02.12c.13.62.26,1.23.39,1.84,4.68,20.87,16.23,39.55,32.81,53.06,8.23,6.71,17.53,11.99,27.5,15.63,5.08,1.85,10.3,3.27,15.62,4.24,2.58.47,5.16.83,7.76,1.09,1.28.13,2.55.22,3.83.3.63.04,1.27.07,1.9.09.32.01.63.02.95.03.04,0,.08,0,.12,0,.04,0,.08-.02.12-.03.08-.03.15-.07.21-.13.12-.12.18-.29.17-.46Z"/>
    <path class="cls-9" d="M1945,298.63c-.06-.72-.12-1.44-.2-2.16-.06-.56-.12-1.12-.19-1.67-.07-.58-.15-1.16-.24-1.74-.11-.74-.23-1.48-.36-2.21-.54-3.07-1.26-6.11-2.25-9.07-.49-1.48-1.05-2.93-1.68-4.36s-1.32-2.82-2.08-4.18c-.38-.68-.77-1.35-1.18-2.02-.41-.67-.82-1.32-1.25-1.97-.86-1.3-1.76-2.57-2.72-3.8-.92-1.18-1.9-2.31-2.92-3.4s-2.1-2.13-3.2-3.14c-1.11-1.01-2.25-1.97-3.41-2.92-1.16-.94-2.34-1.87-3.52-2.78s-2.38-1.82-3.57-2.72c-1.19-.9-2.39-1.8-3.58-2.7-2.38-1.81-4.75-3.63-7.08-5.52-2.32-1.89-4.6-3.83-6.79-5.86-1.1-1.02-2.17-2.06-3.22-3.13s-2.07-2.16-3.07-3.27c-2-2.23-3.87-4.55-5.64-6.98-.88-1.21-1.74-2.44-2.55-3.69-.81-1.26-1.59-2.53-2.31-3.85-.72-1.3-1.38-2.63-1.98-3.99-.6-1.36-1.14-2.74-1.62-4.15s-.89-2.83-1.24-4.28-.63-2.9-.85-4.37c-.22-1.47-.38-2.95-.48-4.43s-.15-2.97-.14-4.45c0-.74.02-1.49.04-2.23,0-.09,0-.19.01-.28,0-.05,0-.08,0-.13,0-.05-.02-.09-.04-.14-.07-.18-.22-.31-.41-.35-.19-.05-.38,0-.53.13-.03.03-.06.07-.09.1-.03.04-.06.07-.09.11-.06.07-.13.15-.19.22-1,1.19-1.97,2.41-2.92,3.65-1.17,1.54-2.3,3.12-3.37,4.73-.54.81-1.06,1.62-1.58,2.44-.26.41-.51.82-.76,1.24-.12.21-.25.41-.37.62-.01.02-.08.13-.09.15-.03.05-.05.1-.06.16-.01.06-.01.11,0,.17,0,.03,0,.06.01.09,0,.04,0,.08.01.11,0,.07.02.15.03.22.29,2.28.65,4.55,1.08,6.82.39,2.05.84,4.09,1.35,6.12.9,3.52,2.01,6.98,3.38,10.35,1.51,3.7,3.31,7.21,5.5,10.56.92,1.41,1.9,2.78,2.94,4.1.94,1.2,1.92,2.36,2.94,3.48.92,1.02,1.88,2.01,2.85,2.99.88.88,1.77,1.75,2.67,2.6,1.58,1.49,3.19,2.92,4.86,4.3,1.16.96,2.35,1.89,3.56,2.79,1.12.84,2.26,1.65,3.41,2.44,1.12.78,2.26,1.54,3.39,2.3.58.39,1.15.77,1.73,1.16.59.4,1.18.8,1.76,1.2,2.49,1.7,4.96,3.42,7.4,5.19,2.65,1.92,5.26,3.89,7.83,5.93.56.44,1.12.89,1.67,1.34.56.46,1.13.92,1.68,1.38,1.14.94,2.26,1.9,3.37,2.88,2.24,1.99,4.43,4.08,6.44,6.3,2.01,2.22,3.87,4.59,5.45,7.13.79,1.27,1.5,2.57,2.14,3.92.32.68.61,1.37.89,2.06.07.18.14.35.2.53.02.04.03.09.05.13.02.05.03.08.06.13.06.09.14.16.23.21.19.1.41.08.59-.03.18-.12.28-.32.26-.54Z"/>
    <path class="cls-9" d="M1944.37,279.8c-.27-2.71-.6-5.42-1.02-8.11-.42-2.68-.94-5.38-1.58-8.02-.64-2.65-1.42-5.27-2.38-7.82-.48-1.28-1.01-2.53-1.58-3.77-.58-1.24-1.2-2.44-1.88-3.63-.68-1.18-1.4-2.33-2.18-3.46-.78-1.12-1.6-2.21-2.46-3.26-.87-1.05-1.77-2.07-2.71-3.06-.94-.99-1.91-1.95-2.9-2.88-.99-.94-2-1.85-3.02-2.75-1.02-.9-2.05-1.8-3.08-2.69-1.03-.9-2.05-1.8-3.06-2.71-1.01-.92-2.01-1.85-2.99-2.79-1.96-1.9-3.85-3.86-5.66-5.9-1.81-2.05-3.51-4.17-5.13-6.36-1.6-2.17-3.16-4.48-4.58-6.77-1.44-2.32-2.77-4.69-3.96-7.15-1.18-2.43-2.21-4.92-3.05-7.49-.84-2.57-1.48-5.19-1.87-7.87-.2-1.34-.33-2.68-.4-4.03s-.08-2.7-.01-4.05c0-.17.02-.34.03-.51,0-.04,0-.08,0-.13,0-.04,0-.08,0-.12,0-.09-.03-.17-.08-.24-.09-.15-.23-.25-.4-.28-.08-.02-.17-.01-.26,0-.08.02-.15.06-.22.11-.56.44-1.11.89-1.65,1.35-1.09.91-2.16,1.85-3.21,2.81-1.57,1.44-3.1,2.93-4.57,4.47-.09.1-.18.19-.28.29-.02.02-.05.05-.07.07-.02.02-.04.05-.06.07-.04.05-.07.11-.09.17-.01.03-.02.06-.02.09,0,.02,0,.03,0,.05,0,.03,0,.06,0,.09-.01.11-.02.23-.03.34-.02.23-.04.45-.06.68-.07.88-.13,1.76-.17,2.65-.07,1.66-.08,3.32-.03,4.98.1,2.96.43,5.9,1.02,8.8.52,2.55,1.23,5.03,2.16,7.46,1.12,2.93,2.51,5.68,4.14,8.35.75,1.23,1.54,2.43,2.36,3.61.4.57.8,1.13,1.21,1.69.4.55.81,1.09,1.22,1.63,3.07,3.99,6.38,7.59,10.06,11.03,2.16,2.02,4.4,3.95,6.7,5.82,1.11.9,2.23,1.79,3.35,2.67,1.1.86,2.21,1.71,3.32,2.55,2.12,1.61,4.26,3.21,6.38,4.82,1,.76,1.99,1.53,2.98,2.3.94.74,1.87,1.49,2.79,2.25,3.76,3.12,6.81,6.12,9.75,10.05.79,1.05,1.53,2.12,2.25,3.22.38.59.76,1.18,1.13,1.78.39.63.76,1.27,1.13,1.92.8,1.43,1.53,2.88,2.2,4.38.37.83.71,1.67,1.04,2.52.08.22.17.45.25.67.04.11.08.23.12.34.04.11.11.2.2.27.18.14.43.16.63.05.21-.11.33-.34.3-.57Z"/>
    <path class="cls-9" d="M1904.63,163.38c-4.46,2.24-8.74,4.82-12.8,7.73-.13.09-.25.18-.38.27-.03.02-.06.05-.09.07-.03.02-.06.05-.09.07-.05.06-.09.12-.12.19-.03.08-.04.14-.05.23-.01.08-.02.17-.03.25-.02.17-.04.33-.06.5-.07.66-.13,1.31-.17,1.97-.08,1.29-.1,2.57-.05,3.86.09,2.49.41,4.95.94,7.38,1.14,5.26,3.21,10.23,5.78,14.91,1.18,2.16,2.46,4.25,3.81,6.31,1.24,1.88,2.53,3.71,3.89,5.5,1.59,2.09,3.27,4.1,5.04,6.05,1.67,1.84,3.41,3.6,5.2,5.31.88.84,1.78,1.67,2.69,2.49.91.82,1.83,1.63,2.75,2.44,1.88,1.65,3.78,3.28,5.61,4.99,1.6,1.49,3.15,3.03,4.61,4.66,1.56,1.74,3.01,3.55,4.33,5.47,1.46,2.12,2.73,4.33,3.85,6.65,1.3,2.7,2.35,5.46,3.22,8.32.42,1.36.79,2.73,1.13,4.12.09.37.18.73.26,1.1.04.19.09.37.13.56.02.09.04.19.06.28.01.05.02.1.03.14,0,.04.02.08.03.12.1.3.42.47.73.37.15-.05.28-.15.35-.29.04-.07.05-.14.06-.21,0-.04,0-.18,0-.22,0-.61,0-1.21,0-1.82,0-.3,0-.61,0-.91,0-.01,0-.1,0-.11,0-.04,0-.08,0-.11,0-.08,0-.15-.01-.23,0-.15-.01-.3-.02-.45-.06-1.21-.13-2.42-.22-3.63-.17-2.42-.39-4.83-.68-7.24-.29-2.41-.65-4.8-1.09-7.18-.23-1.24-.49-2.47-.77-3.69s-.6-2.44-.95-3.65c-.35-1.21-.73-2.4-1.15-3.59-.42-1.19-.88-2.35-1.38-3.51s-1.05-2.28-1.64-3.39c-.59-1.11-1.22-2.2-1.89-3.26-.67-1.06-1.37-2.1-2.1-3.13s-1.46-2.05-2.2-3.06c-.75-1.01-1.5-2.02-2.26-3.02-.76-1-1.53-1.99-2.3-2.99-.77-1-1.54-1.99-2.3-2.99-.76-1-1.51-2.01-2.25-3.02-.74-1.01-1.47-2.04-2.19-3.07-.72-1.03-1.42-2.07-2.11-3.13-1.38-2.1-2.7-4.24-3.93-6.43-1.23-2.2-2.37-4.43-3.38-6.74-.51-1.15-.98-2.31-1.43-3.49-.44-1.18-.85-2.36-1.22-3.57-.37-1.2-.7-2.41-.99-3.64-.29-1.22-.53-2.46-.73-3.7-.2-1.24-.35-2.49-.46-3.74-.05-.63-.09-1.25-.12-1.88,0-.16-.01-.31-.02-.47,0-.08,0-.16,0-.24,0-.08-.02-.15-.05-.23-.14-.3-.5-.43-.8-.28Z"/>
    <path class="cls-9" d="M1945.26,237.84c-.03-17.55-.05-35.1-.08-52.66-.01-8.78-.03-17.55-.04-26.33,0-1.12,0-2.25,0-3.37,0-.28,0-.56,0-.84,0-.14,0-.28,0-.42,0-.07,0-.14,0-.21v-.11s0-.07,0-.1c-.05-.29-.3-.5-.59-.49-.27,0-.54.02-.81.03-2.17.08-4.34.24-6.51.47-4.35.47-8.66,1.23-12.9,2.29-4.15,1.03-8.22,2.35-12.19,3.93-.99.39-1.97.8-2.94,1.23-.24.11-.49.21-.73.32-.12.05-.24.11-.36.16-.06.03-.12.05-.18.08-.02,0-.16.07-.18.08-.12.06-.22.17-.27.3-.03.06-.04.13-.04.2,0,.04,0,.18,0,.22,0,.3,0,.6.01.9.06,2.34.29,4.63.69,6.94.79,4.59,2.22,9.01,4.09,13.26,1.68,3.81,3.67,7.41,5.88,10.93.68,1.09,1.39,2.16,2.1,3.23.66.98,1.33,1.95,2.01,2.92,1.24,1.76,2.51,3.47,3.81,5.19,1.23,1.62,2.48,3.22,3.72,4.84,1.3,1.7,2.57,3.38,3.83,5.11.48.67.96,1.34,1.43,2.01.5.72.99,1.44,1.47,2.17,1.08,1.65,2.07,3.31,2.97,5.06,1.09,2.12,2.01,4.28,2.8,6.52.47,1.32.89,2.64,1.27,3.99.21.73.4,1.47.59,2.21.02.08.03.15.07.23.04.07.08.13.14.18.12.1.26.15.42.14.31-.02.55-.28.55-.58Z"/>
    <path class="cls-9" d="M1862.81,204.6c.12-.22.36-.35.61-.31s.44.24.48.48c.48,2.99,1.07,5.95,1.8,8.89.73,2.94,1.6,5.83,2.64,8.68.52,1.42,1.08,2.82,1.69,4.21.61,1.39,1.26,2.75,1.96,4.09s1.45,2.65,2.25,3.94c.8,1.29,1.64,2.54,2.54,3.76.89,1.22,1.83,2.41,2.81,3.56.98,1.15,2,2.27,3.05,3.36.52.55,1.05,1.09,1.59,1.62.54.53,1.08,1.06,1.62,1.59,1.09,1.05,2.2,2.08,3.33,3.08s2.29,1.98,3.47,2.92,2.38,1.86,3.61,2.75c1.22.89,2.47,1.75,3.72,2.6s2.51,1.69,3.76,2.54c2.51,1.69,5,3.41,7.47,5.16s4.9,3.55,7.3,5.4c1.2.92,2.39,1.86,3.56,2.81,1.18.95,2.35,1.91,3.5,2.89,1.15.98,2.29,1.98,3.4,3.01,1.11,1.03,2.2,2.08,3.25,3.17,2.1,2.17,4.07,4.49,5.78,6.99.85,1.25,1.64,2.54,2.34,3.89.35.67.68,1.35.98,2.05s.58,1.4.83,2.11c.25.71.48,1.43.68,2.16s.38,1.46.55,2.2c.32,1.48.57,2.97.77,4.47.2,1.5.36,3,.48,4.51.13,1.51.23,3.02.31,4.53.02.29-.19.55-.47.61s-.57-.11-.67-.38c-.98-2.83-2.2-5.55-3.74-8.12-1.32-2.21-2.83-4.25-4.56-6.15-1.99-2.19-4.15-4.07-6.52-5.83-1.08-.8-2.18-1.57-3.3-2.32-1.05-.7-2.15-1.42-3.21-2.1-2.46-1.57-4.96-3.08-7.49-4.54-2.27-1.31-4.57-2.58-6.87-3.83-1.27-.69-2.55-1.38-3.82-2.06-1.23-.66-2.45-1.32-3.67-2-.6-.33-1.19-.66-1.79-.99-.59-.33-1.18-.67-1.76-1-1.16-.67-2.32-1.36-3.46-2.06-2.29-1.41-4.53-2.89-6.7-4.48-2.31-1.68-4.53-3.46-6.68-5.35-.94-.83-1.87-1.67-2.78-2.53-.47-.45-.94-.9-1.41-1.35-.48-.47-.95-.94-1.42-1.42-.99-1.01-1.95-2.05-2.88-3.12-1.02-1.17-1.98-2.38-2.91-3.63-1.49-2.02-2.85-4.12-4.09-6.3-1.51-2.64-2.84-5.36-4.05-8.14-1.02-2.36-1.96-4.74-2.82-7.16-1-2.81-1.91-5.65-2.75-8.51-.03-.1-.03-.21,0-.31,1.8-6.94,4.38-13.66,7.69-20.03Z"/>
    <path class="cls-9" d="M1853.74,230.78c.05-.26.27-.46.54-.47.27-.02.51.15.59.4.89,2.71,1.86,5.39,2.92,8.04.53,1.32,1.09,2.63,1.68,3.93.59,1.3,1.2,2.58,1.85,3.86,1.3,2.55,2.72,5.01,4.32,7.38.8,1.19,1.63,2.34,2.5,3.47.88,1.13,1.79,2.22,2.74,3.29.95,1.07,1.93,2.1,2.94,3.11.5.51,1.01,1,1.53,1.5s1.03.98,1.55,1.47c1.05.97,2.11,1.92,3.2,2.84,1.09.92,2.19,1.82,3.32,2.7,1.13.87,2.27,1.72,3.44,2.55,1.16.82,2.35,1.62,3.54,2.4,1.2.77,2.41,1.53,3.63,2.26s2.46,1.44,3.7,2.14c2.49,1.4,5,2.74,7.51,4.1,1.26.68,2.51,1.36,3.76,2.04s2.5,1.38,3.73,2.08c1.24.71,2.47,1.42,3.7,2.15,1.23.73,2.44,1.47,3.65,2.23s2.41,1.53,3.6,2.31c1.19.79,2.37,1.58,3.53,2.42,1.15.84,2.28,1.71,3.36,2.64,1.08.93,2.11,1.91,3.09,2.95.49.52.96,1.05,1.42,1.6s.9,1.11,1.32,1.68c.85,1.15,1.62,2.34,2.33,3.58s1.34,2.51,1.92,3.82c.57,1.31,1.08,2.64,1.52,4,.89,2.7,1.55,5.5,2.04,8.3.05.28-.11.55-.38.65-.27.1-.56-.01-.71-.26-1.3-2.26-2.89-4.22-4.81-5.98-1.72-1.58-3.6-2.9-5.58-4.13-1.04-.64-2.23-1.33-3.29-1.93-1.07-.6-2.16-1.18-3.25-1.75-2.12-1.1-4.26-2.12-6.43-3.11-2.2-1-4.42-1.97-6.64-2.92-1.12-.48-2.25-.97-3.37-1.45-1.14-.49-2.28-.99-3.42-1.49-4.44-1.97-8.92-4.05-13.23-6.3-1.09-.57-2.18-1.16-3.26-1.76-1.07-.59-2.13-1.2-3.17-1.83-2.09-1.25-4.12-2.56-6.11-3.97-1.92-1.36-3.78-2.8-5.59-4.31-1.94-1.63-3.8-3.34-5.6-5.12-.4-.39-.79-.79-1.18-1.19-.4-.41-.8-.82-1.19-1.23-.82-.86-1.61-1.74-2.4-2.63-1.7-1.94-3.29-3.94-4.79-6.04-2.86-4.01-5.24-8.22-7.28-12.7-.03-.06-.04-.12-.05-.18-.89-9.05-.48-18.19,1.22-27.13Z"/>
    <path class="cls-9" d="M1945.37,343.23c.03.35-.25.64-.6.63-21.56-.59-42.29-8.47-58.79-22.37-16.5-13.9-27.8-32.98-32.05-54.13-.06-.28.1-.56.36-.66s.57,0,.71.25c1.32,2.21,2.75,4.34,4.29,6.4,1.54,2.06,3.18,4.03,4.91,5.94.86.95,1.75,1.88,2.64,2.8.9.92,1.81,1.82,2.75,2.7,1.87,1.77,3.8,3.46,5.81,5.07s4.08,3.11,6.22,4.54c2.14,1.42,4.34,2.75,6.57,4.02,2.24,1.26,4.51,2.46,6.81,3.61,2.3,1.15,4.62,2.25,6.96,3.31,2.34,1.07,4.69,2.1,7.05,3.12,2.36,1.02,4.72,2.03,7.07,3.06,2.35,1.03,4.69,2.1,7,3.23,2.31,1.13,4.57,2.34,6.8,3.63,1.11.65,2.21,1.31,3.28,2.02,1.07.71,2.1,1.47,3.08,2.31.49.42.96.85,1.42,1.3.46.45.9.92,1.32,1.41.42.49.82.99,1.19,1.51.38.52.73,1.06,1.06,1.61.33.55.64,1.11.93,1.69.29.58.55,1.16.79,1.76.24.6.46,1.2.66,1.81s.38,1.23.55,1.85c.33,1.24.58,2.5.78,3.77.2,1.27.34,2.55.43,3.83Z"/>
    <path class="cls-9" d="M1945,298.63c.02.29-.17.56-.46.62s-.57-.1-.67-.37c-.94-2.57-2.17-4.96-3.65-7.26-1.48-2.29-3.17-4.43-5-6.45-1.84-2.04-3.82-3.97-5.86-5.8-1.01-.91-2.04-1.8-3.07-2.67-.51-.43-1.03-.86-1.54-1.28-.51-.42-1.02-.84-1.54-1.25-2.19-1.76-4.42-3.48-6.67-5.16-2.11-1.57-4.24-3.1-6.4-4.61-1.16-.81-2.33-1.61-3.5-2.41-.57-.39-1.13-.77-1.7-1.15-.55-.37-1.11-.75-1.66-1.12-2.26-1.52-4.37-2.94-6.55-4.56-.94-.69-1.86-1.4-2.77-2.13-.99-.79-1.96-1.6-2.92-2.44-1.06-.93-2.11-1.87-3.13-2.84-.56-.53-1.11-1.07-1.66-1.61-.59-.58-1.17-1.16-1.74-1.75-.83-.85-1.64-1.72-2.43-2.61-.86-.97-1.69-1.96-2.49-2.98-1.83-2.33-3.46-4.77-4.92-7.36-1.24-2.2-2.33-4.46-3.31-6.79-1.13-2.7-2.08-5.45-2.89-8.26-.71-2.46-1.31-4.94-1.81-7.44-.57-2.83-1.03-5.67-1.39-8.54-.02-.13.01-.26.08-.37,2.75-4.65,5.9-9.07,9.4-13.19.16-.19.43-.26.66-.17s.38.32.37.57c-.12,2.85-.06,5.71.22,8.55.14,1.42.33,2.83.58,4.24.25,1.41.56,2.8.92,4.18.37,1.38.79,2.74,1.28,4.08.49,1.34,1.03,2.66,1.63,3.96.6,1.3,1.25,2.56,1.96,3.81.7,1.24,1.45,2.46,2.24,3.65.79,1.19,1.6,2.36,2.45,3.51.85,1.15,1.72,2.28,2.61,3.39,1.8,2.22,3.69,4.35,5.69,6.39,2,2.04,4.08,3.99,6.23,5.87,2.15,1.88,4.36,3.68,6.61,5.44,2.24,1.76,4.52,3.48,6.8,5.2,1.14.86,2.28,1.72,3.41,2.58,1.14.86,2.27,1.73,3.38,2.62,1.12.88,2.23,1.78,3.31,2.71,1.09.93,2.15,1.88,3.17,2.88,1.02,1,2.01,2.03,2.94,3.1.94,1.08,1.83,2.19,2.67,3.34.85,1.15,1.64,2.33,2.41,3.54s1.49,2.43,2.16,3.69,1.29,2.54,1.85,3.86c.56,1.31,1.06,2.65,1.51,4,.97,2.95,1.69,5.98,2.23,9.03.13.73.25,1.46.35,2.2.09.57.16,1.15.23,1.73.07.56.13,1.11.19,1.67.07.72.14,1.44.2,2.16Z"/>
    <path class="cls-9" d="M1944.37,279.8c.03.29-.17.56-.45.63-.29.06-.58-.1-.68-.37-.5-1.39-1.05-2.76-1.67-4.11-.55-1.2-1.14-2.37-1.78-3.52-.58-1.04-1.19-2.06-1.82-3.07-.58-.93-1.19-1.84-1.81-2.73-1.51-2.15-3.12-4.14-4.93-6.05-1.72-1.82-3.51-3.45-5.42-5.06-.45-.38-.9-.75-1.35-1.12-.47-.38-.93-.75-1.4-1.13-.98-.77-1.96-1.53-2.95-2.29-2.1-1.61-4.22-3.19-6.33-4.79-4.02-3.05-8.07-6.21-11.85-9.57-3.83-3.41-7.31-6.96-10.55-10.94-.75-.92-1.49-1.86-2.2-2.82-.37-.49-.73-.99-1.09-1.48-.37-.51-.73-1.02-1.08-1.54-1.51-2.2-2.88-4.43-4.08-6.81-1.09-2.15-2.01-4.35-2.77-6.64-.84-2.56-1.46-5.14-1.87-7.8-.36-2.36-.56-4.72-.62-7.1-.06-2.7.05-5.4.31-8.08.01-.13.07-.25.16-.35,3.06-3.23,6.33-6.24,9.81-9.01.18-.14.43-.17.63-.06s.33.32.31.56c-.16,2.57-.07,5.13.24,7.68.16,1.27.37,2.54.63,3.79.26,1.26.58,2.5.94,3.73.73,2.46,1.64,4.86,2.69,7.2.53,1.17,1.09,2.32,1.68,3.46.59,1.14,1.21,2.26,1.86,3.37.65,1.11,1.32,2.2,2.01,3.28.69,1.08,1.4,2.15,2.13,3.2,1.46,2.11,3,4.15,4.63,6.14,1.63,1.99,3.33,3.89,5.12,5.74,1.78,1.85,3.63,3.62,5.53,5.35,2.08,1.89,3.66,3.24,5.77,5.09.96.85,1.92,1.7,2.86,2.57.94.87,1.86,1.76,2.76,2.67.9.92,1.77,1.85,2.61,2.82.84.97,1.64,1.97,2.41,3s1.49,2.09,2.17,3.17,1.32,2.2,1.91,3.34c.59,1.14,1.14,2.3,1.64,3.48.5,1.18.96,2.37,1.39,3.59s.81,2.43,1.16,3.67c.35,1.23.67,2.48.96,3.73.58,2.5,1.04,5.02,1.43,7.56.39,2.54.69,5.08.95,7.63Z"/>
    <path class="cls-9" d="M1904.63,163.38c.18-.09.39-.08.56.02.17.1.28.28.29.48.04,1.13.11,2.25.22,3.38s.26,2.24.45,3.36c.38,2.23.9,4.42,1.55,6.59,1.3,4.34,3.1,8.49,5.23,12.48,1.06,1.99,2.2,3.94,3.4,5.86.6.96,1.21,1.9,1.84,2.85.62.94,1.26,1.87,1.9,2.8.65.93,1.3,1.84,1.97,2.76.67.91,1.34,1.82,2.02,2.72,1.36,1.8,2.75,3.58,4.13,5.37.69.9,1.37,1.79,2.05,2.7.68.9,1.35,1.81,2.01,2.73.66.92,1.31,1.84,1.95,2.77.63.93,1.25,1.88,1.83,2.85.58.97,1.13,1.95,1.65,2.96.52,1.01,1,2.03,1.44,3.06.45,1.04.86,2.09,1.24,3.15s.73,2.14,1.05,3.22c.64,2.17,1.17,4.36,1.62,6.58.45,2.22.81,4.44,1.11,6.68.3,2.24.54,4.48.73,6.73.19,2.25.33,4.5.43,6.76,0,.97,0,1.94,0,2.91,0,.3-.22.55-.52.58-.3.03-.57-.16-.63-.46-.53-2.43-1.15-4.83-1.92-7.2-.66-2.05-1.41-4.05-2.29-6.01-1-2.23-2.13-4.36-3.44-6.42-1.18-1.87-2.47-3.64-3.88-5.34-1.52-1.83-3.14-3.54-4.85-5.19-1.63-1.57-3.31-3.08-5.01-4.56-1.84-1.61-3.4-2.95-5.2-4.6-1.71-1.56-3.37-3.15-4.98-4.81-1.56-1.6-3.07-3.26-4.51-4.97-1.54-1.83-3.01-3.71-4.41-5.66-1.29-1.79-2.54-3.66-3.71-5.54-1.28-2.05-2.47-4.13-3.56-6.29-2.08-4.13-3.74-8.47-4.71-13.02-.97-4.57-1.2-9.17-.57-13.8.02-.16.11-.3.24-.39,4.2-3.05,8.64-5.75,13.28-8.08Z"/>
    <path class="cls-9" d="M1945.26,237.84c0,.3-.22.55-.51.58s-.57-.15-.64-.44c-.46-1.86-.99-3.69-1.61-5.51-.53-1.56-1.12-3.09-1.79-4.6-.77-1.76-1.64-3.45-2.61-5.11-.84-1.43-1.72-2.79-2.66-4.15-.54-.78-1.09-1.56-1.65-2.33-.53-.73-1.06-1.46-1.6-2.18-1.01-1.36-2.05-2.71-3.08-4.06-1.06-1.38-2.12-2.75-3.17-4.13-1.1-1.45-2.19-2.91-3.25-4.39-.97-1.36-1.92-2.74-2.85-4.13-1.04-1.57-2.05-3.16-3.02-4.78-1.83-3.06-3.48-6.19-4.89-9.48-2.82-6.58-4.53-13.48-4.53-20.7,0-.23.13-.44.34-.53,11.56-5.29,24.07-8.21,36.78-8.59.33,0,.6.25.6.58.04,27.98.09,55.97.13,83.95Z"/>
    <path class="cls-6" d="M1761.1,130.56c0,.3.22.55.51.58s.57-.15.64-.44c.46-1.86.99-3.69,1.61-5.51.53-1.56,1.12-3.09,1.79-4.6.77-1.76,1.64-3.45,2.61-5.11.84-1.43,1.72-2.79,2.66-4.15.54-.78,1.09-1.56,1.65-2.33.53-.73,1.06-1.46,1.6-2.18,1.01-1.36,2.05-2.71,3.08-4.06,1.06-1.38,2.12-2.75,3.17-4.13,1.1-1.45,2.19-2.91,3.25-4.39.97-1.36,1.92-2.74,2.85-4.13,1.04-1.57,2.05-3.16,3.02-4.77,1.83-3.06,3.48-6.19,4.89-9.48,2.82-6.58,4.53-13.48,4.53-20.71,0-.23-.13-.44-.34-.53-11.56-5.29-24.07-8.21-36.78-8.58-.33-.01-.6.25-.6.58-.04,27.98-.09,55.96-.13,83.95Z"/>
    <path class="cls-6" d="M1801.73,56.11c-.18-.09-.39-.08-.56.02-.17.1-.28.28-.29.48-.04,1.13-.11,2.25-.22,3.38-.11,1.12-.26,2.24-.45,3.36-.38,2.23-.9,4.42-1.55,6.59-1.3,4.34-3.1,8.49-5.23,12.48-1.06,1.99-2.2,3.94-3.4,5.86-.6.96-1.21,1.9-1.84,2.85-.62.94-1.26,1.87-1.9,2.8-.65.93-1.3,1.84-1.97,2.76-.67.91-1.34,1.82-2.02,2.72-1.36,1.8-2.75,3.58-4.13,5.37-.69.9-1.37,1.79-2.05,2.7-.68.9-1.35,1.81-2.01,2.73-.66.92-1.31,1.84-1.95,2.77s-1.25,1.88-1.83,2.85c-.58.97-1.13,1.95-1.65,2.96-.52,1.01-1,2.03-1.44,3.06-.45,1.04-.86,2.09-1.24,3.15-.38,1.06-.73,2.14-1.05,3.22-.64,2.17-1.17,4.36-1.62,6.58-.45,2.22-.81,4.44-1.11,6.68-.3,2.24-.54,4.48-.73,6.73-.19,2.25-.33,4.5-.43,6.76,0,.97,0,1.94,0,2.91,0,.3.22.55.52.58.3.03.57-.16.63-.46.53-2.43,1.15-4.83,1.92-7.2.66-2.05,1.41-4.05,2.29-6.01,1-2.23,2.13-4.36,3.44-6.42,1.18-1.87,2.47-3.64,3.88-5.34,1.52-1.83,3.14-3.54,4.85-5.19,1.63-1.57,3.31-3.07,5.01-4.56,1.84-1.61,3.4-2.95,5.2-4.6,1.71-1.56,3.37-3.15,4.98-4.81,1.56-1.6,3.07-3.26,4.51-4.97,1.54-1.83,3.01-3.71,4.41-5.66,1.29-1.79,2.54-3.66,3.71-5.54,1.28-2.05,2.47-4.13,3.56-6.29,2.08-4.13,3.74-8.47,4.71-13.02.97-4.57,1.2-9.17.57-13.81-.02-.16-.11-.3-.24-.39-4.2-3.05-8.64-5.75-13.28-8.08Z"/>
    <path class="cls-6" d="M1761.98,172.52c-.03.29.17.56.45.63.29.06.58-.1.68-.37.5-1.39,1.05-2.76,1.67-4.11.55-1.2,1.14-2.37,1.78-3.52.58-1.04,1.19-2.06,1.82-3.07.58-.92,1.19-1.83,1.82-2.73,1.51-2.15,3.12-4.14,4.92-6.05,1.72-1.82,3.51-3.45,5.42-5.06.45-.38.9-.75,1.35-1.12.47-.38.93-.75,1.4-1.13.98-.77,1.96-1.53,2.95-2.29,2.1-1.61,4.22-3.19,6.33-4.79,4.02-3.05,8.07-6.21,11.85-9.57,3.83-3.41,7.31-6.96,10.55-10.94.75-.92,1.49-1.86,2.2-2.82.37-.49.73-.99,1.09-1.48.37-.51.73-1.02,1.08-1.54,1.51-2.2,2.88-4.43,4.08-6.81,1.09-2.15,2.01-4.35,2.77-6.64.85-2.56,1.46-5.14,1.87-7.8.36-2.36.56-4.72.62-7.1.06-2.7-.05-5.4-.31-8.08-.01-.13-.07-.25-.16-.35-3.06-3.23-6.33-6.24-9.81-9.01-.18-.14-.43-.17-.63-.06-.21.11-.33.32-.31.56.16,2.57.07,5.13-.24,7.68-.16,1.27-.37,2.54-.63,3.79-.26,1.26-.58,2.5-.94,3.73-.73,2.46-1.64,4.86-2.69,7.2-.53,1.17-1.09,2.32-1.68,3.46-.59,1.14-1.21,2.26-1.86,3.37s-1.32,2.2-2.01,3.28-1.4,2.15-2.13,3.2c-1.46,2.11-3,4.15-4.63,6.14s-3.33,3.89-5.12,5.74c-1.78,1.85-3.63,3.62-5.53,5.35-2.08,1.89-3.66,3.24-5.77,5.09-.96.85-1.92,1.7-2.86,2.57-.94.87-1.86,1.76-2.76,2.67-.9.91-1.77,1.85-2.61,2.82s-1.64,1.97-2.41,3c-.77,1.03-1.49,2.09-2.17,3.17s-1.32,2.2-1.91,3.34c-.59,1.14-1.14,2.3-1.64,3.48s-.96,2.37-1.39,3.59c-.42,1.21-.81,2.43-1.16,3.67-.35,1.23-.67,2.48-.96,3.73-.58,2.5-1.04,5.02-1.43,7.56-.39,2.54-.69,5.08-.95,7.63Z"/>
    <path class="cls-6" d="M1761.36,191.36c-.02.29.17.56.46.62s.57-.1.67-.37c.94-2.57,2.17-4.96,3.65-7.26,1.48-2.29,3.18-4.43,5-6.45,1.84-2.04,3.82-3.97,5.86-5.8,1.01-.91,2.03-1.8,3.07-2.67.51-.43,1.03-.86,1.54-1.28.51-.42,1.02-.84,1.54-1.25,2.19-1.76,4.42-3.48,6.67-5.16,2.11-1.57,4.24-3.1,6.4-4.61,1.16-.81,2.33-1.62,3.5-2.41.57-.39,1.13-.77,1.7-1.15.55-.37,1.11-.75,1.66-1.12,2.26-1.52,4.37-2.94,6.55-4.56.94-.69,1.86-1.4,2.77-2.13.99-.79,1.96-1.6,2.92-2.44,1.06-.93,2.11-1.87,3.13-2.84.56-.53,1.11-1.07,1.66-1.61.59-.58,1.17-1.16,1.74-1.75.83-.85,1.64-1.72,2.43-2.61.86-.97,1.69-1.96,2.49-2.98,1.83-2.33,3.46-4.77,4.92-7.36,1.24-2.2,2.33-4.46,3.31-6.78,1.13-2.7,2.08-5.45,2.89-8.26.71-2.46,1.31-4.94,1.82-7.44.57-2.83,1.03-5.67,1.39-8.54.02-.13-.01-.26-.08-.37-2.75-4.65-5.9-9.07-9.4-13.19-.16-.19-.43-.26-.66-.17-.23.09-.38.32-.37.57.12,2.85.06,5.71-.22,8.55-.14,1.42-.33,2.83-.58,4.24-.25,1.41-.56,2.8-.92,4.18-.37,1.38-.79,2.74-1.28,4.08-.49,1.34-1.03,2.66-1.63,3.96-.6,1.3-1.25,2.56-1.96,3.81-.7,1.24-1.45,2.46-2.24,3.65s-1.6,2.36-2.45,3.51c-.84,1.15-1.72,2.28-2.61,3.39-1.8,2.22-3.69,4.35-5.69,6.39-2,2.04-4.08,3.99-6.23,5.87-2.15,1.88-4.36,3.68-6.61,5.44-2.24,1.76-4.52,3.48-6.8,5.2-1.14.86-2.28,1.72-3.41,2.58-1.14.86-2.27,1.73-3.38,2.62-1.12.89-2.23,1.78-3.31,2.71-1.09.93-2.15,1.88-3.17,2.88-1.02,1-2.01,2.03-2.94,3.1s-1.83,2.19-2.67,3.34c-.85,1.15-1.64,2.33-2.41,3.54s-1.49,2.43-2.16,3.69c-.67,1.26-1.29,2.54-1.85,3.86-.56,1.31-1.06,2.65-1.51,4-.97,2.95-1.69,5.98-2.23,9.03-.13.73-.25,1.46-.35,2.2-.09.57-.16,1.15-.23,1.73-.07.56-.13,1.11-.19,1.67-.07.72-.14,1.44-.2,2.16Z"/>
    <path class="cls-6" d="M1760.98,235.95c-.03.35.25.64.6.63,21.56-.59,42.29-8.47,58.79-22.37,16.5-13.9,27.8-32.98,32.05-54.13.06-.28-.1-.56-.36-.66-.27-.1-.57,0-.71.24-1.32,2.21-2.75,4.34-4.29,6.4-1.54,2.06-3.18,4.03-4.91,5.94-.86.95-1.75,1.88-2.64,2.8s-1.81,1.82-2.75,2.7c-1.87,1.77-3.8,3.46-5.81,5.07s-4.08,3.11-6.22,4.54c-2.14,1.42-4.34,2.75-6.57,4.02-2.24,1.26-4.51,2.46-6.81,3.61-2.3,1.15-4.62,2.25-6.96,3.31-2.34,1.07-4.69,2.1-7.05,3.12-2.36,1.02-4.72,2.03-7.07,3.06-2.35,1.04-4.69,2.1-7,3.23-2.31,1.13-4.57,2.34-6.8,3.63-1.11.65-2.21,1.31-3.28,2.02-1.07.71-2.1,1.47-3.08,2.31-.49.42-.96.85-1.42,1.3-.46.45-.9.92-1.32,1.41-.42.49-.82.99-1.19,1.51-.38.52-.73,1.06-1.06,1.61-.33.55-.64,1.11-.93,1.69-.29.58-.55,1.16-.79,1.76-.24.6-.46,1.2-.66,1.81-.2.61-.38,1.23-.55,1.85-.33,1.24-.58,2.5-.78,3.77-.2,1.27-.34,2.55-.43,3.83Z"/>
    <path class="cls-6" d="M1852.62,123.5c-.05-.26-.27-.46-.54-.47s-.51.15-.59.4c-.89,2.71-1.86,5.39-2.92,8.04-.53,1.32-1.09,2.63-1.68,3.93-.59,1.3-1.2,2.59-1.85,3.86-1.3,2.55-2.72,5-4.32,7.38-.8,1.18-1.63,2.34-2.5,3.47-.88,1.13-1.79,2.22-2.74,3.29-.95,1.07-1.93,2.1-2.94,3.11-.5.5-1.01,1-1.53,1.5s-1.03.98-1.55,1.47c-1.05.97-2.11,1.92-3.2,2.84-1.09.92-2.19,1.82-3.32,2.7-1.13.87-2.27,1.72-3.44,2.55-1.16.82-2.35,1.62-3.54,2.4s-2.41,1.53-3.63,2.26c-1.22.73-2.46,1.44-3.7,2.14-2.49,1.4-5,2.74-7.51,4.1-1.25.68-2.51,1.36-3.76,2.04s-2.5,1.38-3.73,2.08c-1.24.71-2.47,1.42-3.7,2.15-1.23.73-2.44,1.47-3.65,2.23-1.21.76-2.41,1.53-3.6,2.31-1.19.79-2.37,1.58-3.53,2.42-1.15.84-2.28,1.71-3.36,2.64-1.08.93-2.11,1.91-3.09,2.95-.49.52-.96,1.05-1.42,1.6-.46.55-.9,1.11-1.32,1.68-.85,1.15-1.62,2.34-2.33,3.58-.71,1.24-1.34,2.51-1.92,3.82-.57,1.31-1.08,2.64-1.52,4-.89,2.7-1.55,5.5-2.04,8.3-.05.28.11.55.38.65.27.1.56-.01.71-.26,1.3-2.26,2.89-4.22,4.81-5.98,1.72-1.58,3.6-2.9,5.58-4.13,1.04-.64,2.23-1.33,3.29-1.93,1.07-.6,2.16-1.18,3.25-1.75,2.12-1.09,4.26-2.12,6.43-3.11,2.2-1,4.42-1.97,6.64-2.92,1.12-.48,2.25-.97,3.37-1.45,1.14-.49,2.28-.99,3.42-1.49,4.44-1.97,8.92-4.05,13.23-6.3,1.09-.57,2.18-1.16,3.26-1.76,1.07-.59,2.13-1.2,3.17-1.83,2.09-1.25,4.12-2.56,6.11-3.97,1.92-1.36,3.78-2.8,5.59-4.31,1.94-1.63,3.8-3.34,5.6-5.12.4-.39.79-.79,1.18-1.19.4-.41.8-.82,1.19-1.23.82-.86,1.61-1.74,2.4-2.63,1.7-1.94,3.29-3.94,4.79-6.04,2.86-4.01,5.24-8.22,7.28-12.7.03-.06.04-.12.05-.18.89-9.05.48-18.19-1.22-27.13Z"/>
    <path class="cls-6" d="M1843.55,97.33c-.12-.22-.36-.35-.61-.31s-.44.24-.48.49c-.48,2.99-1.07,5.95-1.8,8.89-.73,2.94-1.6,5.83-2.64,8.68-.52,1.42-1.08,2.82-1.69,4.21-.61,1.39-1.26,2.75-1.96,4.09-.7,1.34-1.45,2.65-2.25,3.94s-1.64,2.54-2.54,3.76-1.83,2.41-2.81,3.56c-.98,1.15-2,2.27-3.05,3.36-.52.55-1.05,1.08-1.59,1.62-.54.53-1.08,1.06-1.62,1.59-1.09,1.05-2.2,2.08-3.33,3.08s-2.29,1.98-3.47,2.92c-1.18.95-2.38,1.86-3.61,2.75s-2.47,1.75-3.72,2.6c-1.25.85-2.51,1.69-3.76,2.54-2.51,1.69-5,3.41-7.47,5.16-2.46,1.76-4.9,3.55-7.3,5.4-1.2.92-2.39,1.86-3.56,2.81-1.18.95-2.35,1.91-3.5,2.89s-2.29,1.98-3.4,3.01c-1.11,1.03-2.2,2.08-3.25,3.17-2.1,2.17-4.07,4.49-5.78,6.99-.85,1.25-1.64,2.54-2.34,3.89-.35.67-.68,1.35-.98,2.05s-.58,1.4-.83,2.11c-.25.71-.48,1.43-.68,2.16s-.38,1.46-.55,2.2c-.32,1.48-.57,2.97-.77,4.47-.2,1.5-.36,3-.48,4.51-.13,1.51-.23,3.02-.31,4.53-.02.29.19.55.47.61.29.06.57-.11.67-.38.98-2.83,2.2-5.55,3.74-8.12,1.32-2.21,2.83-4.25,4.56-6.15,1.99-2.19,4.15-4.07,6.52-5.83,1.08-.8,2.18-1.57,3.3-2.32,1.05-.7,2.15-1.42,3.21-2.1,2.46-1.57,4.96-3.08,7.49-4.54,2.27-1.31,4.57-2.58,6.87-3.83,1.27-.69,2.55-1.38,3.82-2.06,1.23-.66,2.45-1.32,3.67-2,.6-.33,1.19-.66,1.79-.99.59-.33,1.18-.67,1.76-1,1.16-.67,2.32-1.36,3.46-2.06,2.29-1.41,4.53-2.9,6.7-4.48,2.31-1.68,4.53-3.46,6.68-5.35.94-.83,1.87-1.67,2.78-2.53.47-.45.94-.9,1.41-1.35.48-.47.95-.94,1.42-1.42.99-1.01,1.95-2.05,2.88-3.12,1.02-1.17,1.98-2.38,2.91-3.63,1.49-2.02,2.85-4.12,4.09-6.3,1.51-2.64,2.84-5.36,4.05-8.14,1.02-2.36,1.96-4.74,2.82-7.16,1-2.81,1.91-5.65,2.75-8.51.03-.1.03-.21,0-.31-1.8-6.94-4.38-13.66-7.69-20.03Z"/>
    <path class="cls-6" d="M1761.1,130.56c.03-17.55.05-35.1.08-52.66.01-8.78.03-17.55.04-26.33,0-1.12,0-2.25,0-3.37,0-.28,0-.56,0-.84,0-.14,0-.28,0-.42,0-.07,0-.14,0-.21v-.1s0-.07,0-.1c.05-.29.3-.5.59-.49.27,0,.54.02.81.03,2.17.08,4.34.24,6.51.47,4.35.47,8.66,1.23,12.9,2.29,4.15,1.03,8.22,2.35,12.19,3.93.99.39,1.97.8,2.94,1.23.24.11.49.21.73.32.12.05.24.11.36.16.06.03.12.05.18.08.02,0,.16.07.18.08.12.06.22.17.27.3.03.06.04.13.04.2,0,.04,0,.18,0,.22,0,.3,0,.6-.01.9-.06,2.34-.29,4.63-.69,6.94-.79,4.59-2.22,9.01-4.09,13.26-1.68,3.81-3.67,7.41-5.88,10.93-.68,1.09-1.39,2.16-2.1,3.23-.66.98-1.33,1.95-2.01,2.92-1.24,1.76-2.51,3.47-3.81,5.19-1.23,1.62-2.48,3.22-3.72,4.84-1.3,1.7-2.57,3.38-3.83,5.11-.48.67-.96,1.34-1.43,2.01-.5.72-.99,1.44-1.47,2.17-1.08,1.65-2.07,3.31-2.97,5.06-1.09,2.11-2.01,4.28-2.8,6.52-.47,1.32-.89,2.64-1.27,3.99-.21.73-.4,1.47-.59,2.21-.02.08-.03.15-.07.23-.04.07-.08.12-.14.17-.12.1-.26.15-.42.14-.31-.02-.55-.28-.55-.58Z"/>
    <path class="cls-8" d="M1761.1,343.66c0,.3.22.55.51.58s.57-.15.64-.44c.46-1.86.99-3.69,1.61-5.51.53-1.56,1.12-3.09,1.79-4.6.77-1.76,1.64-3.45,2.61-5.11.84-1.43,1.72-2.79,2.66-4.15.54-.78,1.09-1.56,1.65-2.33.53-.73,1.06-1.46,1.6-2.18,1.01-1.36,2.05-2.71,3.08-4.06,1.06-1.38,2.12-2.75,3.17-4.13,1.1-1.45,2.19-2.91,3.25-4.39.97-1.36,1.92-2.74,2.85-4.13,1.04-1.57,2.05-3.16,3.02-4.77,1.83-3.06,3.48-6.19,4.89-9.48,2.82-6.58,4.53-13.48,4.53-20.71,0-.23-.13-.44-.34-.53-11.56-5.29-24.07-8.21-36.78-8.58-.33-.01-.6.25-.6.58-.04,27.98-.09,55.96-.13,83.95Z"/>
    <path class="cls-6" d="M1761.98,172.52c.27-2.71.6-5.42,1.02-8.11.42-2.68.94-5.38,1.58-8.02.64-2.65,1.42-5.27,2.38-7.82.48-1.28,1.01-2.53,1.58-3.77.58-1.24,1.2-2.44,1.88-3.63s1.4-2.33,2.18-3.46,1.6-2.21,2.46-3.26c.87-1.05,1.77-2.07,2.71-3.06.94-.99,1.91-1.95,2.9-2.88.99-.94,2-1.85,3.02-2.75,1.02-.9,2.05-1.8,3.08-2.69,1.03-.9,2.05-1.8,3.06-2.71,1.01-.92,2.01-1.85,2.99-2.79,1.96-1.9,3.85-3.85,5.66-5.9,1.81-2.05,3.51-4.17,5.13-6.36,1.6-2.17,3.16-4.48,4.58-6.77,1.44-2.32,2.77-4.69,3.96-7.15,1.18-2.43,2.21-4.92,3.05-7.49.84-2.57,1.48-5.19,1.87-7.87.2-1.34.33-2.68.4-4.03s.08-2.7.01-4.05c0-.17-.02-.34-.03-.51,0-.04,0-.08,0-.13,0-.04,0-.08,0-.12,0-.09.03-.17.08-.24.09-.15.23-.25.4-.28.09-.02.17-.01.26,0,.08.02.15.06.22.11.56.44,1.11.89,1.65,1.35,1.09.91,2.16,1.85,3.21,2.81,1.57,1.44,3.1,2.93,4.57,4.47.09.1.18.19.28.29.02.02.05.05.07.07.02.02.04.05.06.07.04.05.07.11.09.17.01.03.02.06.02.09,0,.02,0,.03,0,.05,0,.03,0,.06,0,.09.01.11.02.23.03.34.02.23.04.45.06.68.07.88.13,1.76.17,2.65.07,1.66.08,3.32.03,4.98-.1,2.96-.43,5.9-1.02,8.8-.52,2.55-1.23,5.03-2.16,7.46-1.12,2.93-2.51,5.68-4.14,8.36-.75,1.23-1.54,2.43-2.36,3.61-.4.57-.8,1.13-1.21,1.69-.4.55-.81,1.09-1.22,1.63-3.07,3.99-6.38,7.59-10.06,11.03-2.16,2.02-4.4,3.95-6.7,5.82-1.11.9-2.23,1.79-3.35,2.67-1.1.86-2.21,1.71-3.32,2.55-2.12,1.61-4.26,3.21-6.38,4.82-1,.76-1.99,1.53-2.98,2.3-.94.74-1.87,1.49-2.79,2.25-3.76,3.12-6.81,6.12-9.75,10.05-.79,1.05-1.53,2.12-2.25,3.22-.38.59-.76,1.18-1.13,1.78-.39.63-.76,1.27-1.13,1.92-.8,1.43-1.53,2.88-2.2,4.38-.37.83-.71,1.67-1.04,2.52-.08.22-.17.45-.25.67-.04.11-.08.23-.12.34-.04.11-.11.2-.2.27-.18.14-.43.16-.63.05-.21-.11-.33-.34-.3-.57Z"/>
    <path class="cls-6" d="M1761.36,191.36c.06-.72.12-1.44.2-2.16.06-.56.12-1.12.19-1.67.07-.58.15-1.16.24-1.74.11-.74.23-1.48.36-2.21.54-3.07,1.26-6.11,2.25-9.07.49-1.48,1.05-2.93,1.68-4.36s1.32-2.82,2.08-4.18c.38-.68.77-1.35,1.18-2.02.41-.66.82-1.32,1.25-1.97.86-1.3,1.76-2.57,2.72-3.8.92-1.18,1.9-2.31,2.92-3.4,1.03-1.09,2.1-2.13,3.2-3.14,1.11-1.01,2.25-1.97,3.41-2.92s2.34-1.87,3.52-2.78c1.18-.91,2.38-1.82,3.57-2.72s2.39-1.8,3.58-2.7c2.38-1.81,4.75-3.63,7.08-5.52,2.32-1.89,4.6-3.83,6.79-5.86,1.1-1.02,2.17-2.06,3.22-3.13s2.07-2.16,3.07-3.27c2-2.23,3.87-4.55,5.64-6.98.88-1.21,1.74-2.44,2.55-3.69.81-1.26,1.59-2.53,2.31-3.85.72-1.3,1.38-2.63,1.98-3.99.6-1.36,1.14-2.74,1.62-4.15s.89-2.83,1.24-4.28c.35-1.45.63-2.9.85-4.37.22-1.47.38-2.95.48-4.43s.15-2.97.14-4.45c0-.74-.02-1.49-.04-2.23,0-.09,0-.19-.01-.28,0-.05,0-.08,0-.13,0-.05.02-.09.04-.13.07-.18.22-.31.41-.35.19-.05.38,0,.53.13.03.03.06.07.09.1.03.04.06.07.09.11.06.07.13.15.19.22,1,1.19,1.97,2.41,2.92,3.65,1.17,1.54,2.3,3.12,3.37,4.73.54.8,1.06,1.62,1.58,2.44.26.41.51.82.76,1.24.12.21.25.41.37.62.01.02.08.13.09.16.03.05.05.1.06.16.01.06.01.11,0,.17,0,.03,0,.06-.01.09,0,.04,0,.08-.01.11,0,.08-.02.15-.03.22-.29,2.28-.65,4.55-1.08,6.82-.39,2.05-.84,4.09-1.35,6.12-.9,3.52-2.01,6.98-3.38,10.35-1.51,3.7-3.31,7.21-5.5,10.56-.92,1.41-1.9,2.78-2.94,4.1-.94,1.2-1.92,2.36-2.94,3.48-.92,1.02-1.88,2.01-2.85,2.99-.88.88-1.77,1.75-2.67,2.6-1.58,1.49-3.19,2.92-4.86,4.3-1.16.96-2.35,1.89-3.56,2.79-1.12.84-2.26,1.65-3.41,2.44-1.12.78-2.26,1.54-3.39,2.3-.58.39-1.15.77-1.73,1.16-.59.4-1.18.8-1.76,1.2-2.49,1.7-4.96,3.42-7.4,5.19-2.65,1.92-5.26,3.89-7.83,5.93-.56.44-1.12.89-1.67,1.34-.56.46-1.13.92-1.68,1.38-1.14.94-2.26,1.9-3.37,2.88-2.24,1.99-4.43,4.08-6.44,6.3-2.01,2.22-3.87,4.59-5.45,7.13-.79,1.27-1.5,2.57-2.14,3.92-.32.68-.61,1.37-.89,2.06-.07.18-.14.35-.2.53-.02.04-.03.09-.05.13-.02.05-.03.08-.06.13-.06.09-.14.16-.23.21-.19.1-.41.08-.59-.03-.18-.12-.28-.32-.26-.54Z"/>
    <path class="cls-6" d="M1760.98,235.95c.1-1.32.24-2.63.45-3.94.21-1.31.48-2.6.82-3.88.35-1.28.77-2.53,1.29-3.75.26-.61.54-1.21.84-1.8.31-.59.63-1.16.99-1.72s.73-1.1,1.13-1.63.82-1.04,1.27-1.53c.89-.99,1.86-1.88,2.89-2.72,1.03-.83,2.11-1.59,3.23-2.31.56-.36,1.12-.7,1.69-1.04.57-.34,1.14-.67,1.72-1,1.15-.65,2.31-1.29,3.49-1.9,1.17-.61,2.36-1.2,3.55-1.78,2.39-1.15,4.8-2.23,7.23-3.28,1.21-.53,2.43-1.05,3.65-1.57s2.43-1.05,3.64-1.58c2.43-1.06,4.84-2.14,7.24-3.26,2.4-1.12,4.78-2.27,7.14-3.48,2.36-1.21,4.68-2.48,6.96-3.83,2.28-1.35,4.51-2.77,6.67-4.31,1.08-.76,2.14-1.55,3.19-2.37,1.05-.81,2.07-1.65,3.08-2.51,2.02-1.73,3.96-3.54,5.83-5.42.94-.94,1.85-1.9,2.75-2.88s1.78-1.97,2.63-2.99c1.71-2.04,3.31-4.15,4.8-6.35.74-1.1,1.46-2.22,2.14-3.36.02-.04.04-.07.06-.11.02-.03.04-.07.07-.09.06-.06.13-.11.21-.14.16-.06.33-.06.48.02.15.08.27.22.31.38.02.08.02.16,0,.24,0,.04-.01.08-.02.11,0,.04-.02.08-.02.12-.13.62-.26,1.23-.39,1.85-4.68,20.86-16.23,39.55-32.81,53.06-8.23,6.71-17.53,11.99-27.5,15.63-5.08,1.85-10.3,3.27-15.62,4.24-2.58.47-5.16.83-7.76,1.09-1.28.13-2.55.22-3.84.3-.63.04-1.27.07-1.9.09-.32.01-.63.02-.95.03-.04,0-.08,0-.12,0-.04,0-.08-.02-.12-.03-.08-.03-.15-.07-.21-.13-.12-.12-.18-.29-.17-.46Z"/>
    <path class="cls-6" d="M1852.62,123.5c1.03,5.41,1.59,10.89,1.67,16.39.04,2.75-.04,5.49-.23,8.24-.05.68-.11,1.37-.17,2.05,0,.09-.02.17-.02.26v.13s-.02.09-.03.13c0,.02-.01.04-.02.07,0,.02-.02.05-.03.07-.03.06-.06.12-.08.18-.06.12-.11.24-.17.36-.22.48-.45.95-.68,1.42-.87,1.79-1.8,3.54-2.81,5.25-1.8,3.08-3.8,5.97-6.02,8.76-1.93,2.41-3.97,4.67-6.14,6.86-1.92,1.95-3.9,3.81-5.98,5.59-1.92,1.64-3.9,3.18-5.95,4.65-2.41,1.72-4.86,3.28-7.42,4.76-2.58,1.5-5.22,2.9-7.89,4.24-2.69,1.34-5.4,2.62-8.14,3.86-1.35.61-2.7,1.21-4.06,1.8-.67.29-1.34.58-2.01.88-.66.29-1.33.57-1.99.86-5.22,2.25-10.11,4.35-15.15,7.01-1.29.68-2.57,1.39-3.84,2.13-.65.38-1.3.77-1.94,1.16-.66.41-1.3.83-1.94,1.26-2.77,1.91-5.15,4.06-7.11,6.84-.22.32-.44.64-.65.96-.11.17-.21.33-.31.5-.05.08-.1.17-.15.26-.03.04-.05.09-.08.13-.02.03-.05.09-.07.12-.1.16-.28.26-.47.26-.18,0-.36-.08-.48-.22-.06-.08-.1-.16-.12-.26-.02-.1,0-.17.01-.27.03-.18.06-.36.1-.55.27-1.46.58-2.9.95-4.33.74-2.86,1.7-5.67,2.96-8.35.63-1.34,1.33-2.64,2.1-3.9.39-.63.79-1.25,1.22-1.85s.87-1.19,1.33-1.77c.46-.58.94-1.14,1.44-1.69.5-.55,1.01-1.08,1.54-1.6,1.06-1.04,2.17-2.01,3.32-2.93,1.16-.93,2.36-1.8,3.58-2.64.61-.42,1.23-.83,1.85-1.24.62-.41,1.24-.81,1.86-1.22,2.5-1.61,5.03-3.15,7.6-4.64,1.28-.74,2.58-1.48,3.87-2.2,1.3-.72,2.6-1.43,3.9-2.14,1.3-.71,2.61-1.41,3.92-2.11s2.61-1.41,3.91-2.13c1.3-.72,2.58-1.45,3.86-2.2,1.28-.75,2.54-1.52,3.79-2.32,1.25-.8,2.48-1.62,3.7-2.46,1.22-.85,2.41-1.72,3.59-2.62,1.18-.9,2.33-1.83,3.46-2.79,1.13-.96,2.24-1.94,3.33-2.94.54-.5,1.08-1.01,1.62-1.52s1.06-1.03,1.59-1.56c1.05-1.05,2.07-2.12,3.05-3.23.98-1.11,1.93-2.25,2.83-3.43.9-1.18,1.76-2.38,2.58-3.62,1.64-2.48,3.09-5.05,4.42-7.72.66-1.33,1.29-2.67,1.88-4.03.6-1.36,1.16-2.73,1.7-4.11.54-1.38,1.05-2.77,1.55-4.17.25-.7.49-1.4.72-2.1.06-.18.12-.35.18-.53.01-.04.03-.09.04-.13.01-.04.03-.08.06-.12.05-.08.12-.15.2-.19.16-.09.36-.1.53-.02.17.08.3.24.33.42Z"/>
    <path class="cls-6" d="M1843.55,97.33c2.44,4.69,4.49,9.58,6.12,14.62.41,1.26.79,2.52,1.14,3.79.09.32.18.64.26.95.04.16.08.32.13.48.01.04.02.08.03.12.01.04.02.08.03.12.01.08,0,.16-.01.24,0,.03-.02.07-.03.1l-.03.11c-.02.07-.04.15-.07.22-.04.15-.09.29-.13.44-.09.29-.17.58-.26.87-.17.57-.35,1.13-.53,1.7-.67,2.11-1.37,4.2-2.14,6.27-.68,1.85-1.4,3.68-2.18,5.48-.89,2.07-1.84,4.11-2.89,6.11-.91,1.74-1.87,3.43-2.92,5.09-.92,1.45-1.89,2.87-2.93,4.24-.93,1.23-1.9,2.41-2.92,3.57-.93,1.05-1.89,2.08-2.88,3.07-.91.92-1.89,1.86-2.83,2.75-1.79,1.67-3.63,3.27-5.53,4.8-2.42,1.95-4.89,3.73-7.49,5.44-1.25.82-2.52,1.61-3.8,2.39-.64.39-1.28.77-1.93,1.14-.65.38-1.3.75-1.96,1.12-1.33.75-2.67,1.49-4.02,2.22-1.39.76-2.79,1.51-4.18,2.26-1.47.79-2.93,1.59-4.39,2.4-1.55.86-3.09,1.73-4.62,2.62-2.24,1.31-4.46,2.65-6.64,4.04-.58.37-1.17.75-1.75,1.13-.3.19-.59.39-.89.58-.3.2-.6.4-.9.6-1.24.83-2.45,1.69-3.64,2.59-2.62,2-4.98,4.17-7.09,6.71-1.18,1.42-2.24,2.9-3.2,4.48-1.07,1.75-1.99,3.57-2.79,5.46-.21.5-.41,1-.61,1.51-.1.26-.2.52-.29.78-.05.13-.1.26-.14.4-.02.07-.05.13-.07.2-.01.03-.02.07-.04.1,0,.03-.02.05-.03.08-.08.18-.25.31-.44.35-.19.03-.38-.03-.52-.17-.07-.07-.12-.16-.14-.26-.01-.05-.02-.09-.02-.14,0-.03,0-.11,0-.14.01-.19.02-.38.03-.58.09-1.54.2-3.07.34-4.6s.31-3.06.54-4.58c.22-1.52.5-3.03.86-4.53.36-1.5.81-2.97,1.37-4.4.28-.72.58-1.42.91-2.12.33-.7.68-1.38,1.06-2.05,1.5-2.69,3.35-5.18,5.36-7.5,1.04-1.19,2.12-2.34,3.24-3.45s2.27-2.19,3.45-3.24,2.38-2.08,3.59-3.09c1.22-1.01,2.44-2,3.68-2.98,2.48-1.96,5-3.86,7.56-5.71s5.15-3.66,7.76-5.43c.65-.44,1.31-.89,1.96-1.33.66-.44,1.31-.88,1.97-1.32,1.31-.88,2.61-1.77,3.9-2.69s2.56-1.85,3.8-2.83c1.24-.97,2.46-1.98,3.66-3.01s2.36-2.1,3.51-3.19c.57-.54,1.14-1.09,1.7-1.65.56-.55,1.12-1.11,1.67-1.68,1.1-1.13,2.17-2.29,3.2-3.49,1.03-1.2,2.01-2.43,2.95-3.71.94-1.27,1.82-2.58,2.65-3.93.83-1.34,1.61-2.72,2.34-4.12,1.45-2.81,2.7-5.71,3.76-8.69,1.06-2.97,1.94-6.02,2.67-9.09.36-1.54.69-3.08.98-4.63.15-.78.29-1.55.42-2.33.03-.19.06-.39.1-.58l.05-.29s0-.05.01-.07.01-.05.02-.07c.02-.05.04-.09.07-.13.12-.16.31-.25.51-.24.2.01.38.13.48.31Z"/>
    <path class="cls-8" d="M1761.98,385.62c-.03.29.17.56.45.63.29.06.58-.1.68-.37.5-1.39,1.05-2.76,1.67-4.11.55-1.2,1.14-2.37,1.78-3.52.58-1.04,1.19-2.06,1.82-3.07.58-.92,1.19-1.83,1.82-2.73,1.51-2.15,3.12-4.14,4.92-6.05,1.72-1.82,3.51-3.45,5.42-5.06.45-.38.9-.75,1.35-1.12.47-.38.93-.75,1.4-1.13.98-.77,1.96-1.53,2.95-2.29,2.1-1.61,4.22-3.19,6.33-4.79,4.02-3.05,8.07-6.21,11.85-9.57,3.83-3.41,7.31-6.96,10.55-10.94.75-.92,1.49-1.86,2.2-2.82.37-.49.73-.99,1.09-1.48.37-.51.73-1.02,1.08-1.54,1.51-2.2,2.88-4.43,4.08-6.81,1.09-2.15,2.01-4.35,2.77-6.63.85-2.56,1.46-5.14,1.87-7.8.36-2.36.56-4.72.62-7.1.06-2.7-.05-5.4-.31-8.08-.01-.13-.07-.25-.16-.35-3.06-3.23-6.33-6.24-9.81-9.01-.18-.14-.43-.17-.63-.06-.21.11-.33.32-.31.56.16,2.57.07,5.13-.24,7.68-.16,1.27-.37,2.54-.63,3.79-.26,1.26-.58,2.5-.94,3.73-.73,2.46-1.64,4.86-2.69,7.2-.53,1.17-1.09,2.32-1.68,3.46-.59,1.14-1.21,2.26-1.86,3.37s-1.32,2.2-2.01,3.28-1.4,2.15-2.13,3.2c-1.46,2.11-3,4.15-4.63,6.14-1.63,1.99-3.33,3.89-5.12,5.74-1.78,1.85-3.63,3.62-5.53,5.35-2.08,1.89-3.66,3.24-5.77,5.09-.96.85-1.92,1.7-2.86,2.57-.94.87-1.86,1.76-2.76,2.67-.9.91-1.77,1.85-2.61,2.82s-1.64,1.97-2.41,3c-.77,1.03-1.49,2.09-2.17,3.17s-1.32,2.2-1.91,3.34c-.59,1.14-1.14,2.3-1.64,3.48s-.96,2.37-1.39,3.59c-.42,1.21-.81,2.43-1.16,3.67-.35,1.23-.67,2.48-.96,3.73-.58,2.5-1.04,5.02-1.43,7.56-.39,2.54-.69,5.08-.95,7.63Z"/>
    <path class="cls-8" d="M1761.36,404.46c-.02.29.17.56.46.62s.57-.1.67-.37c.94-2.57,2.17-4.96,3.65-7.26,1.48-2.29,3.18-4.43,5-6.45,1.84-2.04,3.82-3.97,5.86-5.8,1.01-.91,2.03-1.8,3.07-2.67.51-.43,1.03-.86,1.54-1.28.51-.42,1.02-.84,1.54-1.25,2.19-1.76,4.42-3.48,6.67-5.16,2.11-1.57,4.24-3.1,6.4-4.61,1.16-.81,2.33-1.61,3.5-2.41.57-.39,1.13-.77,1.7-1.15.55-.37,1.11-.75,1.66-1.12,2.26-1.52,4.37-2.94,6.55-4.56.94-.69,1.86-1.4,2.77-2.13.99-.79,1.96-1.61,2.92-2.44,1.06-.93,2.11-1.87,3.13-2.84.56-.53,1.11-1.07,1.66-1.61.59-.58,1.17-1.16,1.74-1.75.83-.85,1.64-1.72,2.43-2.61.86-.97,1.69-1.96,2.49-2.98,1.83-2.34,3.46-4.77,4.92-7.36,1.24-2.2,2.33-4.46,3.31-6.78,1.13-2.7,2.08-5.45,2.89-8.26.71-2.46,1.31-4.94,1.82-7.44.57-2.83,1.03-5.67,1.39-8.54.02-.13-.01-.26-.08-.37-2.75-4.65-5.9-9.07-9.4-13.19-.16-.19-.43-.26-.66-.17-.23.09-.38.32-.37.57.12,2.85.06,5.71-.22,8.55-.14,1.42-.33,2.83-.58,4.24-.25,1.41-.56,2.8-.92,4.18-.37,1.38-.79,2.74-1.28,4.08-.49,1.34-1.03,2.66-1.63,3.96-.6,1.3-1.25,2.56-1.96,3.81-.7,1.24-1.45,2.46-2.24,3.65s-1.6,2.36-2.45,3.51-1.72,2.28-2.61,3.39c-1.8,2.22-3.69,4.35-5.69,6.39-2,2.04-4.08,3.99-6.23,5.87-2.15,1.88-4.36,3.68-6.61,5.44-2.24,1.76-4.52,3.48-6.8,5.2-1.14.86-2.28,1.72-3.41,2.58-1.14.86-2.27,1.73-3.38,2.62-1.12.89-2.23,1.78-3.31,2.71-1.09.93-2.15,1.88-3.17,2.88-1.02,1-2.01,2.03-2.94,3.1s-1.83,2.19-2.67,3.34c-.85,1.15-1.64,2.33-2.41,3.54s-1.49,2.43-2.16,3.69c-.67,1.26-1.29,2.54-1.85,3.86-.56,1.31-1.06,2.65-1.51,4-.97,2.95-1.69,5.98-2.23,9.03-.13.73-.25,1.46-.35,2.2-.09.57-.16,1.15-.23,1.73-.07.56-.13,1.11-.19,1.67-.07.72-.14,1.44-.2,2.16Z"/>
    <path class="cls-8" d="M1760.98,449.05c-.03.35.25.64.6.63,21.56-.59,42.29-8.47,58.79-22.37,16.5-13.9,27.8-32.98,32.05-54.13.06-.28-.1-.56-.36-.66-.27-.1-.57,0-.71.25-1.32,2.21-2.75,4.34-4.29,6.4-1.54,2.06-3.18,4.03-4.91,5.94-.86.95-1.75,1.88-2.64,2.8-.9.92-1.81,1.82-2.75,2.7-1.87,1.77-3.8,3.46-5.81,5.07s-4.08,3.11-6.22,4.54c-2.14,1.42-4.34,2.75-6.57,4.02-2.24,1.26-4.51,2.46-6.81,3.61-2.3,1.15-4.62,2.25-6.96,3.31-2.34,1.07-4.69,2.1-7.05,3.12-2.36,1.02-4.72,2.03-7.07,3.06-2.35,1.04-4.69,2.1-7,3.23-2.31,1.13-4.57,2.34-6.8,3.63-1.11.65-2.21,1.31-3.28,2.02-1.07.71-2.1,1.47-3.08,2.31-.49.42-.96.85-1.42,1.3-.46.45-.9.92-1.32,1.41-.42.49-.82.99-1.19,1.51-.38.52-.73,1.06-1.06,1.61-.33.55-.64,1.11-.93,1.69-.29.58-.55,1.16-.79,1.76-.24.6-.46,1.2-.66,1.81-.2.61-.38,1.23-.55,1.85-.33,1.24-.58,2.5-.78,3.77-.2,1.27-.34,2.55-.43,3.83Z"/>
    <path class="cls-8" d="M1852.62,336.6c-.05-.26-.27-.46-.54-.47s-.51.15-.59.4c-.89,2.71-1.86,5.39-2.92,8.04-.53,1.32-1.09,2.63-1.68,3.93-.59,1.3-1.2,2.59-1.85,3.86-1.3,2.55-2.72,5-4.32,7.38-.8,1.18-1.63,2.34-2.5,3.47-.88,1.13-1.79,2.22-2.74,3.29-.95,1.07-1.93,2.1-2.94,3.11-.5.5-1.01,1-1.53,1.5s-1.03.98-1.55,1.47c-1.05.97-2.11,1.92-3.2,2.84-1.09.92-2.19,1.82-3.32,2.7-1.13.87-2.27,1.72-3.44,2.55-1.16.82-2.35,1.62-3.54,2.4s-2.41,1.53-3.63,2.26-2.46,1.44-3.7,2.14c-2.49,1.4-5,2.74-7.51,4.1-1.25.68-2.51,1.36-3.76,2.04s-2.5,1.38-3.73,2.08c-1.24.71-2.47,1.42-3.7,2.15s-2.44,1.47-3.65,2.23c-1.21.76-2.41,1.53-3.6,2.31-1.19.79-2.37,1.58-3.53,2.42-1.15.84-2.28,1.71-3.36,2.64-1.08.93-2.11,1.91-3.09,2.95-.49.52-.96,1.05-1.42,1.6-.46.55-.9,1.11-1.32,1.68-.85,1.15-1.62,2.34-2.33,3.58-.71,1.24-1.34,2.51-1.92,3.82-.57,1.31-1.08,2.64-1.52,4-.89,2.7-1.55,5.5-2.04,8.3-.05.28.11.55.38.65.27.1.56-.01.71-.26,1.3-2.26,2.89-4.22,4.81-5.98,1.72-1.58,3.6-2.9,5.58-4.13,1.04-.64,2.23-1.33,3.29-1.93,1.07-.6,2.16-1.18,3.25-1.75,2.12-1.09,4.26-2.12,6.43-3.11,2.2-1,4.42-1.97,6.64-2.92,1.12-.48,2.25-.97,3.37-1.45,1.14-.49,2.28-.99,3.42-1.49,4.44-1.97,8.92-4.05,13.23-6.3,1.09-.57,2.18-1.16,3.26-1.76,1.07-.59,2.13-1.2,3.17-1.83,2.09-1.25,4.12-2.56,6.11-3.97,1.92-1.36,3.78-2.8,5.59-4.31,1.94-1.63,3.8-3.34,5.6-5.12.4-.39.79-.79,1.18-1.19.4-.41.8-.82,1.19-1.23.82-.86,1.61-1.74,2.4-2.63,1.7-1.94,3.29-3.94,4.79-6.04,2.86-4.01,5.24-8.22,7.28-12.7.03-.06.04-.12.05-.18.89-9.05.48-18.19-1.22-27.13Z"/>
    <path class="cls-8" d="M1843.55,310.43c2.44,4.69,4.49,9.58,6.12,14.62.41,1.26.79,2.52,1.14,3.79.09.32.18.64.26.95.04.16.08.32.13.48.01.04.02.08.03.12.01.04.02.08.03.12.01.08,0,.16-.01.24,0,.03-.02.07-.03.1l-.03.11c-.02.07-.04.15-.07.22-.04.15-.09.29-.13.44-.09.29-.17.58-.26.87-.17.57-.35,1.13-.53,1.7-.67,2.11-1.37,4.2-2.14,6.27-.68,1.85-1.4,3.68-2.18,5.48-.89,2.07-1.84,4.11-2.89,6.11-.91,1.74-1.87,3.43-2.92,5.09-.92,1.45-1.89,2.87-2.93,4.24-.93,1.23-1.9,2.41-2.92,3.57-.93,1.05-1.89,2.08-2.88,3.07-.91.92-1.89,1.86-2.83,2.75-1.79,1.67-3.63,3.27-5.53,4.8-2.42,1.95-4.89,3.73-7.49,5.44-1.25.82-2.52,1.61-3.8,2.39-.64.39-1.28.77-1.93,1.14-.65.38-1.3.75-1.96,1.12-1.33.75-2.67,1.49-4.02,2.22-1.39.76-2.79,1.51-4.18,2.26-1.47.79-2.93,1.59-4.39,2.4-1.55.86-3.09,1.73-4.62,2.62-2.24,1.31-4.46,2.65-6.64,4.04-.58.37-1.17.75-1.75,1.13-.3.19-.59.39-.89.58-.3.2-.6.4-.9.6-1.24.83-2.45,1.69-3.64,2.59-2.62,2-4.98,4.17-7.09,6.71-1.18,1.42-2.24,2.9-3.2,4.48-1.07,1.75-1.99,3.57-2.79,5.46-.21.5-.41,1-.61,1.51-.1.26-.2.52-.29.78-.05.13-.1.26-.14.4-.02.07-.05.13-.07.2-.01.03-.02.07-.04.1,0,.03-.02.05-.03.08-.08.18-.25.31-.44.35-.19.03-.38-.03-.52-.17-.07-.07-.12-.16-.14-.26-.01-.05-.02-.09-.02-.14,0-.03,0-.11,0-.14.01-.19.02-.38.03-.58.09-1.54.2-3.07.34-4.6s.31-3.06.54-4.58c.22-1.52.5-3.03.86-4.53.36-1.5.81-2.97,1.37-4.4.28-.72.58-1.42.91-2.12.33-.7.68-1.38,1.06-2.05,1.5-2.69,3.35-5.18,5.36-7.5,1.04-1.19,2.12-2.34,3.24-3.45s2.27-2.19,3.45-3.24c1.18-1.05,2.38-2.08,3.59-3.09,1.22-1.01,2.44-2,3.68-2.98,2.48-1.96,5-3.86,7.56-5.71,2.56-1.85,5.15-3.66,7.76-5.44.65-.44,1.31-.89,1.96-1.33.66-.44,1.31-.88,1.97-1.32,1.31-.88,2.61-1.77,3.9-2.69,1.29-.91,2.56-1.85,3.8-2.83,1.24-.97,2.46-1.98,3.66-3.01s2.36-2.1,3.51-3.19c.57-.54,1.14-1.09,1.7-1.65.56-.55,1.12-1.11,1.67-1.68,1.1-1.13,2.17-2.29,3.2-3.49,1.03-1.2,2.01-2.43,2.95-3.71.94-1.27,1.82-2.58,2.65-3.93.83-1.34,1.61-2.72,2.34-4.12,1.45-2.81,2.7-5.71,3.76-8.69,1.06-2.97,1.94-6.02,2.67-9.09.36-1.54.69-3.08.98-4.63.15-.78.29-1.55.42-2.33.03-.19.06-.39.1-.58.02-.1.03-.19.05-.29,0-.02,0-.05.01-.07s.01-.05.02-.07c.02-.05.04-.09.07-.13.12-.16.31-.25.51-.24.2.01.38.13.48.31Z"/>
    <path class="cls-8" d="M1852.62,336.6c1.03,5.41,1.59,10.89,1.67,16.39.04,2.75-.04,5.49-.23,8.24-.05.68-.11,1.37-.17,2.05,0,.09-.02.17-.02.26v.13s-.02.09-.03.13c0,.02-.01.04-.02.07,0,.02-.02.05-.03.07-.03.06-.06.12-.08.18-.06.12-.11.24-.17.36-.22.48-.45.95-.68,1.42-.87,1.79-1.8,3.54-2.81,5.25-1.8,3.08-3.8,5.97-6.02,8.76-1.93,2.41-3.97,4.67-6.14,6.86-1.92,1.95-3.9,3.81-5.98,5.59-1.92,1.64-3.9,3.18-5.95,4.65-2.41,1.72-4.86,3.28-7.42,4.76-2.58,1.5-5.22,2.9-7.89,4.24-2.69,1.34-5.4,2.62-8.14,3.86-1.35.61-2.7,1.21-4.06,1.8-.67.29-1.34.58-2.01.88-.66.29-1.33.57-1.99.86-5.22,2.25-10.11,4.35-15.15,7.01-1.29.68-2.57,1.39-3.84,2.13-.65.38-1.3.77-1.94,1.16-.66.41-1.3.83-1.94,1.26-2.77,1.91-5.15,4.06-7.11,6.84-.22.32-.44.64-.65.96-.11.17-.21.33-.31.5-.05.08-.1.17-.15.26-.03.04-.05.09-.08.13-.02.03-.05.09-.07.12-.1.16-.28.26-.47.26-.18,0-.36-.08-.48-.22-.06-.08-.1-.16-.12-.26-.02-.1,0-.17.01-.27.03-.18.06-.36.1-.55.27-1.46.58-2.9.95-4.33.74-2.86,1.7-5.67,2.96-8.35.63-1.34,1.33-2.64,2.1-3.9.39-.63.79-1.25,1.22-1.85s.87-1.19,1.33-1.77c.46-.58.94-1.14,1.44-1.69s1.01-1.08,1.54-1.6c1.06-1.04,2.17-2.01,3.32-2.93,1.16-.93,2.36-1.8,3.58-2.64.61-.42,1.23-.83,1.85-1.24.62-.41,1.24-.81,1.86-1.22,2.5-1.61,5.03-3.15,7.6-4.64,1.28-.74,2.58-1.48,3.87-2.2,1.3-.72,2.6-1.43,3.9-2.14,1.3-.71,2.61-1.41,3.92-2.11s2.61-1.41,3.91-2.14c1.3-.72,2.58-1.45,3.86-2.2,1.28-.75,2.54-1.52,3.79-2.32,1.25-.8,2.48-1.62,3.7-2.46,1.22-.85,2.41-1.72,3.59-2.62,1.18-.9,2.33-1.83,3.46-2.79,1.13-.96,2.24-1.94,3.33-2.94.54-.5,1.08-1.01,1.62-1.52s1.06-1.03,1.59-1.56c1.05-1.05,2.07-2.12,3.05-3.23.98-1.11,1.93-2.25,2.83-3.43.9-1.18,1.76-2.38,2.58-3.62,1.64-2.48,3.09-5.05,4.42-7.72.66-1.33,1.29-2.67,1.88-4.03.6-1.36,1.16-2.73,1.7-4.11s1.05-2.77,1.55-4.17c.25-.7.49-1.4.72-2.1.06-.18.12-.35.18-.53.01-.04.03-.09.04-.13.01-.04.03-.08.06-.12.05-.08.12-.15.2-.19.16-.09.36-.1.53-.02.17.08.3.24.33.42Z"/>
    <path class="cls-8" d="M1760.98,449.05c.1-1.32.24-2.63.45-3.94.21-1.31.48-2.6.82-3.88.35-1.28.77-2.53,1.29-3.75.26-.61.54-1.21.84-1.8.31-.59.63-1.16.99-1.72.35-.56.73-1.1,1.13-1.63s.82-1.04,1.27-1.53c.89-.99,1.86-1.88,2.89-2.72,1.03-.83,2.11-1.59,3.23-2.31.56-.36,1.12-.7,1.69-1.04.57-.34,1.14-.67,1.72-1,1.15-.65,2.31-1.29,3.49-1.9,1.17-.61,2.36-1.2,3.55-1.78,2.39-1.15,4.8-2.23,7.23-3.28,1.21-.53,2.43-1.05,3.65-1.57s2.43-1.05,3.64-1.58c2.43-1.06,4.84-2.14,7.24-3.26,2.4-1.12,4.78-2.27,7.14-3.48,2.36-1.21,4.68-2.48,6.96-3.83,2.28-1.35,4.51-2.77,6.67-4.31,1.08-.76,2.14-1.55,3.19-2.37,1.05-.81,2.07-1.65,3.08-2.51,2.02-1.73,3.96-3.54,5.83-5.42.94-.94,1.85-1.9,2.75-2.88s1.78-1.97,2.63-2.99c1.71-2.04,3.31-4.15,4.8-6.35.74-1.1,1.46-2.22,2.14-3.36.02-.04.04-.07.06-.11.02-.03.04-.07.07-.09.06-.06.13-.11.21-.14.16-.06.33-.06.48.02.15.08.27.22.31.38.02.08.02.16,0,.24,0,.04-.01.08-.02.12s-.02.08-.02.12c-.13.62-.26,1.23-.39,1.85-4.68,20.86-16.23,39.55-32.81,53.06-8.23,6.71-17.53,11.99-27.5,15.63-5.08,1.85-10.3,3.27-15.62,4.24-2.58.47-5.16.83-7.76,1.09-1.28.13-2.55.22-3.84.3-.63.04-1.27.07-1.9.09-.32.01-.63.02-.95.03-.04,0-.08,0-.12,0-.04,0-.08-.02-.12-.03-.08-.03-.15-.07-.21-.13-.12-.12-.18-.29-.17-.46Z"/>
    <path class="cls-8" d="M1761.36,404.46c.06-.72.12-1.44.2-2.16.06-.56.12-1.12.19-1.67.07-.58.15-1.16.24-1.74.11-.74.23-1.48.36-2.21.54-3.07,1.26-6.11,2.25-9.07.49-1.48,1.05-2.93,1.68-4.36s1.32-2.82,2.08-4.18c.38-.68.77-1.35,1.18-2.02.41-.66.82-1.32,1.25-1.97.86-1.3,1.76-2.57,2.72-3.8.92-1.18,1.9-2.31,2.92-3.4,1.03-1.09,2.1-2.13,3.2-3.14,1.11-1.01,2.25-1.97,3.41-2.92s2.34-1.87,3.52-2.78c1.18-.91,2.38-1.82,3.57-2.72s2.39-1.8,3.58-2.7c2.38-1.81,4.75-3.63,7.08-5.52,2.32-1.89,4.6-3.83,6.79-5.86,1.1-1.02,2.17-2.06,3.22-3.13s2.07-2.16,3.07-3.27c2-2.23,3.87-4.55,5.64-6.98.88-1.21,1.74-2.44,2.55-3.69.81-1.26,1.59-2.53,2.31-3.85.72-1.3,1.38-2.63,1.98-3.99.6-1.36,1.14-2.74,1.62-4.15s.89-2.83,1.24-4.28c.35-1.45.63-2.9.85-4.37.22-1.47.38-2.95.48-4.43s.15-2.97.14-4.45c0-.74-.02-1.49-.04-2.23,0-.09,0-.19-.01-.28,0-.05,0-.08,0-.13,0-.05.02-.09.04-.13.07-.18.22-.31.41-.35.19-.05.38,0,.53.13.03.03.06.07.09.1.03.04.06.07.09.11.06.07.13.15.19.22,1,1.19,1.97,2.41,2.92,3.65,1.17,1.54,2.3,3.12,3.37,4.73.54.8,1.06,1.62,1.58,2.44.26.41.51.82.76,1.24.12.21.25.41.37.62.01.02.08.13.09.16.03.05.05.1.06.16.01.06.01.11,0,.17,0,.03,0,.06-.01.09,0,.04,0,.08-.01.11,0,.08-.02.15-.03.22-.29,2.28-.65,4.55-1.08,6.82-.39,2.05-.84,4.09-1.35,6.12-.9,3.52-2.01,6.98-3.38,10.35-1.51,3.7-3.31,7.21-5.5,10.56-.92,1.41-1.9,2.78-2.94,4.1-.94,1.2-1.92,2.36-2.94,3.48-.92,1.02-1.88,2.01-2.85,2.99-.88.88-1.77,1.75-2.67,2.6-1.58,1.49-3.19,2.92-4.86,4.3-1.16.96-2.35,1.89-3.56,2.79-1.12.84-2.26,1.65-3.41,2.44-1.12.78-2.26,1.54-3.39,2.3-.58.39-1.15.77-1.73,1.16-.59.4-1.18.8-1.76,1.2-2.49,1.7-4.96,3.42-7.4,5.19-2.65,1.92-5.26,3.89-7.83,5.93-.56.44-1.12.89-1.67,1.34-.56.46-1.13.92-1.68,1.38-1.14.94-2.26,1.9-3.37,2.88-2.24,1.99-4.43,4.08-6.44,6.3-2.01,2.22-3.87,4.59-5.45,7.13-.79,1.27-1.5,2.57-2.14,3.92-.32.68-.61,1.37-.89,2.06-.07.18-.14.35-.2.53-.02.04-.03.09-.05.13-.02.05-.03.08-.06.13-.06.09-.14.16-.23.21-.19.1-.41.08-.59-.03-.18-.12-.28-.32-.26-.54Z"/>
    <path class="cls-8" d="M1761.98,385.62c.27-2.71.6-5.42,1.02-8.11.42-2.68.94-5.38,1.58-8.02.64-2.65,1.42-5.27,2.38-7.82.48-1.28,1.01-2.53,1.58-3.77.58-1.24,1.2-2.44,1.88-3.63s1.4-2.33,2.18-3.46,1.6-2.21,2.46-3.26c.87-1.05,1.77-2.07,2.71-3.06.94-.99,1.91-1.95,2.9-2.88.99-.94,2-1.85,3.02-2.75,1.02-.9,2.05-1.8,3.08-2.69,1.03-.9,2.05-1.8,3.06-2.71,1.01-.92,2.01-1.85,2.99-2.79,1.96-1.9,3.85-3.85,5.66-5.9,1.81-2.05,3.51-4.17,5.13-6.36,1.6-2.17,3.16-4.48,4.58-6.77,1.44-2.32,2.77-4.69,3.96-7.15,1.18-2.43,2.21-4.92,3.05-7.49.84-2.57,1.48-5.19,1.87-7.87.2-1.34.33-2.68.4-4.03.07-1.35.08-2.7.01-4.05,0-.17-.02-.34-.03-.51,0-.04,0-.08,0-.13,0-.04,0-.08,0-.12,0-.09.03-.17.08-.24.09-.15.23-.25.4-.28.09-.02.17-.01.26,0,.08.02.15.06.22.11.56.44,1.11.89,1.65,1.35,1.09.91,2.16,1.85,3.21,2.81,1.57,1.44,3.1,2.93,4.57,4.47.09.1.18.19.28.29.02.02.05.05.07.07.02.02.04.05.06.07.04.05.07.11.09.17.01.03.02.06.02.09,0,.02,0,.03,0,.05,0,.03,0,.06,0,.09.01.11.02.23.03.34.02.23.04.45.06.68.07.88.13,1.76.17,2.65.07,1.66.08,3.32.03,4.98-.1,2.96-.43,5.9-1.02,8.8-.52,2.55-1.23,5.03-2.16,7.46-1.12,2.93-2.51,5.68-4.14,8.36-.75,1.23-1.54,2.43-2.36,3.61-.4.57-.8,1.13-1.21,1.69-.4.55-.81,1.09-1.22,1.63-3.07,3.99-6.38,7.59-10.06,11.03-2.16,2.02-4.4,3.95-6.7,5.82-1.11.9-2.23,1.79-3.35,2.67-1.1.86-2.21,1.71-3.32,2.55-2.12,1.61-4.26,3.21-6.38,4.82-1,.76-1.99,1.53-2.98,2.3-.94.74-1.87,1.49-2.79,2.25-3.76,3.12-6.81,6.12-9.75,10.05-.79,1.05-1.53,2.12-2.25,3.22-.38.59-.76,1.18-1.13,1.78-.39.63-.76,1.27-1.13,1.92-.8,1.43-1.53,2.88-2.2,4.38-.37.83-.71,1.67-1.04,2.52-.08.22-.17.45-.25.67-.04.11-.08.23-.12.34-.04.11-.11.2-.2.27-.18.14-.43.16-.63.05-.21-.11-.33-.34-.3-.57Z"/>
    <path class="cls-8" d="M1801.73,269.21c4.46,2.24,8.74,4.82,12.8,7.73.13.09.25.18.38.27.03.02.06.05.09.07.03.02.06.05.09.07.05.06.09.12.12.19.03.08.04.14.05.23.01.08.02.17.03.25.02.17.04.33.06.5.07.66.13,1.31.17,1.97.08,1.29.1,2.57.05,3.86-.09,2.49-.41,4.95-.94,7.38-1.14,5.26-3.21,10.23-5.78,14.92-1.18,2.16-2.46,4.25-3.82,6.31-1.24,1.88-2.53,3.71-3.89,5.5-1.59,2.09-3.27,4.1-5.04,6.05-1.67,1.84-3.41,3.6-5.2,5.31-.88.84-1.78,1.67-2.69,2.49-.91.82-1.83,1.63-2.75,2.44-1.88,1.65-3.78,3.28-5.61,4.99-1.6,1.49-3.15,3.03-4.61,4.66-1.56,1.74-3.01,3.55-4.33,5.47-1.46,2.12-2.73,4.33-3.85,6.65-1.3,2.7-2.35,5.46-3.22,8.33-.42,1.36-.79,2.73-1.13,4.12-.09.37-.18.73-.26,1.1-.04.19-.09.37-.13.56-.02.09-.04.19-.06.28-.01.05-.02.09-.03.14,0,.04-.02.08-.03.12-.1.3-.42.47-.73.37-.15-.05-.28-.15-.35-.29-.03-.07-.05-.14-.06-.22,0-.04,0-.18,0-.22,0-.61,0-1.21,0-1.82,0-.3,0-.61,0-.91,0-.01,0-.1,0-.11,0-.04,0-.08,0-.11,0-.08,0-.15.01-.23,0-.15.01-.3.02-.45.06-1.21.13-2.42.22-3.63.17-2.42.39-4.83.68-7.24.29-2.41.65-4.8,1.09-7.19.23-1.24.49-2.46.77-3.69s.6-2.44.95-3.65c.35-1.21.73-2.4,1.15-3.59.42-1.19.88-2.35,1.38-3.51.5-1.15,1.05-2.28,1.64-3.39.59-1.11,1.22-2.2,1.89-3.26.67-1.06,1.37-2.1,2.1-3.13.72-1.03,1.46-2.05,2.2-3.06s1.5-2.02,2.26-3.02c.76-1,1.53-1.99,2.3-2.99.77-.99,1.53-1.99,2.3-2.99.76-1,1.51-2.01,2.25-3.02.74-1.01,1.47-2.04,2.19-3.07.72-1.03,1.42-2.07,2.11-3.13,1.38-2.1,2.7-4.24,3.93-6.43,1.23-2.2,2.37-4.43,3.38-6.73.51-1.15.98-2.31,1.43-3.49.44-1.18.85-2.37,1.22-3.57.37-1.2.7-2.41.99-3.64.29-1.22.53-2.46.73-3.7s.35-2.49.46-3.74c.05-.63.09-1.25.12-1.88,0-.16.01-.31.02-.47,0-.08,0-.16,0-.24,0-.08.02-.15.05-.23.14-.3.5-.43.8-.28Z"/>
    <path class="cls-8" d="M1761.1,343.66c.03-17.55.05-35.1.08-52.66.01-8.78.03-17.55.04-26.33,0-1.12,0-2.25,0-3.37,0-.28,0-.56,0-.84,0-.14,0-.28,0-.42,0-.07,0-.14,0-.21v-.1s0-.07,0-.1c.05-.29.3-.5.59-.49.27,0,.54.02.81.03,2.17.08,4.34.24,6.51.47,4.35.47,8.66,1.23,12.9,2.29,4.15,1.03,8.22,2.35,12.19,3.93.99.39,1.97.8,2.94,1.23.24.11.49.21.73.32.12.05.24.11.36.16.06.03.12.05.18.08.02,0,.16.07.18.08.12.06.22.17.27.3.03.06.04.13.04.2,0,.04,0,.18,0,.22,0,.3,0,.6-.01.9-.06,2.33-.29,4.63-.69,6.94-.79,4.59-2.22,9.01-4.09,13.26-1.68,3.81-3.67,7.41-5.88,10.93-.68,1.09-1.39,2.16-2.1,3.23-.66.98-1.33,1.95-2.01,2.92-1.24,1.76-2.51,3.47-3.81,5.19-1.23,1.62-2.48,3.22-3.72,4.84-1.3,1.7-2.57,3.38-3.83,5.11-.48.67-.96,1.34-1.43,2.01-.5.72-.99,1.44-1.47,2.17-1.08,1.65-2.07,3.31-2.97,5.06-1.09,2.11-2.01,4.28-2.8,6.52-.47,1.32-.89,2.64-1.27,3.99-.21.73-.4,1.47-.59,2.21-.02.08-.03.15-.07.23-.04.07-.08.12-.14.17-.12.1-.26.15-.42.14-.31-.02-.55-.28-.55-.58Z"/>
    <path class="cls-8" d="M1843.55,310.43c-.12-.22-.36-.35-.61-.31s-.44.24-.48.49c-.48,2.99-1.07,5.95-1.8,8.89-.73,2.94-1.6,5.83-2.64,8.68-.52,1.42-1.08,2.82-1.69,4.21-.61,1.39-1.26,2.75-1.96,4.09s-1.45,2.65-2.25,3.94-1.64,2.54-2.54,3.76-1.83,2.41-2.81,3.56c-.98,1.15-2,2.27-3.05,3.36-.52.55-1.05,1.08-1.59,1.62-.54.53-1.08,1.06-1.62,1.59-1.09,1.05-2.2,2.08-3.33,3.08s-2.29,1.98-3.47,2.92-2.38,1.86-3.61,2.75-2.47,1.75-3.72,2.6c-1.25.85-2.51,1.69-3.76,2.54-2.51,1.69-5,3.41-7.47,5.16-2.46,1.76-4.9,3.55-7.3,5.4-1.2.92-2.39,1.86-3.56,2.81-1.18.95-2.35,1.91-3.5,2.89s-2.29,1.98-3.4,3c-1.11,1.03-2.2,2.08-3.25,3.17-2.1,2.17-4.07,4.49-5.78,6.99-.85,1.25-1.64,2.54-2.34,3.89-.35.67-.68,1.35-.98,2.05s-.58,1.4-.83,2.11c-.25.71-.48,1.43-.68,2.16s-.38,1.46-.55,2.2c-.32,1.48-.57,2.97-.77,4.47-.2,1.5-.36,3-.48,4.51-.13,1.51-.23,3.02-.31,4.53-.02.29.19.55.47.61.29.06.57-.11.67-.38.98-2.83,2.2-5.55,3.74-8.12,1.32-2.21,2.83-4.25,4.56-6.15,1.99-2.19,4.15-4.07,6.52-5.83,1.08-.8,2.18-1.57,3.3-2.32,1.05-.7,2.15-1.42,3.21-2.1,2.46-1.57,4.96-3.08,7.49-4.54,2.27-1.31,4.57-2.58,6.87-3.83,1.27-.69,2.55-1.38,3.82-2.06,1.23-.66,2.45-1.32,3.67-2,.6-.33,1.19-.66,1.79-.99.59-.33,1.18-.67,1.76-1,1.16-.67,2.32-1.36,3.46-2.06,2.29-1.41,4.53-2.9,6.7-4.48,2.31-1.68,4.53-3.46,6.68-5.35.94-.83,1.87-1.67,2.78-2.53.47-.45.94-.9,1.41-1.35.48-.47.95-.94,1.42-1.42.99-1.01,1.95-2.05,2.88-3.12,1.02-1.17,1.98-2.38,2.91-3.63,1.49-2.02,2.85-4.12,4.09-6.3,1.51-2.64,2.84-5.36,4.05-8.14,1.02-2.36,1.96-4.74,2.82-7.16,1-2.81,1.91-5.65,2.75-8.51.03-.1.03-.21,0-.31-1.8-6.94-4.38-13.66-7.69-20.03Z"/>
  </g>
  <text class="cls-7" transform="translate(117.41 306.19)"><tspan x="0" y="0">THE BE</tspan><tspan class="cls-2" x="479.03" y="0">E</tspan><tspan x="556.15" y="0">CH COLL</tspan><tspan class="cls-3" x="1107.51" y="0">E</tspan><tspan class="cls-11" x="1184.63" y="0">C</tspan><tspan x="1267.51" y="0">TIVE</tspan></text>
</svg>