<?xml version="1.0" encoding="UTF-8"?>
<svg id="Layer_06" data-name="Layer 06" xmlns="http://www.w3.org/2000/svg" viewBox="0 0 901.39 755.56">
  <defs>
    <style>
      .cls-1 {
        fill: #8a9a8e;
      }

      .cls-2 {
        fill: #5a6f60;
      }
    </style>
  </defs>
  <path class="cls-2" d="M628.69,458.6c-2.67-78.55-31.71-134.66-78.26-162.82-45.57,29.73-72.69,86.78-72.69,165.38s29.39,140.28,78.37,168.89c47.98-30.25,75.37-89.69,72.59-171.45Z"/>
  <path class="cls-1" d="M560.94,626.85c-.21-12.46-.42-24.92-.63-37.39-.31-18.21,19.76-35.52,60.2-51.95-10.69,39.45-31.27,69.74-59.57,89.34Z"/>
  <path class="cls-1" d="M551.14,627.02c-28.95-18.63-50.54-48.2-62.57-87.27,40.98,15.05,61.62,31.67,61.93,49.88.21,12.46.42,24.92.63,37.39Z"/>
  <path class="cls-1" d="M480.77,504.69c45.8,15.72,68.87,33.21,69.19,52.46.09,5.3.18,10.6.27,15.9-.64-1.02-1.33-2.01-2.06-2.97-.93-1.23-1.93-2.42-2.97-3.56-1.1-1.2-2.25-2.35-3.44-3.46-1.26-1.17-2.56-2.29-3.9-3.36-1.41-1.14-2.87-2.23-4.35-3.28-1.57-1.11-3.18-2.18-4.8-3.21-1.73-1.09-3.48-2.14-5.26-3.14-1.88-1.07-3.79-2.09-5.72-3.08-2.04-1.05-4.1-2.06-6.18-3.03-2.2-1.03-4.41-2.02-6.64-2.98-2.35-1.01-4.72-1.99-7.1-2.93-3.63-1.44-7.28-2.8-10.95-4.11-2.56-9.25-4.61-19-6.11-29.24Z"/>
  <path class="cls-1" d="M622.02,531.63c-3.63,1.43-7.23,2.92-10.81,4.48-2.35,1.02-4.68,2.08-6.99,3.17-2.19,1.03-4.37,2.1-6.53,3.2-2.04,1.04-4.07,2.12-6.07,3.24-1.89,1.05-3.76,2.14-5.61,3.28-1.74,1.07-3.46,2.17-5.15,3.32-1.59,1.08-3.16,2.2-4.69,3.37-1.45,1.1-2.86,2.24-4.24,3.43-1.3,1.12-2.56,2.28-3.78,3.49-1.15,1.15-2.26,2.33-3.32,3.57-1,1.18-1.96,2.4-2.85,3.66-.69.98-1.35,2-1.95,3.04-.09-5.3-.18-10.6-.27-15.9-.33-19.25,22.13-37.51,67.37-54.77-1.15,10.28-2.87,20.1-5.11,29.43Z"/>
  <path class="cls-1" d="M627.68,496.75c-5.73,2.15-11.42,4.42-17.03,6.87-2.35,1.02-4.68,2.08-6.99,3.17-2.19,1.03-4.37,2.1-6.53,3.2-2.04,1.04-4.07,2.12-6.07,3.24-1.89,1.05-3.76,2.14-5.61,3.28-1.74,1.07-3.46,2.17-5.15,3.32-1.59,1.08-3.16,2.2-4.69,3.37-1.45,1.1-2.86,2.24-4.24,3.43-1.3,1.12-2.56,2.28-3.78,3.49-1.15,1.15-2.26,2.33-3.32,3.57-1,1.18-1.96,2.4-2.85,3.66-.69.98-1.35,2-1.95,3.04-.09-5.3-.18-10.6-.27-15.9-.33-19.57,22.89-38.12,69.67-55.64.03,9.64-.37,18.94-1.19,27.91Z"/>
  <path class="cls-1" d="M477.89,471.41c47.35,15.92,71.19,33.67,71.52,53.25.09,5.3.18,10.6.27,15.9-.64-1.02-1.33-2.01-2.06-2.97-.93-1.23-1.93-2.42-2.97-3.56-1.1-1.2-2.25-2.35-3.44-3.46-1.26-1.17-2.56-2.29-3.9-3.36-1.41-1.14-2.87-2.23-4.35-3.28-1.57-1.11-3.18-2.18-4.8-3.21-1.73-1.09-3.48-2.14-5.26-3.14-1.88-1.07-3.79-2.09-5.72-3.08-2.04-1.05-4.1-2.06-6.18-3.03-2.2-1.03-4.41-2.02-6.64-2.98-2.35-1.01-4.72-1.99-7.1-2.93-5.69-2.26-11.45-4.33-17.25-6.29-1.12-8.93-1.84-18.22-2.14-27.85Z"/>
  <path class="cls-1" d="M478.46,439.3c46.6,15.83,70.07,33.45,70.39,52.87.09,5.3.18,10.6.27,15.9-.64-1.02-1.33-2.01-2.06-2.97-.93-1.23-1.93-2.42-2.97-3.56-1.1-1.2-2.25-2.35-3.44-3.46-1.26-1.17-2.56-2.29-3.89-3.36-1.41-1.14-2.87-2.23-4.35-3.28-1.57-1.11-3.18-2.18-4.8-3.21-1.73-1.09-3.48-2.14-5.26-3.14-1.88-1.07-3.79-2.09-5.72-3.08-2.04-1.05-4.1-2.06-6.18-3.03-2.2-1.03-4.41-2.02-6.64-2.98-2.35-1.01-4.72-1.99-7.1-2.93-6.25-2.48-12.58-4.74-18.96-6.86-.02-1.67-.04-3.34-.04-5.03,0-7.49.25-14.78.73-21.87Z"/>
  <path class="cls-1" d="M628.82,463.63c-6.3,2.34-12.55,4.81-18.72,7.5-2.35,1.02-4.68,2.08-6.99,3.17-2.19,1.03-4.37,2.1-6.53,3.2-2.04,1.04-4.07,2.12-6.07,3.24-1.89,1.05-3.76,2.14-5.61,3.28-1.74,1.07-3.46,2.17-5.15,3.32-1.59,1.08-3.16,2.2-4.69,3.37-1.45,1.1-2.86,2.24-4.24,3.43-1.3,1.12-2.56,2.28-3.78,3.49-1.15,1.15-2.26,2.33-3.32,3.57-1,1.18-1.96,2.4-2.85,3.66-.69.98-1.35,2-1.95,3.04-.09-5.3-.18-10.6-.27-15.9-.33-19.42,22.52-37.83,68.56-55.23.73,7.07,1.22,14.35,1.47,21.83.06,1.69.1,3.36.13,5.03Z"/>
  <path class="cls-1" d="M626.65,431.75c-5.75,2.16-11.47,4.44-17.1,6.9-2.35,1.02-4.68,2.08-6.99,3.17-2.19,1.03-4.37,2.1-6.53,3.2-2.04,1.04-4.07,2.12-6.07,3.24-1.89,1.05-3.76,2.14-5.61,3.28-1.74,1.07-3.46,2.17-5.15,3.32-1.59,1.08-3.16,2.2-4.69,3.37-1.45,1.1-2.86,2.24-4.24,3.43-1.3,1.12-2.56,2.28-3.78,3.49-1.15,1.15-2.26,2.33-3.32,3.57-1,1.18-1.96,2.4-2.85,3.66-.69.98-1.35,2-1.95,3.04-.09-5.3-.18-10.6-.27-15.9-.32-18.8,21.09-36.65,64.22-53.55,1.81,8.24,3.26,16.84,4.33,25.79Z"/>
  <path class="cls-1" d="M482.31,408.33c43.68,15.43,65.68,32.55,66,51.34.09,5.3.18,10.6.27,15.9-.64-1.02-1.33-2.01-2.06-2.97-.93-1.23-1.93-2.42-2.97-3.56-1.1-1.2-2.25-2.35-3.44-3.46-1.26-1.17-2.56-2.29-3.89-3.36-1.41-1.14-2.87-2.23-4.35-3.28-1.57-1.11-3.18-2.18-4.8-3.21-1.73-1.09-3.48-2.14-5.26-3.14-1.88-1.07-3.79-2.09-5.72-3.08-2.04-1.05-4.1-2.06-6.18-3.03-2.2-1.03-4.41-2.02-6.64-2.98-2.35-1.01-4.72-1.99-7.1-2.93-5.72-2.27-11.5-4.35-17.33-6.32.77-8.98,1.93-17.62,3.46-25.92Z"/>
  <path class="cls-1" d="M545.58,299.1c.28,16.48.56,32.96.84,49.44-.64-1.02-1.33-2.01-2.06-2.97-.93-1.23-1.93-2.42-2.97-3.56-1.1-1.2-2.25-2.35-3.44-3.46-1.26-1.17-2.56-2.29-3.9-3.36-1.41-1.14-2.87-2.23-4.35-3.28-1.57-1.11-3.18-2.18-4.8-3.21-1.73-1.09-3.48-2.14-5.26-3.14-.41-.23-.82-.46-1.23-.69,8.02-9.95,17.11-18.56,27.17-25.76Z"/>
  <path class="cls-1" d="M583.4,323.76c-.4.24-.81.49-1.21.73-1.74,1.07-3.46,2.17-5.15,3.32-1.59,1.08-3.16,2.2-4.69,3.37-1.45,1.1-2.86,2.24-4.24,3.43-1.3,1.12-2.56,2.28-3.78,3.49-1.15,1.15-2.26,2.33-3.32,3.57-1,1.18-1.96,2.4-2.85,3.66-.69.99-1.35,2-1.96,3.04-.28-16.48-.56-32.96-.84-49.44,10.3,6.86,19.68,15.16,28.03,24.83Z"/>
  <path class="cls-1" d="M600.29,347.58c-1.97.93-3.92,1.9-5.86,2.89-2.04,1.04-4.07,2.12-6.07,3.24-1.89,1.05-3.76,2.14-5.61,3.28-1.74,1.07-3.46,2.17-5.15,3.32-1.59,1.08-3.16,2.2-4.69,3.37-1.45,1.1-2.86,2.24-4.24,3.43-1.3,1.12-2.56,2.28-3.78,3.49-1.15,1.15-2.26,2.33-3.32,3.57-1,1.18-1.96,2.4-2.85,3.66-.69.99-1.35,2-1.96,3.04-.09-5.3-.18-10.6-.27-15.9-.22-12.91,9.81-25.37,30.08-37.39,4.97,6.16,9.55,12.84,13.71,20.01Z"/>
  <path class="cls-1" d="M515.36,328.78c20.67,11.32,31.12,23.44,31.33,36.35.09,5.3.18,10.6.27,15.9-.64-1.02-1.33-2.01-2.06-2.97-.93-1.23-1.93-2.42-2.97-3.56-1.1-1.2-2.25-2.35-3.44-3.46-1.26-1.17-2.56-2.29-3.9-3.36-1.41-1.14-2.87-2.23-4.35-3.28-1.57-1.11-3.18-2.18-4.8-3.21-1.73-1.09-3.48-2.14-5.26-3.14-1.88-1.07-3.79-2.09-5.72-3.08-2.04-1.05-4.1-2.06-6.18-3.03-1.97-.92-3.96-1.82-5.96-2.69,3.91-7.31,8.26-14.14,13.02-20.46Z"/>
  <path class="cls-1" d="M547.24,397.2c.1,5.57.19,11.15.29,16.72-.64-1.02-1.33-2.01-2.06-2.97-.93-1.23-1.93-2.42-2.97-3.56-1.1-1.2-2.25-2.35-3.44-3.46-1.26-1.17-2.56-2.29-3.89-3.36-1.41-1.14-2.87-2.23-4.35-3.28-1.57-1.11-3.18-2.18-4.8-3.21-1.73-1.09-3.48-2.14-5.26-3.14-1.88-1.07-3.79-2.09-5.72-3.08-2.04-1.05-4.1-2.06-6.18-3.03-2.2-1.03-4.41-2.02-6.64-2.98-2.35-1.01-4.72-1.99-7.1-2.93-1.59-.63-3.18-1.24-4.77-1.85,2.81-8.28,6.06-16.11,9.73-23.47,30.9,13.35,46.62,27.88,47.15,43.59Z"/>
  <path class="cls-1" d="M613.21,374.99c-1.57.66-3.14,1.32-4.71,2.01-2.35,1.02-4.68,2.08-6.99,3.17-2.19,1.03-4.37,2.1-6.53,3.2-2.04,1.04-4.07,2.12-6.07,3.24-1.89,1.05-3.76,2.14-5.61,3.28-1.74,1.07-3.46,2.17-5.15,3.32-1.59,1.08-3.16,2.2-4.69,3.37-1.45,1.1-2.86,2.24-4.24,3.43-1.3,1.12-2.56,2.28-3.78,3.49-1.15,1.15-2.26,2.33-3.32,3.57-1,1.18-1.96,2.4-2.85,3.66-.69.98-1.35,2-1.95,3.04-.09-5.57-.18-11.15-.28-16.72,0-15.72,15.21-30.78,45.64-45.17,3.92,7.23,7.44,14.95,10.52,23.13Z"/>
  <path class="cls-1" d="M621.21,401.13c-4.1,1.6-8.17,3.27-12.21,5.03-2.35,1.02-4.68,2.08-6.99,3.17-2.19,1.03-4.37,2.1-6.53,3.2-2.04,1.04-4.07,2.12-6.07,3.24-1.89,1.05-3.76,2.14-5.61,3.28-1.74,1.07-3.46,2.17-5.15,3.32-1.59,1.08-3.16,2.2-4.69,3.37-1.45,1.1-2.86,2.24-4.24,3.43-1.3,1.12-2.56,2.28-3.78,3.49-1.15,1.15-2.26,2.33-3.32,3.57-1,1.18-1.96,2.4-2.85,3.66-.69.98-1.35,2-1.96,3.04-.07-4.19-.14-8.38-.21-12.57-.3-17.76,18.79-34.68,57.28-50.75,2.4,6.87,4.52,14.05,6.32,21.53Z"/>
  <path class="cls-1" d="M488.84,381.74c39.01,14.76,58.67,31.02,58.97,48.78.07,4.19.14,8.38.21,12.57-.64-1.02-1.33-2.01-2.06-2.97-.93-1.23-1.93-2.42-2.97-3.56-1.1-1.2-2.25-2.35-3.44-3.46-1.26-1.17-2.56-2.29-3.89-3.36-1.41-1.14-2.87-2.23-4.35-3.28-1.57-1.11-3.18-2.18-4.8-3.21-1.73-1.09-3.48-2.14-5.26-3.14-1.88-1.07-3.79-2.09-5.72-3.08-2.04-1.05-4.1-2.06-6.18-3.03-2.2-1.03-4.41-2.02-6.64-2.98-2.35-1.01-4.72-1.99-7.1-2.93-4.09-1.62-8.22-3.15-12.37-4.61,1.55-7.54,3.42-14.79,5.59-21.73Z"/>
  <path class="cls-1" d="M515.36,328.78c20.67,11.32,31.12,23.44,31.33,36.35.09,5.3.18,10.6.27,15.9-.64-1.02-1.33-2.01-2.06-2.97-.93-1.23-1.93-2.42-2.97-3.56-1.1-1.2-2.25-2.35-3.44-3.46-1.26-1.17-2.56-2.29-3.9-3.36-1.41-1.14-2.87-2.23-4.35-3.28-1.57-1.11-3.18-2.18-4.8-3.21-1.73-1.09-3.48-2.14-5.26-3.14-1.88-1.07-3.79-2.09-5.72-3.08-2.04-1.05-4.1-2.06-6.18-3.03-1.97-.92-3.96-1.82-5.96-2.69"/>
  <path class="cls-1" d="M478.46,439.3c46.6,15.83,70.07,33.45,70.39,52.87.09,5.3.18,10.6.27,15.9-.64-1.02-1.33-2.01-2.06-2.97-.93-1.23-1.93-2.42-2.97-3.56-1.1-1.2-2.25-2.35-3.44-3.46-1.26-1.17-2.56-2.29-3.89-3.36-1.41-1.14-2.87-2.23-4.35-3.28-1.57-1.11-3.18-2.18-4.8-3.21-1.73-1.09-3.48-2.14-5.26-3.14-1.88-1.07-3.79-2.09-5.72-3.08-2.04-1.05-4.1-2.06-6.18-3.03-2.2-1.03-4.41-2.02-6.64-2.98-2.35-1.01-4.72-1.99-7.1-2.93-6.25-2.48-12.58-4.74-18.96-6.86"/>
  <path class="cls-1" d="M486.87,533.92c3.67,1.31,7.33,2.67,10.95,4.11,2.38.94,4.75,1.92,7.1,2.93,2.23.96,4.44,1.95,6.64,2.98,2.08.97,4.14,1.98,6.18,3.03,1.93.99,3.83,2.02,5.72,3.08,1.78,1.01,3.53,2.05,5.26,3.14,1.63,1.03,3.23,2.09,4.8,3.21,1.48,1.05,2.93,2.14,4.35,3.28,1.34,1.08,2.64,2.2,3.9,3.36,1.19,1.11,2.34,2.26,3.44,3.46,1.04,1.14,2.04,2.33,2.97,3.56.73.96,1.41,1.95,2.06,2.97-.09-5.3-.18-10.6-.27-15.9-.33-19.25-23.39-36.74-69.19-52.46"/>
  <path class="cls-1" d="M480.03,499.26c5.8,1.96,11.56,4.03,17.25,6.29,2.38.94,4.75,1.92,7.1,2.93,2.23.96,4.44,1.95,6.64,2.98,2.08.97,4.14,1.98,6.18,3.03,1.93.99,3.83,2.02,5.72,3.08,1.78,1.01,3.53,2.05,5.26,3.14,1.63,1.03,3.23,2.09,4.8,3.21,1.48,1.05,2.93,2.14,4.35,3.28,1.34,1.08,2.64,2.2,3.9,3.36,1.19,1.11,2.34,2.26,3.44,3.46,1.04,1.14,2.04,2.33,2.97,3.56.73.96,1.41,1.95,2.06,2.97-.09-5.3-.18-10.6-.27-15.9-.33-19.57-24.17-37.32-71.52-53.25"/>
  <path class="cls-1" d="M478.85,434.25c5.82,1.96,11.61,4.05,17.33,6.32,2.38.94,4.75,1.92,7.1,2.93,2.23.96,4.44,1.95,6.64,2.98,2.08.97,4.14,1.98,6.18,3.03,1.93.99,3.83,2.02,5.72,3.08,1.78,1.01,3.53,2.05,5.26,3.14,1.63,1.03,3.23,2.09,4.8,3.21,1.48,1.05,2.93,2.14,4.35,3.28,1.34,1.08,2.64,2.2,3.89,3.36,1.19,1.11,2.34,2.26,3.44,3.46,1.04,1.14,2.04,2.33,2.97,3.56.73.96,1.41,1.95,2.06,2.97-.09-5.3-.18-10.6-.27-15.9-.32-18.8-22.32-35.91-66-51.34"/>
  <path class="cls-1" d="M557.05,397.03c.09,5.57.18,11.15.28,16.72.61-1.04,1.26-2.05,1.95-3.04.89-1.26,1.84-2.48,2.85-3.66,1.05-1.24,2.16-2.42,3.32-3.57,1.22-1.21,2.48-2.37,3.78-3.49,1.37-1.19,2.79-2.33,4.24-3.43,1.53-1.17,3.1-2.29,4.69-3.37,1.69-1.15,3.41-2.25,5.15-3.32,1.85-1.13,3.72-2.22,5.61-3.28,2-1.12,4.03-2.19,6.07-3.24,2.16-1.1,4.34-2.17,6.53-3.2,2.32-1.09,4.65-2.15,6.99-3.17,1.56-.68,3.13-1.35,4.71-2.01"/>
  <path class="cls-1" d="M586.58,327.57c-20.27,12.02-30.3,24.48-30.08,37.39.09,5.3.18,10.6.27,15.9.61-1.04,1.26-2.06,1.96-3.04.89-1.26,1.84-2.48,2.85-3.66,1.05-1.24,2.17-2.42,3.32-3.57,1.22-1.21,2.48-2.37,3.78-3.49,1.38-1.19,2.79-2.33,4.24-3.43,1.53-1.17,3.1-2.29,4.69-3.37,1.69-1.15,3.41-2.25,5.15-3.32,1.85-1.13,3.72-2.22,5.61-3.28,2-1.12,4.03-2.19,6.07-3.24,1.94-.99,3.9-1.95,5.86-2.89"/>
  <path class="cls-1" d="M614.89,379.6c-38.49,16.07-57.58,32.99-57.28,50.75.07,4.19.14,8.38.21,12.57.61-1.04,1.26-2.05,1.96-3.04.89-1.26,1.84-2.48,2.85-3.66,1.06-1.24,2.17-2.42,3.32-3.57,1.22-1.21,2.48-2.37,3.78-3.49,1.38-1.19,2.79-2.33,4.24-3.43,1.53-1.17,3.1-2.29,4.69-3.37,1.69-1.15,3.41-2.25,5.15-3.32,1.85-1.13,3.72-2.22,5.61-3.28,2-1.12,4.03-2.19,6.07-3.24,2.16-1.1,4.34-2.17,6.53-3.2,2.32-1.09,4.65-2.15,6.99-3.17,4.03-1.76,8.11-3.43,12.21-5.03"/>
  <path class="cls-1" d="M627.21,436.77c-46.04,17.4-68.89,35.81-68.56,55.23.09,5.3.18,10.6.27,15.9.61-1.04,1.26-2.05,1.95-3.04.89-1.26,1.84-2.48,2.85-3.66,1.05-1.24,2.16-2.42,3.32-3.57,1.22-1.21,2.48-2.37,3.78-3.49,1.38-1.19,2.79-2.33,4.24-3.43,1.53-1.17,3.1-2.29,4.69-3.37,1.69-1.15,3.41-2.25,5.15-3.32,1.85-1.13,3.72-2.22,5.61-3.28,2-1.12,4.03-2.19,6.07-3.24,2.16-1.1,4.34-2.17,6.53-3.2,2.32-1.09,4.65-2.15,6.99-3.17,6.16-2.69,12.42-5.16,18.72-7.5"/>
  <path class="cls-1" d="M622.02,531.63c-3.63,1.43-7.23,2.92-10.81,4.48-2.35,1.02-4.68,2.08-6.99,3.17-2.19,1.03-4.37,2.1-6.53,3.2-2.04,1.04-4.07,2.12-6.07,3.24-1.89,1.05-3.76,2.14-5.61,3.28-1.74,1.07-3.46,2.17-5.15,3.32-1.59,1.08-3.16,2.2-4.69,3.37-1.45,1.1-2.86,2.24-4.24,3.43-1.3,1.12-2.56,2.28-3.78,3.49-1.15,1.15-2.26,2.33-3.32,3.57-1,1.18-1.96,2.4-2.85,3.66-.69.98-1.35,2-1.95,3.04-.09-5.3-.18-10.6-.27-15.9-.33-19.25,22.13-37.51,67.37-54.77"/>
  <path class="cls-1" d="M627.68,496.75c-5.73,2.15-11.42,4.42-17.03,6.87-2.35,1.02-4.68,2.08-6.99,3.17-2.19,1.03-4.37,2.1-6.53,3.2-2.04,1.04-4.07,2.12-6.07,3.24-1.89,1.05-3.76,2.14-5.61,3.28-1.74,1.07-3.46,2.17-5.15,3.32-1.59,1.08-3.16,2.2-4.69,3.37-1.45,1.1-2.86,2.24-4.24,3.43-1.3,1.12-2.56,2.28-3.78,3.49-1.15,1.15-2.26,2.33-3.32,3.57-1,1.18-1.96,2.4-2.85,3.66-.69.98-1.35,2-1.95,3.04-.09-5.3-.18-10.6-.27-15.9-.33-19.57,22.89-38.12,69.67-55.64"/>
  <path class="cls-1" d="M626.65,431.75c-5.75,2.16-11.47,4.44-17.1,6.9-2.35,1.02-4.68,2.08-6.99,3.17-2.19,1.03-4.37,2.1-6.53,3.2-2.04,1.04-4.07,2.12-6.07,3.24-1.89,1.05-3.76,2.14-5.61,3.28-1.74,1.07-3.46,2.17-5.15,3.32-1.59,1.08-3.16,2.2-4.69,3.37-1.45,1.1-2.86,2.24-4.24,3.43-1.3,1.12-2.56,2.28-3.78,3.49-1.15,1.15-2.26,2.33-3.32,3.57-1,1.18-1.96,2.4-2.85,3.66-.69.98-1.35,2-1.95,3.04-.09-5.3-.18-10.6-.27-15.9-.32-18.8,21.09-36.65,64.22-53.55"/>
  <path class="cls-1" d="M551.14,627.02c-.21-12.46-.42-24.92-.63-37.39-.31-18.21-20.95-34.83-61.93-49.88"/>
  <path class="cls-1" d="M545.58,299.1c.28,16.48.56,32.96.84,49.44-.64-1.02-1.33-2.01-2.06-2.97-.93-1.23-1.93-2.42-2.97-3.56-1.1-1.2-2.25-2.35-3.44-3.46-1.26-1.17-2.56-2.29-3.9-3.36-1.41-1.14-2.87-2.23-4.35-3.28-1.57-1.11-3.18-2.18-4.8-3.21-1.73-1.09-3.48-2.14-5.26-3.14-.41-.23-.82-.46-1.23-.69"/>
  <path class="cls-1" d="M560.94,626.85c-.21-12.46-.42-24.92-.63-37.39-.31-18.21,19.76-35.52,60.2-51.95"/>
  <path class="cls-1" d="M555.38,298.93c.28,16.48.56,32.96.84,49.44.61-1.04,1.26-2.06,1.96-3.04.89-1.26,1.84-2.48,2.85-3.66,1.05-1.24,2.16-2.42,3.32-3.57,1.22-1.21,2.48-2.37,3.78-3.49,1.38-1.19,2.79-2.33,4.24-3.43,1.53-1.17,3.1-2.29,4.69-3.37,1.69-1.15,3.41-2.25,5.15-3.32.4-.25.8-.49,1.21-.73"/>
  <path class="cls-2" d="M251.38,698.42c-69.41-5.26-132.88-34.75-132.88-165.78v-222.68c0-16.5-10.99-27.49-27.49-27.49h-18.33v-41.24h18.33c16.49,0,27.49-11,27.49-27.49v-45.82h50.4v45.82c0,16.5,11,27.49,27.49,27.49h54.99v41.24h-54.99c-16.49,0-27.49,11-27.49,27.49v208.02c0,104.45,30.5,126.68,82.48,130.43v50.01Z"/>
  <path class="cls-2" d="M331.11,209.16c0,38.49,7.33,62.32,20.16,62.32,21.99,0,52.23-42.15,126.46-42.15,24.67,0,47.8,4.6,68.81,13.41,26.26-11.79,55.88-17.99,87.89-17.99,97.13,0,166.77,57.73,185.11,143.87h-50.4c-17.41-62.31-71.48-96.22-134.7-96.22-10.18,0-19.99.81-29.39,2.41,44.96,40.71,71.94,104.73,71.94,186.37s-26.99,145.65-71.94,186.37c9.4,1.6,19.21,2.41,29.39,2.41,65.97,0,125.54-35.74,143.87-100.8h50.4c-19.25,88.89-94.39,148.45-194.27,148.45-28.13,0-54.41-4.78-78.19-13.95-24.88,12.14-53.41,18.53-84.93,18.53-54.98,0-88.89-21.08-110.88-21.08-9.16,0-25.65,2.75-38.49,18.33h-40.57c-.22-16.8-.44-33.6-.67-50.4V53.38h50.4v155.78ZM628.69,458.6c-.25-7.48-.75-14.76-1.47-21.83-.17-1.69-.36-3.36-.56-5.03-1.07-8.94-2.52-17.54-4.33-25.79-.36-1.62-.73-3.23-1.11-4.83-1.8-7.48-3.92-14.66-6.32-21.53-.54-1.55-1.1-3.09-1.68-4.61-3.08-8.18-6.6-15.89-10.52-23.13-.78-1.45-1.59-2.88-2.4-4.28-4.16-7.17-8.74-13.85-13.71-20.01-1.04-1.29-2.1-2.56-3.18-3.81-8.35-9.67-17.73-17.97-28.03-24.83-1.63-1.09-3.28-2.13-4.95-3.15-1.64,1.07-3.25,2.17-4.84,3.31-10.06,7.21-19.15,15.82-27.17,25.76-1.03,1.28-2.05,2.59-3.05,3.91-4.76,6.33-9.11,13.15-13.02,20.46-.77,1.44-1.52,2.89-2.26,4.36-3.67,7.36-6.92,15.19-9.73,23.47-.52,1.54-1.03,3.09-1.52,4.66-2.17,6.94-4.04,14.19-5.59,21.73-.33,1.61-.65,3.23-.95,4.86-1.53,8.3-2.69,16.95-3.46,25.92-.14,1.67-.27,3.35-.39,5.04-.48,7.09-.73,14.38-.73,21.87,0,1.69.01,3.36.04,5.03.03,1.75.07,3.49.12,5.21.3,9.63,1.02,18.92,2.14,27.85.23,1.82.48,3.63.74,5.43,1.5,10.24,3.55,19.99,6.11,29.24.54,1.96,1.11,3.91,1.7,5.83,12.03,39.06,33.61,68.64,62.57,87.27,1.63,1.05,3.28,2.06,4.95,3.04,1.64-1.03,3.26-2.1,4.85-3.2,28.3-19.6,48.88-49.89,59.57-89.34.53-1.94,1.03-3.9,1.5-5.88,2.25-9.33,3.96-19.15,5.11-29.43.2-1.8.39-3.62.55-5.45.82-8.96,1.22-18.27,1.19-27.91,0-1.73-.02-3.46-.06-5.21-.03-1.67-.08-3.34-.13-5.03ZM425.5,461.17c0-82.21,27.37-146.56,72.9-187.23-6.64-1.02-13.53-1.54-20.67-1.54-86.13,0-146.62,74.23-146.62,186.94v31.16c0,121.88,67.82,168.61,140.2,168.61,12.47,0,24.17-1.35,35.06-3.97-50.29-40.12-80.88-107.06-80.88-193.96Z"/>
</svg>