<?xml version="1.0" encoding="UTF-8"?>
<svg xmlns="http://www.w3.org/2000/svg" xmlns:xlink="http://www.w3.org/1999/xlink" viewBox="0 0 1357.94 889.55">
  <defs>
    <style>
      .cls-1 {
        fill: url(#linear-gradient-2);
      }

      .cls-2, .cls-3 {
        fill: #5a6f60;
      }

      .cls-4 {
        fill: none;
      }

      .cls-5 {
        fill: url(#linear-gradient-3);
      }

      .cls-3, .cls-6, .cls-7 {
        opacity: .57;
      }

      .cls-6 {
        fill: #c7d1c8;
      }

      .cls-7 {
        fill: #8a9a8e;
      }

      .cls-8 {
        fill: url(#linear-gradient);
      }
    </style>
    <linearGradient id="linear-gradient" x1="917.95" y1="656.83" x2="1108.58" y2="656.83" gradientUnits="userSpaceOnUse">
      <stop offset="0" stop-color="#e9e5dc"/>
      <stop offset="1" stop-color="#fff"/>
    </linearGradient>
    <linearGradient id="linear-gradient-2" x1="917.95" y1="230.63" x2="1108.58" y2="230.63" gradientUnits="userSpaceOnUse">
      <stop offset="0" stop-color="#e9e5dc"/>
      <stop offset="1" stop-color="#fff"/>
    </linearGradient>
    <linearGradient id="linear-gradient-3" x1="1102.77" y1="445.18" x2="1293.4" y2="445.18" gradientUnits="userSpaceOnUse">
      <stop offset="0" stop-color="#fff"/>
      <stop offset="1" stop-color="#e9e5dc"/>
    </linearGradient>
  </defs>
  <g id="Layer_04" data-name="Layer 04">
    <path class="cls-8" d="M917.95,466.2c9.57,0,19.13.72,28.59,2.16,9.96,1.51,19.77,3.81,29.37,6.87,20.25,6.46,39.28,16.27,56.29,29.01,16.62,12.45,31.1,27.52,42.86,44.64,11.42,16.62,20.13,34.94,25.81,54.29,2.92,9.95,5.02,20.12,6.29,30.41.61,4.95,1.02,9.9,1.24,14.89.11,2.43.17,4.87.18,7.3.01,2.43-.02,4.85-.1,7.28-.33,10.06-1.45,20.07-3.36,29.96-2.01,10.38-4.87,20.58-8.57,30.49-14.41,38.61-40.94,71.5-75.62,93.76-17.75,11.4-37.26,19.76-57.76,24.76-9.63,2.35-19.42,3.95-29.29,4.77-4.74.4-9.49.62-14.25.66-.29,0-.59,0-.88,0-.15,0-.29,0-.44,0h-.36s0,0,0,0h0v-381.25Z"/>
    <path class="cls-1" d="M917.95,40c9.57,0,19.13.72,28.59,2.16,9.96,1.51,19.77,3.81,29.37,6.87,20.25,6.46,39.28,16.27,56.29,29.01,16.62,12.45,31.1,27.52,42.86,44.64,11.42,16.62,20.13,34.94,25.81,54.29,2.92,9.95,5.02,20.12,6.29,30.41.61,4.95,1.02,9.9,1.24,14.89.11,2.43.17,4.87.18,7.3.01,2.43-.02,4.85-.1,7.27-.33,10.06-1.45,20.07-3.36,29.96-2.01,10.39-4.87,20.58-8.57,30.49-14.41,38.61-40.94,71.5-75.62,93.76-17.75,11.4-37.26,19.76-57.76,24.76-9.63,2.35-19.42,3.95-29.29,4.77-4.74.4-9.49.62-14.25.66-.29,0-.59,0-.88,0-.15,0-.29,0-.44,0-.07,0-.15,0-.22,0h-.14s0,0,0,0h0V40Z"/>
    <path class="cls-4" d="M917.95,40v381.26c12.11,0,24.19-1.15,36.09-3.45,12.63-2.44,24.98-6.14,36.86-11.06,23.13-9.58,44.14-23.62,61.84-41.32,17.7-17.7,31.74-38.72,41.33-61.85,4.92-11.88,8.63-24.23,11.06-36.86,2.29-11.9,3.45-23.97,3.45-36.09s-1.15-24.19-3.45-36.09c-2.44-12.63-6.14-24.98-11.06-36.86-9.58-23.13-23.62-44.14-41.32-61.84-17.7-17.7-38.72-31.74-61.85-41.33-11.88-4.92-24.23-8.63-36.86-11.06-11.9-2.29-23.97-3.45-36.09-3.45Z"/>
    <path class="cls-4" d="M1293.4,254.55v381.26c-12.11,0-24.19-1.15-36.09-3.45-12.63-2.43-24.98-6.14-36.86-11.06-23.13-9.58-44.14-23.62-61.84-41.32-17.7-17.7-31.74-38.72-41.33-61.85-4.92-11.88-8.63-24.23-11.06-36.86-2.29-11.9-3.45-23.97-3.45-36.09s1.15-24.19,3.45-36.09c2.43-12.63,6.14-24.98,11.06-36.86,9.58-23.13,23.62-44.14,41.32-61.84,17.7-17.7,38.72-31.74,61.85-41.33,11.88-4.92,24.23-8.63,36.86-11.06,11.9-2.29,23.97-3.45,36.09-3.45Z"/>
    <path class="cls-5" d="M1293.4,254.55c-9.57,0-19.13.72-28.59,2.16-9.96,1.51-19.77,3.81-29.37,6.87-20.25,6.46-39.28,16.27-56.29,29.01-16.62,12.45-31.1,27.52-42.86,44.64-11.42,16.62-20.13,34.94-25.81,54.29-2.92,9.95-5.02,20.12-6.29,30.41-.61,4.95-1.02,9.9-1.24,14.89-.11,2.43-.17,4.87-.18,7.3-.01,2.43.02,4.85.1,7.27.33,10.06,1.45,20.07,3.36,29.96,2.01,10.39,4.87,20.58,8.57,30.49,14.41,38.61,40.94,71.5,75.62,93.76,17.75,11.4,37.26,19.76,57.76,24.76,9.63,2.35,19.42,3.95,29.29,4.77,4.74.4,9.49.62,14.25.66.29,0,.59,0,.88,0,.15,0,.29,0,.44,0h.36s0,0,0,0h0V254.55Z"/>
    <path class="cls-4" d="M917.95,466.2v381.26c12.11,0,24.19-1.15,36.09-3.45,12.63-2.44,24.98-6.14,36.86-11.06,23.13-9.58,44.14-23.62,61.84-41.32,17.7-17.7,31.74-38.72,41.33-61.85,4.92-11.88,8.63-24.23,11.06-36.86,2.29-11.9,3.45-23.97,3.45-36.09s-1.15-24.19-3.45-36.09c-2.44-12.63-6.14-24.98-11.06-36.86-9.58-23.13-23.62-44.14-41.32-61.84-17.7-17.7-38.72-31.74-61.85-41.33-11.88-4.92-24.23-8.63-36.86-11.06-11.9-2.29-23.97-3.45-36.09-3.45Z"/>
  </g>
  <g id="Layer_03" data-name="Layer 03">
    <path class="cls-3" d="M1002.77,60.23c8.92,4.48,17.48,9.65,25.59,15.46.25.18.51.36.76.55.06.05.13.09.19.14.06.04.12.09.17.14.11.11.19.23.25.38.07.16.08.28.1.45.02.17.04.33.07.5.04.33.08.66.12.99.15,1.31.27,2.62.35,3.94.16,2.57.19,5.14.1,7.72-.18,4.98-.83,9.9-1.89,14.76-2.29,10.51-6.43,20.45-11.55,29.83-2.36,4.32-4.92,8.51-7.63,12.62-2.47,3.76-5.06,7.42-7.79,11-3.19,4.18-6.54,8.2-10.07,12.09-3.34,3.67-6.81,7.2-10.4,10.63-1.77,1.69-3.56,3.34-5.37,4.98-1.82,1.64-3.66,3.26-5.51,4.88-3.77,3.29-7.55,6.56-11.21,9.97-3.2,2.98-6.3,6.06-9.23,9.32-3.12,3.47-6.01,7.1-8.66,10.95-2.92,4.25-5.47,8.66-7.71,13.3-2.6,5.39-4.7,10.93-6.45,16.65-.83,2.72-1.58,5.47-2.25,8.24-.18.73-.35,1.47-.52,2.2-.09.37-.17.75-.25,1.12-.04.19-.08.38-.13.57-.02.09-.04.19-.06.28-.02.08-.03.16-.06.24-.2.6-.85.94-1.46.75-.3-.09-.55-.31-.69-.59-.07-.14-.11-.28-.12-.43,0-.08,0-.36,0-.45,0-1.21,0-2.42,0-3.63,0-.61,0-1.21,0-1.82,0-.02,0-.21,0-.23,0-.08,0-.15.01-.23,0-.15.01-.3.02-.45.01-.3.03-.61.04-.91.12-2.42.26-4.84.43-7.26.34-4.84.78-9.66,1.36-14.47.58-4.82,1.29-9.6,2.19-14.37.46-2.47.98-4.93,1.55-7.38s1.2-4.88,1.9-7.3c.7-2.42,1.46-4.81,2.3-7.18.84-2.37,1.76-4.71,2.77-7.01,1.01-2.31,2.1-4.57,3.28-6.79,1.18-2.22,2.44-4.39,3.78-6.52,1.34-2.13,2.75-4.21,4.19-6.27,1.44-2.06,2.91-4.1,4.4-6.12s3-4.03,4.53-6.03c1.52-2,3.06-3.99,4.6-5.98,1.54-1.99,3.07-3.98,4.59-5.98,1.52-2,3.03-4.01,4.51-6.04,1.48-2.03,2.94-4.07,4.38-6.14,1.43-2.07,2.84-4.15,4.22-6.25,2.76-4.21,5.4-8.48,7.86-12.87,2.46-4.39,4.73-8.86,6.77-13.47,1.02-2.3,1.97-4.62,2.85-6.98.88-2.35,1.7-4.73,2.44-7.13.74-2.41,1.4-4.83,1.97-7.28.58-2.45,1.07-4.91,1.47-7.4s.71-4.97.92-7.48c.11-1.25.19-2.51.25-3.76.01-.31.03-.63.04-.94,0-.16.01-.31.02-.47,0-.16.04-.31.1-.45.27-.61,1-.86,1.59-.57Z"/>
    <path class="cls-6" d="M1002.77,486.43c-.36-.18-.78-.16-1.12.04-.34.2-.56.57-.57.97-.07,2.26-.22,4.51-.45,6.76-.23,2.25-.53,4.48-.91,6.71-.76,4.47-1.8,8.84-3.1,13.18-2.61,8.68-6.2,16.98-10.45,24.95-2.13,3.99-4.41,7.88-6.81,11.71-1.2,1.91-2.43,3.81-3.67,5.69-1.25,1.88-2.52,3.75-3.81,5.6-1.29,1.85-2.61,3.69-3.94,5.51s-2.68,3.63-4.05,5.43c-2.73,3.6-5.5,7.16-8.25,10.75-1.38,1.79-2.74,3.59-4.1,5.39-1.35,1.81-2.69,3.63-4.01,5.46-1.32,1.83-2.62,3.68-3.89,5.54s-2.5,3.76-3.66,5.7c-1.17,1.94-2.27,3.9-3.3,5.91-1.03,2.01-1.99,4.05-2.89,6.13-.89,2.08-1.71,4.18-2.47,6.3-.76,2.13-1.46,4.27-2.1,6.44-1.28,4.34-2.34,8.72-3.24,13.15-.9,4.43-1.62,8.88-2.22,13.36-.6,4.48-1.08,8.97-1.46,13.47-.38,4.5-.66,9.01-.86,13.52,0,1.94,0,3.87,0,5.81,0,.6.45,1.1,1.04,1.16.59.07,1.14-.33,1.27-.91,1.06-4.86,2.31-9.66,3.83-14.4,1.31-4.09,2.82-8.09,4.57-12.01,1.99-4.46,4.27-8.72,6.87-12.85,2.36-3.73,4.94-7.27,7.76-10.67,3.03-3.66,6.28-7.09,9.7-10.39,3.25-3.15,6.63-6.15,10.03-9.13,3.68-3.22,6.79-5.9,10.4-9.19,3.41-3.11,6.74-6.3,9.96-9.61,3.13-3.21,6.13-6.51,9.02-9.93,3.09-3.66,6.02-7.43,8.82-11.31,2.58-3.58,5.08-7.33,7.42-11.07,2.55-4.09,4.94-8.27,7.11-12.58,4.17-8.27,7.49-16.95,9.42-26.04,1.94-9.13,2.39-18.33,1.13-27.61-.04-.32-.21-.6-.47-.79-8.4-6.1-17.28-11.51-26.56-16.16Z"/>
    <path class="cls-7" d="M1124.93,357.23c-4.88,9.39-8.97,19.17-12.23,29.23-.81,2.51-1.57,5.04-2.28,7.59-.18.64-.35,1.27-.52,1.91-.08.32-.17.64-.25.96-.02.08-.04.16-.06.24-.02.08-.04.16-.06.24-.03.16-.02.33.02.49.02.07.04.13.06.2l.07.22c.04.15.09.3.13.44.09.29.17.59.26.88.17.58.35,1.16.52,1.74.35,1.14.7,2.27,1.05,3.4,1.33,4.21,2.75,8.39,4.27,12.54,1.36,3.69,2.8,7.35,4.35,10.97,1.78,4.15,3.69,8.22,5.77,12.22,1.81,3.47,3.74,6.86,5.83,10.18,1.84,2.91,3.78,5.73,5.85,8.48,1.85,2.46,3.8,4.83,5.83,7.14,1.86,2.11,3.79,4.15,5.77,6.15,1.82,1.84,3.77,3.73,5.66,5.5,3.57,3.34,7.25,6.54,11.06,9.61,4.84,3.89,9.78,7.46,14.98,10.87,2.5,1.64,5.03,3.23,7.59,4.77,1.28.77,2.57,1.53,3.86,2.28,1.3.76,2.61,1.5,3.92,2.24,2.66,1.5,5.35,2.97,8.04,4.43,2.79,1.51,5.58,3.01,8.37,4.52,2.93,1.58,5.86,3.18,8.77,4.79,3.1,1.72,6.18,3.46,9.25,5.25,4.48,2.61,8.91,5.3,13.28,8.09,1.17.75,2.33,1.5,3.49,2.26.59.39,1.19.78,1.78,1.17.6.4,1.2.8,1.79,1.2,2.47,1.66,4.9,3.37,7.27,5.18,5.25,4.01,9.96,8.33,14.19,13.43,2.35,2.84,4.47,5.81,6.4,8.95,2.14,3.51,3.98,7.14,5.59,10.92.42,1,.83,2,1.22,3.01.2.52.39,1.04.58,1.56.1.26.19.53.28.79.05.13.09.27.14.4.02.07.05.13.07.2.02.05.03.1.06.15.16.37.49.63.89.69.38.06.77-.07,1.03-.35.14-.14.24-.32.28-.52.02-.09.04-.18.04-.28,0-.06,0-.22-.01-.28-.02-.38-.04-.77-.07-1.15-.18-3.07-.39-6.14-.67-9.21-.28-3.07-.62-6.12-1.07-9.17-.45-3.05-1-6.07-1.73-9.07-.73-3-1.62-5.93-2.74-8.81-.56-1.44-1.17-2.85-1.83-4.24-.66-1.39-1.37-2.76-2.12-4.1-3.01-5.37-6.7-10.36-10.73-14.99-2.08-2.39-4.24-4.68-6.48-6.91-2.24-2.23-4.55-4.38-6.9-6.49-2.36-2.1-4.76-4.15-7.19-6.17-2.43-2.02-4.89-4-7.37-5.96-4.96-3.92-10-7.71-15.12-11.42-5.12-3.71-10.3-7.32-15.52-10.87-1.31-.89-2.61-1.77-3.92-2.65-1.31-.88-2.62-1.76-3.93-2.64-2.62-1.76-5.23-3.54-7.81-5.37-2.58-1.83-5.11-3.71-7.6-5.65-2.49-1.95-4.93-3.95-7.31-6.02s-4.72-4.2-7.01-6.37c-1.14-1.09-2.28-2.19-3.4-3.3-1.12-1.11-2.24-2.23-3.34-3.36-2.2-2.27-4.34-4.59-6.4-6.99-2.06-2.4-4.02-4.87-5.89-7.42-1.87-2.55-3.64-5.16-5.3-7.85-1.66-2.69-3.22-5.43-4.67-8.24-2.91-5.62-5.39-11.43-7.51-17.38-2.12-5.95-3.88-12.03-5.33-18.17-.73-3.07-1.38-6.16-1.97-9.27-.29-1.55-.57-3.11-.83-4.66-.07-.39-.13-.78-.19-1.17-.03-.2-.06-.39-.09-.58,0-.05-.02-.09-.03-.14-.01-.05-.03-.09-.04-.14-.04-.09-.09-.18-.14-.26-.24-.33-.62-.5-1.03-.48-.41.03-.77.27-.96.63Z"/>
    <path class="cls-7" d="M1106.79,409.57c-2.06,10.81-3.17,21.78-3.33,32.78-.08,5.5.07,10.98.47,16.47.1,1.37.21,2.73.34,4.1.02.17.03.34.05.51l.02.26c0,.09.01.18.03.26,0,.05.02.09.04.13.02.05.04.09.06.14.06.12.11.24.17.37.11.24.22.48.33.73.44.95.89,1.9,1.35,2.85,1.74,3.58,3.61,7.08,5.62,10.51,3.61,6.16,7.59,11.95,12.05,17.52,3.85,4.82,7.94,9.33,12.27,13.73,3.84,3.89,7.8,7.62,11.96,11.17,3.83,3.28,7.79,6.37,11.9,9.29,4.82,3.43,9.73,6.55,14.84,9.53,5.17,3.01,10.43,5.81,15.78,8.48,5.37,2.69,10.8,5.24,16.28,7.71,2.7,1.22,5.41,2.42,8.12,3.61,1.34.59,2.68,1.17,4.02,1.75,1.33.57,2.66,1.15,3.99,1.72,10.45,4.5,20.23,8.69,30.31,14.02,2.59,1.37,5.15,2.78,7.67,4.26,1.3.76,2.6,1.53,3.88,2.33,1.31.81,2.6,1.65,3.87,2.53,5.54,3.82,10.3,8.13,14.22,13.67.45.63.88,1.27,1.29,1.92.21.33.42.67.62,1,.1.17.21.34.31.51.05.09.1.17.15.26.04.07.1.18.15.25.21.32.56.52.95.53.37,0,.72-.16.95-.45.12-.15.2-.33.23-.52.04-.21.01-.33-.02-.54-.06-.36-.13-.73-.19-1.09-.53-2.91-1.16-5.79-1.9-8.66-1.48-5.72-3.4-11.33-5.92-16.69-1.26-2.68-2.65-5.28-4.21-7.8-.78-1.26-1.59-2.49-2.44-3.7s-1.74-2.39-2.66-3.54c-.92-1.15-1.88-2.28-2.88-3.37s-2.02-2.16-3.07-3.19c-2.12-2.07-4.33-4.01-6.65-5.86-2.32-1.85-4.72-3.6-7.17-5.28-1.22-.84-2.45-1.67-3.69-2.49-1.24-.82-2.48-1.63-3.73-2.43-4.99-3.21-10.06-6.29-15.2-9.27-2.57-1.49-5.15-2.95-7.74-4.39s-5.2-2.86-7.81-4.28c-2.61-1.41-5.22-2.82-7.84-4.23s-5.22-2.83-7.81-4.27c-2.59-1.44-5.17-2.9-7.72-4.41-2.55-1.5-5.08-3.05-7.59-4.64-2.5-1.59-4.97-3.23-7.4-4.93-2.43-1.7-4.82-3.44-7.18-5.25-2.35-1.81-4.66-3.66-6.92-5.58-2.27-1.91-4.49-3.87-6.66-5.89-1.09-1.01-2.17-2.02-3.24-3.05s-2.13-2.06-3.17-3.11c-2.09-2.1-4.13-4.25-6.1-6.47-1.97-2.22-3.86-4.5-5.66-6.86s-3.52-4.77-5.16-7.25c-3.28-4.97-6.19-10.11-8.84-15.43-1.32-2.66-2.58-5.34-3.77-8.06-1.19-2.72-2.32-5.46-3.41-8.22-1.08-2.76-2.11-5.54-3.09-8.34-.49-1.4-.97-2.8-1.44-4.21-.12-.35-.23-.7-.35-1.06-.03-.09-.06-.18-.09-.26-.03-.09-.07-.17-.12-.24-.1-.16-.24-.29-.41-.39-.33-.18-.72-.2-1.06-.05-.35.16-.6.47-.67.85Z"/>
    <path class="cls-7" d="M1290.06,634.47c-.2-2.64-.49-5.27-.91-7.89-.42-2.62-.95-5.2-1.65-7.76-.69-2.56-1.54-5.06-2.57-7.51-.52-1.22-1.08-2.42-1.69-3.59-.61-1.18-1.27-2.32-1.97-3.45s-1.46-2.21-2.26-3.26-1.65-2.07-2.54-3.05c-1.79-1.97-3.71-3.76-5.78-5.43-2.07-1.67-4.23-3.18-6.46-4.61-1.11-.72-2.24-1.41-3.38-2.08-1.14-.68-2.28-1.34-3.43-2-2.3-1.31-4.63-2.57-6.98-3.8s-4.72-2.4-7.1-3.55c-4.77-2.3-9.61-4.45-14.46-6.57-2.43-1.06-4.86-2.1-7.29-3.15s-4.86-2.1-7.29-3.15c-4.85-2.12-9.69-4.28-14.49-6.51-4.8-2.23-9.56-4.54-14.27-6.97-4.71-2.42-9.35-4.96-13.92-7.65-4.56-2.7-9.01-5.55-13.34-8.61-2.16-1.53-4.29-3.11-6.38-4.73-2.09-1.63-4.14-3.3-6.16-5.02-4.05-3.45-7.92-7.07-11.67-10.84-1.87-1.89-3.71-3.8-5.51-5.76s-3.55-3.95-5.26-5.98c-3.42-4.08-6.62-8.3-9.6-12.71-1.49-2.2-2.91-4.44-4.28-6.72-.04-.07-.09-.14-.13-.21-.04-.07-.09-.13-.14-.19-.12-.12-.26-.22-.41-.29-.31-.13-.66-.12-.96.03-.31.15-.53.43-.62.76-.04.16-.05.32-.02.49.01.08.03.15.05.23l.05.23c.25,1.23.51,2.46.79,3.69,9.35,41.73,32.46,79.1,65.62,106.11,16.47,13.41,35.06,23.98,55.01,31.27,10.15,3.71,20.6,6.54,31.23,8.48,5.15.94,10.32,1.66,15.53,2.17,2.55.25,5.11.45,7.67.6,1.27.07,2.54.13,3.8.18.63.02,1.26.04,1.89.06.08,0,.16,0,.25,0,.09-.01.17-.03.25-.06.16-.06.3-.15.43-.27.24-.24.37-.58.34-.92Z"/>
    <path class="cls-7" d="M1289.32,545.28c-.12-1.44-.24-2.89-.39-4.33-.12-1.12-.24-2.23-.38-3.35-.14-1.16-.3-2.32-.47-3.47-.22-1.48-.46-2.95-.72-4.42-1.08-6.13-2.53-12.22-4.49-18.13-.98-2.96-2.09-5.87-3.35-8.72s-2.64-5.64-4.16-8.37c-.76-1.36-1.55-2.7-2.36-4.03-.81-1.33-1.65-2.65-2.5-3.95-1.72-2.61-3.52-5.14-5.45-7.59-1.85-2.36-3.79-4.62-5.84-6.81-2.05-2.18-4.19-4.27-6.41-6.28-2.22-2.01-4.5-3.94-6.82-5.83-2.32-1.89-4.67-3.73-7.04-5.56s-4.75-3.63-7.14-5.43c-2.39-1.8-4.78-3.6-7.16-5.41-4.77-3.62-9.5-7.27-14.15-11.04-4.65-3.77-9.19-7.65-13.58-11.73-2.19-2.04-4.34-4.12-6.44-6.25s-4.15-4.31-6.14-6.54c-4-4.47-7.74-9.11-11.28-13.95-1.76-2.42-3.47-4.87-5.1-7.38-1.63-2.51-3.17-5.07-4.61-7.69-1.43-2.61-2.75-5.26-3.96-7.98-1.21-2.72-2.29-5.48-3.24-8.3s-1.78-5.67-2.47-8.56c-.69-2.89-1.26-5.81-1.7-8.75-.44-2.94-.76-5.89-.96-8.86s-.3-5.93-.29-8.91c0-1.49.04-2.97.09-4.46,0-.19.01-.37.02-.56,0-.1,0-.17,0-.27-.01-.09-.04-.18-.07-.27-.14-.35-.44-.61-.81-.7-.37-.09-.77,0-1.05.26-.07.06-.13.13-.19.2-.06.07-.13.15-.19.22-.13.15-.25.3-.38.45-2,2.38-3.95,4.81-5.83,7.29-2.35,3.09-4.59,6.24-6.75,9.46-1.08,1.61-2.13,3.24-3.15,4.88-.51.82-1.02,1.64-1.52,2.47-.25.41-.5.83-.75,1.24-.02.04-.16.27-.18.31-.06.1-.09.21-.12.33-.02.12-.03.23-.02.35,0,.06.01.12.02.17,0,.08.02.15.03.23.02.15.04.3.06.45.59,4.57,1.3,9.11,2.16,13.63.78,4.11,1.67,8.19,2.71,12.24,1.8,7.04,4.01,13.96,6.76,20.7,3.02,7.4,6.62,14.43,10.99,21.12,1.84,2.82,3.8,5.55,5.88,8.21,1.88,2.4,3.84,4.71,5.88,6.97,1.85,2.04,3.75,4.02,5.69,5.97,1.75,1.76,3.53,3.5,5.34,5.2,3.15,2.97,6.38,5.84,9.72,8.6,2.33,1.92,4.7,3.78,7.12,5.58,2.24,1.67,4.52,3.3,6.82,4.89,2.25,1.56,4.51,3.08,6.78,4.6,1.15.77,2.3,1.55,3.45,2.32,1.18.8,2.35,1.59,3.53,2.39,4.98,3.39,9.91,6.84,14.79,10.38,5.3,3.84,10.53,7.79,15.66,11.85,1.12.89,2.24,1.78,3.35,2.68,1.13.91,2.25,1.83,3.37,2.76,2.28,1.89,4.53,3.8,6.74,5.76,4.49,3.97,8.86,8.16,12.88,12.61,4.02,4.43,7.74,9.18,10.91,14.27,1.58,2.53,3.01,5.13,4.27,7.83.64,1.36,1.23,2.73,1.77,4.13.14.35.27.71.41,1.07.03.09.07.18.1.27.04.11.06.17.12.27.11.18.27.33.46.43.37.19.82.17,1.17-.06.36-.23.56-.65.53-1.07Z"/>
    <path class="cls-7" d="M1288.07,507.61c-.54-5.43-1.2-10.83-2.04-16.22-.84-5.37-1.87-10.76-3.16-16.04-1.29-5.29-2.84-10.53-4.77-15.63-.96-2.55-2.01-5.06-3.17-7.54-1.16-2.47-2.41-4.89-3.76-7.26-1.36-2.37-2.81-4.67-4.36-6.91-1.55-2.24-3.2-4.41-4.93-6.52-1.73-2.11-3.54-4.14-5.42-6.12-1.88-1.98-3.81-3.89-5.8-5.77-1.98-1.87-4-3.7-6.05-5.51-2.04-1.81-4.1-3.59-6.15-5.39-2.05-1.79-4.1-3.6-6.11-5.43-2.02-1.83-4.01-3.69-5.97-5.59-3.93-3.79-7.7-7.71-11.31-11.81-3.61-4.1-7.03-8.33-10.27-12.72-3.2-4.34-6.32-8.96-9.16-13.54-2.88-4.64-5.54-9.38-7.93-14.29-2.36-4.86-4.43-9.85-6.1-14.98-1.68-5.14-2.96-10.38-3.75-15.73-.4-2.67-.67-5.35-.81-8.05-.14-2.7-.15-5.39-.03-8.09.01-.34.03-.67.05-1.01,0-.08,0-.17.01-.25,0-.08,0-.16,0-.25-.01-.17-.07-.34-.15-.48-.17-.29-.46-.5-.8-.56-.17-.03-.35-.03-.51.02-.17.04-.31.12-.44.22-1.11.89-2.21,1.79-3.3,2.7-2.18,1.82-4.33,3.69-6.43,5.61-3.15,2.88-6.19,5.85-9.14,8.93-.18.19-.37.38-.55.58-.05.05-.09.1-.14.14-.04.05-.09.09-.13.14-.08.1-.14.21-.18.33-.02.06-.04.12-.05.18,0,.03,0,.07-.01.1,0,.06-.01.11-.02.17-.02.23-.04.46-.06.68-.04.45-.08.9-.12,1.36-.14,1.76-.25,3.52-.33,5.29-.14,3.32-.17,6.63-.05,9.95.21,5.92.85,11.79,2.03,17.6,1.04,5.11,2.47,10.05,4.33,14.93,2.24,5.86,5.01,11.36,8.27,16.71,1.5,2.46,3.08,4.86,4.73,7.21.8,1.14,1.6,2.27,2.42,3.38.8,1.09,1.62,2.18,2.45,3.25,6.14,7.98,12.77,15.19,20.12,22.07,4.32,4.05,8.81,7.9,13.4,11.63,2.22,1.81,4.45,3.58,6.71,5.34,2.2,1.72,4.41,3.42,6.64,5.11,4.24,3.23,8.51,6.42,12.75,9.65,2,1.52,3.99,3.05,5.96,4.61,1.88,1.48,3.75,2.98,5.59,4.51,7.52,6.25,13.61,12.24,19.5,20.1,1.57,2.1,3.06,4.24,4.49,6.44.77,1.18,1.52,2.37,2.25,3.57.77,1.27,1.53,2.55,2.26,3.84,1.6,2.86,3.07,5.77,4.4,8.77.74,1.66,1.43,3.35,2.07,5.05.17.45.34.89.5,1.34.08.23.16.46.25.68.08.21.21.4.39.53.37.28.86.32,1.27.1.41-.22.65-.67.6-1.14Z"/>
    <path class="cls-7" d="M1208.58,274.78c-8.92,4.48-17.48,9.65-25.59,15.46-.25.18-.51.36-.76.55-.06.05-.13.09-.19.14-.06.04-.12.09-.17.14-.11.11-.19.23-.25.38-.07.17-.08.28-.1.45-.02.17-.04.33-.07.5-.04.33-.08.66-.12.99-.15,1.31-.27,2.62-.35,3.94-.16,2.57-.19,5.14-.1,7.72.18,4.98.83,9.9,1.89,14.76,2.29,10.51,6.43,20.45,11.56,29.83,2.36,4.32,4.92,8.51,7.63,12.62,2.47,3.76,5.06,7.42,7.79,11,3.19,4.18,6.54,8.2,10.07,12.09,3.34,3.67,6.81,7.2,10.4,10.63,1.77,1.69,3.56,3.34,5.37,4.98,1.82,1.64,3.66,3.26,5.51,4.88,3.77,3.29,7.55,6.56,11.21,9.97,3.2,2.98,6.3,6.06,9.23,9.32,3.12,3.47,6.01,7.09,8.66,10.95,2.92,4.25,5.47,8.66,7.71,13.3,2.6,5.39,4.7,10.93,6.45,16.65.83,2.72,1.58,5.47,2.25,8.24.18.73.35,1.47.52,2.2.09.37.17.75.25,1.12.04.19.08.38.13.57.02.09.04.19.06.29.02.08.03.16.06.24.2.6.85.94,1.46.75.3-.09.55-.3.69-.59.07-.14.11-.28.12-.43,0-.08,0-.37,0-.45,0-1.21,0-2.42,0-3.63,0-.61,0-1.21,0-1.82,0-.02,0-.21,0-.23,0-.08,0-.15-.01-.23,0-.15-.01-.3-.02-.45-.01-.3-.03-.61-.04-.91-.12-2.42-.26-4.84-.43-7.26-.34-4.84-.78-9.66-1.36-14.47-.58-4.81-1.29-9.6-2.19-14.37-.46-2.47-.98-4.93-1.55-7.38s-1.2-4.88-1.9-7.3c-.7-2.42-1.46-4.81-2.3-7.18-.84-2.37-1.76-4.71-2.77-7.01s-2.1-4.57-3.28-6.79c-1.18-2.22-2.44-4.39-3.78-6.52-1.34-2.13-2.75-4.21-4.19-6.27s-2.91-4.1-4.4-6.12c-1.49-2.02-3-4.03-4.53-6.03-1.52-2-3.06-3.99-4.6-5.98-1.54-1.99-3.07-3.98-4.59-5.98-1.52-2-3.03-4.01-4.51-6.04-1.48-2.03-2.94-4.08-4.38-6.14-1.43-2.07-2.84-4.15-4.22-6.25-2.76-4.21-5.4-8.48-7.86-12.87-2.47-4.39-4.73-8.86-6.77-13.47-1.02-2.3-1.97-4.62-2.85-6.98-.88-2.35-1.7-4.73-2.44-7.13-.74-2.4-1.4-4.83-1.97-7.28-.58-2.45-1.07-4.91-1.47-7.39-.4-2.48-.71-4.98-.92-7.48-.11-1.25-.19-2.51-.25-3.76-.01-.31-.03-.63-.04-.94,0-.16-.01-.31-.02-.47,0-.16-.04-.31-.1-.45-.27-.61-1-.86-1.59-.57Z"/>
    <path class="cls-7" d="M1289.83,423.69c-.05-35.1-.11-70.21-.16-105.31-.03-17.55-.05-35.1-.08-52.66,0-2.25,0-4.49-.01-6.74,0-.56,0-1.12,0-1.68,0-.28,0-.56,0-.84,0-.14,0-.28,0-.42v-.21c0-.07,0-.14-.01-.21-.09-.58-.6-1-1.19-.99-.54.01-1.08.04-1.62.06-4.35.17-8.68.48-13.01.95-8.7.93-17.32,2.46-25.8,4.58-8.29,2.07-16.44,4.69-24.38,7.85-1.98.79-3.94,1.61-5.88,2.46-.49.21-.97.43-1.45.64-.24.11-.48.22-.73.33-.12.05-.24.11-.36.16-.04.02-.32.15-.36.17-.25.13-.44.34-.55.6-.05.13-.08.26-.08.4,0,.08,0,.37,0,.44,0,.6.01,1.19.03,1.79.12,4.67.58,9.27,1.37,13.87,1.58,9.18,4.43,18.02,8.17,26.52,3.35,7.62,7.34,14.82,11.76,21.85,1.37,2.18,2.77,4.33,4.2,6.46,1.31,1.96,2.65,3.91,4.01,5.83,2.49,3.53,5.02,6.94,7.63,10.37,2.46,3.24,4.96,6.45,7.44,9.68,2.61,3.39,5.15,6.76,7.66,10.22.97,1.33,1.92,2.68,2.87,4.02,1,1.43,1.99,2.87,2.95,4.33,2.17,3.3,4.13,6.61,5.94,10.13,2.17,4.23,4.02,8.57,5.61,13.04.94,2.63,1.78,5.29,2.54,7.98.42,1.47.81,2.94,1.18,4.41.04.16.07.3.15.45.07.14.16.25.28.35.23.2.53.29.83.27.62-.04,1.1-.55,1.09-1.17Z"/>
    <path class="cls-7" d="M1124.93,357.23c.23-.45.73-.7,1.22-.62s.89.47.97.97c.96,5.98,2.13,11.91,3.6,17.79,1.46,5.88,3.2,11.66,5.28,17.36,1.04,2.84,2.16,5.65,3.38,8.42,1.22,2.77,2.52,5.5,3.93,8.18s2.9,5.31,4.5,7.88c1.6,2.57,3.29,5.08,5.07,7.52,1.79,2.45,3.66,4.82,5.62,7.12,1.96,2.31,4,4.54,6.09,6.73,1.05,1.09,2.11,2.17,3.18,3.24,1.07,1.07,2.15,2.13,3.24,3.18,2.18,2.1,4.4,4.15,6.67,6.16s4.58,3.95,6.94,5.85c2.36,1.89,4.77,3.72,7.22,5.5,2.45,1.78,4.93,3.51,7.43,5.21s5.02,3.38,7.53,5.07c5.02,3.39,10,6.81,14.93,10.33s9.8,7.11,14.59,10.8c2.4,1.85,4.77,3.72,7.13,5.62,2.36,1.9,4.69,3.82,7,5.78,2.31,1.96,4.58,3.96,6.8,6.01,2.22,2.05,4.4,4.16,6.5,6.33,4.19,4.33,8.15,8.98,11.55,13.98,1.71,2.51,3.27,5.08,4.68,7.77.7,1.34,1.35,2.71,1.96,4.09s1.16,2.79,1.66,4.22c.51,1.43.96,2.87,1.37,4.33s.77,2.93,1.09,4.4c.65,2.96,1.14,5.94,1.55,8.94.4,3,.71,6.01.97,9.02.25,3.02.45,6.03.62,9.06.03.58-.37,1.1-.94,1.21s-1.14-.21-1.33-.77c-1.96-5.66-4.4-11.1-7.48-16.25-2.64-4.42-5.65-8.5-9.12-12.3-3.98-4.37-8.31-8.13-13.03-11.65-2.16-1.61-4.37-3.14-6.61-4.64-2.09-1.4-4.3-2.84-6.42-4.19-4.92-3.14-9.92-6.16-14.98-9.08-4.54-2.62-9.13-5.16-13.74-7.67-2.54-1.38-5.09-2.75-7.64-4.13-2.45-1.32-4.91-2.65-7.35-3.99-1.2-.66-2.39-1.32-3.58-1.99-1.18-.66-2.35-1.33-3.53-2.01-2.33-1.34-4.63-2.71-6.92-4.12-4.58-2.82-9.05-5.79-13.41-8.96-4.62-3.37-9.07-6.93-13.37-10.7-1.88-1.65-3.73-3.34-5.56-5.06-.95-.89-1.88-1.8-2.82-2.71-.96-.94-1.91-1.88-2.84-2.84-1.98-2.02-3.9-4.09-5.76-6.24-2.03-2.35-3.97-4.76-5.82-7.26-2.99-4.04-5.69-8.24-8.19-12.6-3.01-5.27-5.68-10.72-8.1-16.29-2.05-4.71-3.91-9.49-5.64-14.33-2.01-5.62-3.82-11.29-5.5-17.02-.06-.2-.06-.42,0-.62,3.6-13.89,8.77-27.32,15.39-40.05Z"/>
    <path class="cls-7" d="M1106.79,409.57c.1-.52.54-.91,1.07-.95.53-.03,1.02.3,1.19.8,1.78,5.42,3.71,10.78,5.85,16.08,1.07,2.65,2.18,5.27,3.36,7.87,1.17,2.6,2.4,5.17,3.7,7.71,2.6,5.09,5.45,10.01,8.63,14.76,1.59,2.37,3.26,4.68,5.01,6.94,1.75,2.26,3.57,4.44,5.47,6.57,1.9,2.13,3.86,4.19,5.88,6.22,1.01,1.01,2.02,2.01,3.05,3s2.06,1.97,3.11,2.94c2.09,1.94,4.22,3.83,6.4,5.68,2.17,1.85,4.39,3.65,6.64,5.39,2.25,1.75,4.54,3.45,6.87,5.09,2.33,1.65,4.69,3.24,7.09,4.79,2.4,1.55,4.82,3.05,7.27,4.52s4.92,2.89,7.4,4.29c4.97,2.8,10,5.49,15.02,8.2,2.51,1.35,5.02,2.71,7.52,4.08s4.99,2.76,7.47,4.17c2.48,1.41,4.95,2.84,7.4,4.3,2.45,1.46,4.89,2.94,7.31,4.46s4.82,3.06,7.2,4.63c2.38,1.57,4.74,3.17,7.05,4.85,2.31,1.68,4.56,3.42,6.72,5.29,2.17,1.86,4.23,3.82,6.19,5.9.98,1.04,1.92,2.11,2.84,3.2s1.79,2.21,2.64,3.36c1.7,2.3,3.25,4.68,4.67,7.16,1.42,2.48,2.69,5.02,3.84,7.64,1.15,2.62,2.15,5.28,3.05,7.99,1.79,5.41,3.11,10.99,4.08,16.6.1.56-.22,1.11-.75,1.3-.53.19-1.13-.02-1.41-.51-2.61-4.51-5.79-8.43-9.62-11.95-3.45-3.17-7.2-5.81-11.16-8.26-2.07-1.28-4.46-2.67-6.58-3.86-2.15-1.2-4.31-2.37-6.5-3.5-4.23-2.19-8.53-4.25-12.86-6.22-4.4-2.01-8.84-3.93-13.28-5.85-2.25-.97-4.49-1.93-6.74-2.9-2.28-.99-4.56-1.98-6.83-2.99-8.89-3.93-17.84-8.09-26.46-12.6-2.19-1.14-4.36-2.31-6.52-3.51-2.14-1.19-4.25-2.41-6.35-3.66-4.17-2.5-8.24-5.12-12.21-7.93-3.85-2.72-7.57-5.59-11.18-8.63-3.88-3.26-7.6-6.67-11.2-10.24-.79-.79-1.58-1.58-2.36-2.37-.8-.82-1.59-1.64-2.38-2.47-1.63-1.72-3.23-3.47-4.79-5.26-3.39-3.88-6.59-7.89-9.57-12.08-5.71-8.03-10.48-16.44-14.55-25.4-.05-.12-.09-.24-.1-.37-1.78-18.11-.96-36.38,2.44-54.25Z"/>
    <path class="cls-7" d="M1290.06,634.47c.05.69-.51,1.27-1.2,1.26-43.13-1.18-84.58-16.95-117.59-44.74-33-27.79-55.61-65.96-64.11-108.26-.11-.56.19-1.12.72-1.32s1.13,0,1.43.49c2.65,4.42,5.5,8.67,8.58,12.8,3.08,4.12,6.36,8.06,9.82,11.87,1.73,1.9,3.49,3.77,5.29,5.6,1.8,1.84,3.63,3.64,5.49,5.41,3.73,3.54,7.59,6.92,11.61,10.13,4.02,3.21,8.16,6.23,12.45,9.08,4.28,2.85,8.67,5.51,13.15,8.04,4.48,2.53,9.02,4.92,13.62,7.21,4.6,2.3,9.24,4.49,13.92,6.63,4.67,2.14,9.37,4.21,14.09,6.25,4.71,2.04,9.44,4.05,14.14,6.12,4.7,2.07,9.38,4.2,13.99,6.47,4.61,2.27,9.15,4.67,13.59,7.26,2.22,1.29,4.42,2.62,6.56,4.05,2.14,1.43,4.2,2.94,6.17,4.61.98.83,1.93,1.7,2.84,2.6.92.9,1.79,1.84,2.63,2.81.84.97,1.63,1.98,2.39,3.02.75,1.04,1.46,2.11,2.12,3.21.66,1.1,1.28,2.23,1.85,3.38.57,1.15,1.1,2.32,1.58,3.51.48,1.19.93,2.4,1.33,3.62s.77,2.45,1.09,3.69c.66,2.49,1.17,5,1.56,7.54.4,2.54.68,5.09.87,7.66Z"/>
    <path class="cls-7" d="M1289.32,545.28c.05.58-.35,1.11-.92,1.24s-1.15-.19-1.35-.74c-1.87-5.13-4.35-9.93-7.31-14.51-2.95-4.57-6.35-8.87-9.99-12.9-3.68-4.08-7.64-7.93-11.72-11.6-2.02-1.82-4.07-3.59-6.15-5.34-1.02-.86-2.05-1.72-3.09-2.57-1.02-.84-2.05-1.67-3.08-2.5-4.38-3.53-8.83-6.96-13.35-10.31-4.22-3.14-8.48-6.2-12.79-9.21-2.32-1.62-4.65-3.23-6.99-4.83-1.13-.77-2.26-1.54-3.4-2.3-1.11-.75-2.22-1.49-3.33-2.24-4.51-3.03-8.73-5.88-13.1-9.11-1.87-1.39-3.72-2.81-5.54-4.26-1.98-1.58-3.93-3.21-5.84-4.88-2.13-1.85-4.21-3.75-6.26-5.69-1.12-1.06-2.23-2.13-3.33-3.21-1.17-1.15-2.33-2.32-3.48-3.49-1.66-1.7-3.28-3.44-4.86-5.22-1.72-1.94-3.38-3.92-4.98-5.95-3.66-4.67-6.93-9.55-9.84-14.72-2.48-4.4-4.67-8.91-6.62-13.57-2.26-5.4-4.15-10.89-5.78-16.51-1.42-4.92-2.61-9.87-3.63-14.89-1.15-5.66-2.06-11.35-2.78-17.08-.03-.26.02-.52.15-.74,5.5-9.31,11.79-18.13,18.79-26.37.32-.38.85-.51,1.32-.33s.76.64.74,1.14c-.23,5.7-.12,11.42.43,17.1.27,2.84.66,5.67,1.15,8.48.5,2.81,1.11,5.59,1.85,8.36.74,2.76,1.59,5.48,2.56,8.17.97,2.69,2.06,5.32,3.26,7.91,1.2,2.59,2.51,5.12,3.91,7.61,1.4,2.49,2.9,4.91,4.47,7.3,1.57,2.38,3.21,4.72,4.9,7.02,1.69,2.3,3.43,4.56,5.23,6.78,3.6,4.44,7.39,8.69,11.38,12.78,3.99,4.09,8.16,7.98,12.46,11.73,4.31,3.75,8.73,7.35,13.22,10.88,4.49,3.53,9.04,6.97,13.6,10.4,2.28,1.72,4.56,3.43,6.83,5.16,2.27,1.73,4.53,3.47,6.77,5.24,2.24,1.77,4.45,3.57,6.62,5.42,2.17,1.85,4.29,3.76,6.34,5.75,2.05,1.99,4.01,4.05,5.89,6.21,1.88,2.16,3.65,4.38,5.34,6.68,1.69,2.3,3.29,4.66,4.81,7.08s2.98,4.86,4.33,7.38,2.58,5.08,3.71,7.71c1.12,2.63,2.13,5.29,3.02,8.01,1.95,5.89,3.39,11.95,4.46,18.06.26,1.46.49,2.93.71,4.4.17,1.15.33,2.3.47,3.45.14,1.11.26,2.22.37,3.34.15,1.44.28,2.87.39,4.31Z"/>
    <path class="cls-7" d="M1288.07,507.61c.06.59-.33,1.13-.91,1.26-.58.13-1.16-.19-1.36-.75-1-2.79-2.1-5.52-3.33-8.22-1.1-2.4-2.28-4.74-3.56-7.04-1.15-2.08-2.37-4.12-3.64-6.14-1.17-1.85-2.37-3.67-3.63-5.46-3.02-4.3-6.24-8.27-9.85-12.1-3.44-3.63-7.02-6.9-10.84-10.12-.9-.75-1.8-1.5-2.7-2.23-.93-.76-1.87-1.51-2.81-2.25-1.95-1.55-3.92-3.07-5.9-4.58-4.2-3.21-8.44-6.38-12.65-9.57-8.04-6.1-16.14-12.42-23.7-19.14-7.67-6.82-14.61-13.92-21.11-21.87-1.51-1.85-2.98-3.72-4.41-5.63-.74-.98-1.46-1.97-2.18-2.97-.73-1.02-1.45-2.04-2.16-3.08-3.02-4.39-5.75-8.86-8.16-13.61-2.18-4.3-4.02-8.69-5.54-13.27-1.69-5.11-2.91-10.28-3.73-15.6-.73-4.72-1.12-9.44-1.23-14.21-.13-5.4.1-10.79.62-16.17.02-.26.14-.5.31-.69,6.11-6.46,12.67-12.48,19.62-18.03.36-.29.86-.34,1.27-.12s.66.65.63,1.11c-.32,5.13-.15,10.25.48,15.36.31,2.55.74,5.07,1.27,7.59.53,2.51,1.16,4.99,1.89,7.46,1.45,4.92,3.28,9.72,5.39,14.4,1.05,2.34,2.18,4.64,3.36,6.92,1.18,2.28,2.43,4.52,3.72,6.73,1.29,2.21,2.64,4.4,4.02,6.56,1.38,2.16,2.8,4.29,4.27,6.4,2.93,4.22,6,8.31,9.26,12.28,3.26,3.97,6.67,7.79,10.23,11.48,3.56,3.69,7.26,7.24,11.05,10.7,4.15,3.78,7.32,6.47,11.54,10.18,1.93,1.69,3.84,3.4,5.72,5.15,1.88,1.74,3.73,3.52,5.53,5.35,1.8,1.83,3.54,3.71,5.22,5.65,1.68,1.94,3.29,3.93,4.82,5.99s2.98,4.17,4.34,6.35,2.64,4.4,3.82,6.67c1.19,2.28,2.28,4.59,3.29,6.95,1.01,2.36,1.93,4.75,2.77,7.17s1.61,4.87,2.31,7.34c.7,2.47,1.33,4.95,1.91,7.45,1.16,5,2.08,10.04,2.86,15.11.77,5.07,1.39,10.16,1.89,15.27Z"/>
    <path class="cls-7" d="M1208.58,274.78c.36-.18.78-.16,1.12.04.34.2.56.57.57.97.07,2.26.22,4.51.45,6.76s.53,4.48.91,6.71c.76,4.47,1.8,8.84,3.1,13.18,2.61,8.68,6.2,16.98,10.45,24.95,2.13,3.99,4.41,7.88,6.81,11.71,1.2,1.91,2.43,3.81,3.67,5.69,1.25,1.88,2.52,3.75,3.81,5.6,1.29,1.85,2.61,3.69,3.94,5.51,1.33,1.82,2.68,3.63,4.05,5.43,2.73,3.6,5.5,7.16,8.25,10.74,1.38,1.79,2.74,3.59,4.1,5.4,1.35,1.81,2.69,3.63,4.01,5.46,1.32,1.83,2.62,3.68,3.89,5.54,1.27,1.87,2.5,3.76,3.66,5.7,1.17,1.94,2.27,3.9,3.3,5.91,1.03,2.01,1.99,4.05,2.88,6.13.89,2.08,1.71,4.18,2.47,6.3s1.46,4.27,2.1,6.44c1.28,4.34,2.34,8.72,3.24,13.15.9,4.43,1.62,8.88,2.22,13.36.6,4.48,1.08,8.97,1.46,13.47.38,4.5.66,9.01.86,13.52,0,1.94,0,3.87,0,5.81,0,.6-.45,1.1-1.04,1.17-.59.06-1.14-.33-1.27-.91-1.06-4.86-2.31-9.66-3.83-14.4-1.31-4.09-2.82-8.09-4.57-12.01-1.99-4.46-4.27-8.72-6.87-12.85-2.36-3.73-4.95-7.27-7.77-10.67-3.03-3.66-6.28-7.09-9.7-10.39-3.25-3.15-6.63-6.15-10.03-9.13-3.68-3.22-6.79-5.9-10.4-9.19-3.41-3.11-6.74-6.3-9.96-9.61-3.13-3.21-6.13-6.51-9.03-9.93-3.09-3.66-6.02-7.43-8.82-11.31-2.58-3.58-5.08-7.33-7.42-11.07-2.55-4.09-4.94-8.27-7.11-12.58-4.17-8.26-7.49-16.95-9.42-26.04-1.94-9.13-2.39-18.33-1.13-27.61.04-.32.21-.6.47-.79,8.4-6.1,17.28-11.51,26.56-16.16Z"/>
    <path class="cls-7" d="M1289.83,423.69c0,.59-.44,1.09-1.03,1.16s-1.14-.3-1.28-.88c-.93-3.72-1.98-7.38-3.22-11.01-1.06-3.12-2.24-6.19-3.58-9.21-1.55-3.51-3.28-6.91-5.21-10.22-1.67-2.87-3.43-5.57-5.31-8.3-1.08-1.57-2.18-3.12-3.3-4.67-1.05-1.46-2.12-2.91-3.19-4.36-2.03-2.73-4.09-5.43-6.17-8.12-2.12-2.75-4.25-5.49-6.35-8.26-2.2-2.9-4.37-5.82-6.49-8.78-1.95-2.72-3.85-5.48-5.7-8.27-2.08-3.14-4.11-6.31-6.04-9.55-3.66-6.13-6.96-12.39-9.78-18.96-5.63-13.15-9.05-26.97-9.06-41.41,0-.46.27-.87.68-1.06,23.13-10.57,48.14-16.41,73.56-17.17.66-.02,1.2.51,1.2,1.17.09,55.97.17,111.93.26,167.9Z"/>
    <path class="cls-3" d="M921.52,209.14c0,.59.44,1.09,1.03,1.16s1.14-.3,1.28-.88c.93-3.72,1.98-7.38,3.22-11.01,1.06-3.12,2.24-6.19,3.58-9.21,1.55-3.51,3.28-6.91,5.21-10.22,1.67-2.87,3.43-5.57,5.31-8.3,1.08-1.57,2.18-3.12,3.3-4.67,1.05-1.46,2.12-2.91,3.19-4.36,2.03-2.73,4.09-5.43,6.17-8.12,2.12-2.75,4.25-5.49,6.35-8.26,2.2-2.9,4.37-5.82,6.49-8.78,1.95-2.72,3.85-5.48,5.7-8.27,2.08-3.14,4.11-6.31,6.04-9.55,3.66-6.13,6.96-12.39,9.78-18.96,5.63-13.15,9.05-26.97,9.06-41.41,0-.46-.27-.87-.68-1.06-23.13-10.57-48.14-16.41-73.56-17.17-.66-.02-1.2.51-1.2,1.17-.09,55.96-.17,111.93-.26,167.89Z"/>
    <path class="cls-3" d="M1002.77,60.23c-.36-.18-.78-.16-1.12.04-.34.2-.56.57-.57.97-.07,2.26-.22,4.51-.45,6.76-.23,2.25-.53,4.48-.91,6.71-.76,4.47-1.8,8.84-3.1,13.18-2.61,8.68-6.2,16.98-10.45,24.95-2.13,3.99-4.41,7.88-6.81,11.71-1.2,1.91-2.43,3.81-3.67,5.69-1.25,1.88-2.52,3.75-3.81,5.6-1.29,1.85-2.61,3.69-3.94,5.51-1.33,1.82-2.68,3.63-4.05,5.43-2.73,3.6-5.5,7.16-8.25,10.75-1.38,1.79-2.74,3.59-4.1,5.39-1.35,1.81-2.69,3.63-4.01,5.46-1.32,1.83-2.62,3.68-3.89,5.54s-2.5,3.76-3.66,5.7c-1.17,1.94-2.27,3.9-3.3,5.91-1.03,2.01-1.99,4.05-2.89,6.13-.89,2.08-1.71,4.18-2.47,6.3-.76,2.13-1.46,4.27-2.1,6.44-1.28,4.34-2.34,8.72-3.24,13.15-.9,4.43-1.62,8.88-2.22,13.36-.6,4.48-1.08,8.97-1.46,13.47-.38,4.5-.66,9.01-.86,13.52,0,1.94,0,3.87,0,5.81,0,.6.45,1.1,1.04,1.16.59.07,1.14-.33,1.27-.91,1.06-4.86,2.31-9.66,3.83-14.4,1.31-4.09,2.82-8.09,4.57-12.01,1.99-4.46,4.27-8.72,6.87-12.85,2.36-3.74,4.94-7.27,7.76-10.67,3.03-3.66,6.28-7.09,9.7-10.39,3.25-3.15,6.63-6.15,10.03-9.13,3.68-3.22,6.79-5.9,10.4-9.19,3.41-3.11,6.74-6.3,9.96-9.61,3.13-3.21,6.13-6.51,9.02-9.93,3.09-3.66,6.02-7.43,8.82-11.31,2.58-3.58,5.08-7.33,7.42-11.07,2.55-4.09,4.94-8.27,7.11-12.58,4.17-8.26,7.49-16.95,9.42-26.04,1.94-9.13,2.39-18.33,1.13-27.61-.04-.32-.21-.6-.47-.79-8.4-6.1-17.28-11.51-26.56-16.16Z"/>
    <path class="cls-3" d="M923.28,293.05c-.06.59.33,1.13.91,1.26.58.13,1.16-.19,1.36-.75,1-2.79,2.1-5.52,3.33-8.22,1.1-2.4,2.28-4.74,3.56-7.04,1.15-2.08,2.37-4.12,3.64-6.14,1.17-1.85,2.37-3.67,3.63-5.46,3.02-4.3,6.23-8.27,9.85-12.1,3.44-3.63,7.02-6.9,10.84-10.12.9-.75,1.8-1.5,2.7-2.23.93-.76,1.87-1.51,2.81-2.25,1.95-1.54,3.92-3.07,5.9-4.58,4.2-3.21,8.44-6.38,12.65-9.58,8.04-6.1,16.14-12.42,23.7-19.14,7.67-6.82,14.61-13.92,21.11-21.87,1.51-1.85,2.98-3.72,4.41-5.63.74-.98,1.46-1.97,2.18-2.97.73-1.02,1.45-2.04,2.16-3.08,3.02-4.39,5.75-8.86,8.16-13.61,2.18-4.3,4.02-8.69,5.54-13.27,1.69-5.11,2.91-10.28,3.73-15.6.73-4.72,1.12-9.44,1.23-14.21.13-5.4-.1-10.79-.62-16.17-.02-.26-.14-.5-.31-.69-6.11-6.46-12.67-12.48-19.62-18.03-.36-.29-.86-.34-1.27-.12-.41.21-.66.65-.63,1.11.32,5.13.15,10.25-.48,15.36-.31,2.55-.74,5.07-1.27,7.58-.53,2.51-1.16,4.99-1.89,7.46-1.45,4.92-3.28,9.72-5.39,14.4-1.05,2.34-2.18,4.64-3.36,6.92-1.18,2.28-2.43,4.52-3.72,6.73s-2.64,4.4-4.02,6.56-2.8,4.29-4.27,6.4c-2.93,4.22-6,8.31-9.26,12.28s-6.67,7.79-10.23,11.48c-3.56,3.69-7.26,7.24-11.05,10.7-4.15,3.78-7.32,6.47-11.54,10.18-1.93,1.69-3.84,3.4-5.72,5.14-1.88,1.74-3.73,3.52-5.53,5.35-1.8,1.83-3.54,3.71-5.22,5.65s-3.29,3.93-4.82,5.99c-1.53,2.06-2.98,4.17-4.34,6.35s-2.64,4.4-3.82,6.67c-1.19,2.28-2.28,4.59-3.29,6.95s-1.93,4.75-2.77,7.17c-.84,2.42-1.61,4.87-2.31,7.34-.7,2.47-1.33,4.95-1.91,7.45-1.16,5-2.08,10.04-2.86,15.11-.77,5.07-1.39,10.16-1.89,15.27Z"/>
    <path class="cls-3" d="M922.03,330.73c-.05.58.35,1.11.92,1.24s1.15-.19,1.35-.74c1.87-5.13,4.35-9.93,7.31-14.51,2.95-4.57,6.35-8.87,9.99-12.9,3.68-4.08,7.64-7.93,11.72-11.6,2.02-1.82,4.07-3.59,6.15-5.34,1.02-.86,2.05-1.72,3.09-2.57,1.02-.84,2.05-1.67,3.08-2.5,4.38-3.53,8.83-6.96,13.35-10.32,4.22-3.14,8.48-6.2,12.79-9.21,2.32-1.62,4.65-3.23,6.99-4.83,1.13-.77,2.26-1.54,3.4-2.3,1.11-.75,2.22-1.49,3.33-2.24,4.51-3.03,8.73-5.88,13.1-9.11,1.87-1.39,3.72-2.81,5.55-4.26,1.98-1.59,3.93-3.21,5.84-4.88,2.13-1.85,4.21-3.75,6.26-5.69,1.12-1.06,2.23-2.13,3.33-3.21,1.17-1.15,2.33-2.31,3.48-3.49,1.66-1.7,3.28-3.44,4.86-5.22,1.72-1.94,3.38-3.92,4.98-5.95,3.66-4.67,6.92-9.55,9.84-14.72,2.48-4.4,4.67-8.91,6.62-13.57,2.26-5.4,4.15-10.89,5.78-16.51,1.42-4.92,2.61-9.87,3.63-14.89,1.15-5.66,2.05-11.35,2.78-17.08.03-.26-.02-.52-.15-.74-5.5-9.31-11.79-18.13-18.79-26.37-.32-.38-.85-.51-1.32-.33-.46.18-.76.64-.74,1.14.23,5.7.12,11.42-.43,17.1-.27,2.84-.66,5.67-1.15,8.48-.5,2.81-1.11,5.59-1.85,8.36-.74,2.76-1.59,5.48-2.56,8.17-.97,2.69-2.06,5.32-3.26,7.91-1.2,2.59-2.51,5.12-3.91,7.61-1.4,2.49-2.9,4.91-4.47,7.3s-3.21,4.72-4.9,7.02c-1.69,2.3-3.43,4.56-5.23,6.78-3.6,4.44-7.39,8.69-11.38,12.78-3.99,4.09-8.16,7.98-12.46,11.73-4.31,3.75-8.73,7.35-13.22,10.88-4.49,3.52-9.04,6.97-13.6,10.4-2.28,1.72-4.56,3.43-6.83,5.16-2.27,1.73-4.53,3.47-6.77,5.24-2.24,1.77-4.45,3.57-6.62,5.42-2.17,1.85-4.29,3.76-6.34,5.75-2.05,1.99-4.01,4.05-5.89,6.21s-3.65,4.38-5.34,6.68c-1.69,2.3-3.29,4.66-4.81,7.08s-2.98,4.86-4.33,7.38c-1.35,2.52-2.58,5.08-3.71,7.71-1.12,2.63-2.13,5.29-3.02,8.01-1.95,5.89-3.39,11.95-4.46,18.06-.26,1.46-.49,2.93-.71,4.4-.17,1.15-.33,2.3-.47,3.45-.14,1.11-.26,2.22-.37,3.34-.15,1.44-.28,2.87-.39,4.31Z"/>
    <path class="cls-3" d="M921.29,419.92c-.05.69.51,1.27,1.2,1.26,43.13-1.18,84.58-16.95,117.59-44.74,33-27.79,55.61-65.96,64.11-108.26.11-.56-.19-1.12-.72-1.32-.53-.21-1.13,0-1.43.49-2.65,4.42-5.5,8.67-8.58,12.8-3.08,4.12-6.36,8.06-9.82,11.87-1.73,1.9-3.49,3.77-5.29,5.6s-3.63,3.64-5.49,5.41c-3.73,3.54-7.59,6.92-11.61,10.13s-8.16,6.23-12.45,9.08c-4.28,2.85-8.67,5.51-13.15,8.04-4.48,2.53-9.02,4.92-13.62,7.21-4.6,2.3-9.24,4.49-13.92,6.63-4.67,2.14-9.37,4.21-14.09,6.25-4.71,2.04-9.44,4.05-14.14,6.12-4.7,2.07-9.38,4.2-13.99,6.47-4.61,2.27-9.15,4.67-13.59,7.26-2.22,1.29-4.42,2.62-6.56,4.05-2.14,1.43-4.2,2.94-6.17,4.61-.98.83-1.93,1.7-2.84,2.6-.92.9-1.79,1.84-2.63,2.81-.84.98-1.63,1.98-2.39,3.02-.75,1.04-1.46,2.11-2.12,3.21-.66,1.1-1.28,2.23-1.85,3.38-.57,1.15-1.1,2.32-1.58,3.51-.48,1.19-.93,2.4-1.33,3.62-.4,1.22-.77,2.45-1.09,3.69-.66,2.49-1.17,5-1.56,7.54-.4,2.54-.68,5.09-.87,7.66Z"/>
    <path class="cls-3" d="M1104.56,195.02c-.1-.52-.54-.91-1.07-.95s-1.02.3-1.19.8c-1.78,5.42-3.71,10.78-5.85,16.08-1.07,2.65-2.18,5.27-3.36,7.87-1.17,2.6-2.41,5.17-3.7,7.71-2.6,5.09-5.45,10.01-8.64,14.76-1.59,2.37-3.26,4.68-5.01,6.93-1.75,2.26-3.57,4.44-5.47,6.57-1.9,2.13-3.86,4.19-5.88,6.22-1.01,1.01-2.02,2.01-3.05,3s-2.06,1.97-3.11,2.94c-2.09,1.94-4.22,3.83-6.4,5.68-2.17,1.85-4.39,3.65-6.64,5.39-2.25,1.75-4.54,3.45-6.87,5.09-2.33,1.65-4.69,3.24-7.09,4.79s-4.82,3.05-7.27,4.52c-2.45,1.46-4.92,2.89-7.4,4.29-4.97,2.8-10,5.49-15.02,8.2-2.51,1.35-5.02,2.71-7.52,4.08s-4.99,2.76-7.47,4.17c-2.48,1.41-4.95,2.84-7.4,4.3-2.45,1.46-4.89,2.94-7.31,4.46-2.42,1.51-4.82,3.06-7.2,4.63-2.38,1.57-4.74,3.17-7.05,4.85-2.31,1.68-4.55,3.42-6.72,5.28-2.17,1.86-4.23,3.82-6.19,5.9-.98,1.04-1.92,2.11-2.84,3.2-.91,1.09-1.79,2.21-2.64,3.36-1.7,2.3-3.25,4.68-4.67,7.16-1.42,2.48-2.69,5.02-3.84,7.64-1.15,2.62-2.15,5.28-3.05,7.99-1.79,5.41-3.11,10.99-4.08,16.6-.1.56.22,1.11.75,1.3.53.19,1.13-.02,1.41-.51,2.61-4.51,5.79-8.43,9.62-11.95,3.45-3.17,7.2-5.81,11.17-8.26,2.07-1.28,4.46-2.67,6.58-3.86,2.15-1.2,4.31-2.37,6.5-3.5,4.23-2.19,8.53-4.24,12.86-6.22,4.4-2.01,8.84-3.93,13.28-5.85,2.25-.97,4.49-1.93,6.74-2.9,2.28-.99,4.56-1.98,6.83-2.99,8.89-3.93,17.84-8.09,26.46-12.6,2.19-1.14,4.36-2.31,6.52-3.51,2.14-1.19,4.25-2.41,6.35-3.66,4.17-2.49,8.24-5.12,12.21-7.93,3.85-2.72,7.57-5.59,11.18-8.63,3.88-3.26,7.6-6.67,11.2-10.24.79-.78,1.58-1.58,2.36-2.37.8-.82,1.59-1.64,2.38-2.47,1.63-1.72,3.23-3.47,4.79-5.26,3.39-3.88,6.59-7.89,9.57-12.08,5.71-8.03,10.48-16.44,14.55-25.4.05-.12.09-.24.1-.37,1.78-18.11.96-36.38-2.44-54.25Z"/>
    <path class="cls-3" d="M1086.42,142.67c-.23-.45-.73-.7-1.22-.62s-.89.47-.97.97c-.96,5.98-2.13,11.91-3.6,17.79-1.46,5.88-3.2,11.66-5.28,17.36-1.04,2.84-2.16,5.65-3.38,8.42-1.22,2.77-2.52,5.5-3.93,8.18-1.4,2.68-2.9,5.31-4.5,7.88-1.6,2.57-3.29,5.08-5.07,7.52s-3.66,4.82-5.62,7.12c-1.96,2.31-4,4.54-6.09,6.73-1.05,1.09-2.11,2.17-3.18,3.24-1.07,1.07-2.15,2.13-3.24,3.18-2.18,2.1-4.4,4.15-6.67,6.16s-4.58,3.95-6.94,5.85c-2.36,1.89-4.77,3.72-7.22,5.5s-4.93,3.51-7.43,5.21c-2.5,1.7-5.02,3.38-7.53,5.07-5.02,3.38-10,6.81-14.93,10.33-4.93,3.51-9.8,7.11-14.59,10.8-2.4,1.85-4.77,3.72-7.13,5.62-2.36,1.9-4.69,3.82-7,5.78s-4.58,3.96-6.8,6.01c-2.22,2.05-4.4,4.16-6.5,6.33-4.19,4.33-8.15,8.98-11.55,13.98-1.71,2.51-3.27,5.08-4.68,7.77-.7,1.34-1.35,2.71-1.96,4.09s-1.16,2.79-1.66,4.22c-.51,1.43-.96,2.87-1.37,4.33s-.77,2.93-1.09,4.4c-.65,2.96-1.14,5.94-1.55,8.94-.4,3-.71,6.01-.97,9.02-.25,3.02-.45,6.03-.61,9.06-.03.58.37,1.1.94,1.21.57.11,1.14-.22,1.33-.77,1.96-5.66,4.4-11.1,7.48-16.25,2.64-4.42,5.65-8.49,9.12-12.3,3.98-4.37,8.31-8.13,13.03-11.65,2.16-1.61,4.37-3.14,6.61-4.64,2.09-1.4,4.3-2.84,6.42-4.19,4.92-3.14,9.92-6.16,14.98-9.08,4.54-2.62,9.13-5.16,13.74-7.67,2.54-1.38,5.09-2.75,7.64-4.13,2.45-1.32,4.91-2.65,7.35-3.99,1.2-.66,2.39-1.32,3.58-1.99,1.18-.66,2.35-1.33,3.53-2.01,2.33-1.34,4.63-2.71,6.92-4.12,4.58-2.82,9.05-5.79,13.41-8.96,4.62-3.37,9.07-6.93,13.37-10.7,1.88-1.65,3.73-3.34,5.56-5.06.95-.89,1.88-1.8,2.82-2.71.96-.94,1.91-1.88,2.84-2.84,1.98-2.02,3.9-4.1,5.76-6.24,2.03-2.35,3.97-4.76,5.82-7.26,2.99-4.04,5.69-8.24,8.19-12.6,3.01-5.27,5.68-10.72,8.1-16.29,2.05-4.71,3.91-9.49,5.64-14.33,2.01-5.62,3.82-11.29,5.5-17.02.06-.2.06-.42,0-.62-3.6-13.89-8.77-27.33-15.39-40.06Z"/>
    <path class="cls-3" d="M921.52,209.14c.05-35.1.11-70.21.16-105.31.03-17.55.05-35.1.08-52.66,0-2.25,0-4.49.01-6.74,0-.56,0-1.12,0-1.68,0-.28,0-.56,0-.84,0-.14,0-.28,0-.42v-.21c0-.07,0-.14.01-.21.09-.58.6-1,1.19-.99.54.01,1.08.03,1.62.06,4.35.17,8.68.48,13.01.95,8.7.93,17.32,2.46,25.8,4.58,8.29,2.07,16.44,4.69,24.38,7.85,1.98.79,3.94,1.61,5.88,2.46.49.21.97.43,1.46.64.24.11.48.22.72.33.12.05.24.11.36.16.04.02.32.15.36.17.25.13.44.34.55.6.05.13.08.26.08.4,0,.08,0,.37,0,.44,0,.6-.01,1.19-.03,1.79-.12,4.67-.58,9.27-1.37,13.87-1.58,9.18-4.43,18.02-8.17,26.52-3.35,7.62-7.34,14.82-11.76,21.85-1.37,2.18-2.77,4.33-4.2,6.46-1.31,1.96-2.65,3.91-4.01,5.83-2.49,3.53-5.02,6.94-7.63,10.37-2.46,3.24-4.96,6.45-7.44,9.68-2.61,3.39-5.15,6.76-7.66,10.22-.97,1.33-1.92,2.68-2.87,4.02-1,1.43-1.99,2.87-2.95,4.33-2.17,3.3-4.13,6.61-5.94,10.13-2.17,4.23-4.02,8.57-5.61,13.04-.94,2.63-1.78,5.29-2.54,7.98-.42,1.47-.81,2.94-1.18,4.41-.04.16-.07.3-.15.45-.07.14-.16.25-.28.35-.23.2-.53.29-.83.27-.62-.04-1.1-.55-1.09-1.17Z"/>
    <path class="cls-6" d="M921.52,635.34c0,.59.44,1.09,1.03,1.16s1.14-.3,1.28-.88c.93-3.72,1.98-7.38,3.22-11.01,1.06-3.12,2.24-6.19,3.58-9.21,1.55-3.51,3.28-6.91,5.21-10.22,1.67-2.87,3.43-5.57,5.31-8.3,1.08-1.57,2.18-3.12,3.3-4.67,1.05-1.46,2.12-2.91,3.19-4.36,2.03-2.73,4.09-5.43,6.17-8.12,2.12-2.75,4.25-5.49,6.35-8.26,2.2-2.9,4.37-5.82,6.49-8.78,1.95-2.72,3.85-5.48,5.7-8.27,2.08-3.14,4.11-6.31,6.04-9.55,3.66-6.13,6.96-12.39,9.78-18.96,5.63-13.15,9.05-26.97,9.06-41.41,0-.46-.27-.87-.68-1.06-23.13-10.57-48.14-16.41-73.56-17.17-.66-.02-1.2.51-1.2,1.17-.09,55.96-.17,111.93-.26,167.89Z"/>
    <path class="cls-3" d="M923.28,293.05c.54-5.43,1.2-10.83,2.04-16.22.84-5.37,1.87-10.76,3.16-16.04,1.29-5.29,2.84-10.53,4.77-15.63.96-2.55,2.01-5.06,3.17-7.54,1.16-2.47,2.41-4.89,3.76-7.26,1.36-2.37,2.81-4.67,4.36-6.91s3.2-4.41,4.93-6.52c1.73-2.11,3.54-4.14,5.42-6.12,1.88-1.98,3.81-3.89,5.8-5.76,1.98-1.87,4-3.7,6.05-5.51,2.04-1.81,4.1-3.59,6.15-5.39,2.05-1.79,4.1-3.6,6.11-5.43,2.02-1.83,4.01-3.69,5.97-5.59,3.93-3.79,7.7-7.71,11.31-11.81,3.61-4.1,7.03-8.33,10.27-12.72,3.2-4.34,6.32-8.96,9.16-13.54,2.88-4.64,5.54-9.38,7.93-14.29,2.36-4.85,4.43-9.85,6.1-14.98,1.68-5.14,2.96-10.38,3.75-15.73.4-2.67.67-5.35.81-8.05s.15-5.39.03-8.09c-.02-.34-.03-.67-.05-1.01,0-.08,0-.17-.01-.25,0-.08,0-.16,0-.25.01-.17.07-.34.15-.48.17-.29.46-.5.79-.56.17-.03.35-.03.51.02.17.04.31.12.44.23,1.11.89,2.21,1.78,3.3,2.7,2.18,1.82,4.33,3.69,6.43,5.61,3.15,2.88,6.19,5.85,9.14,8.93.18.19.37.38.55.58.05.05.09.1.14.14.04.05.09.09.13.14.08.1.14.21.18.33.02.06.04.12.05.18,0,.03,0,.07.01.1,0,.06.01.11.02.17.02.23.04.46.06.68.04.45.08.9.12,1.36.14,1.76.25,3.52.33,5.29.14,3.32.17,6.63.05,9.95-.21,5.92-.85,11.79-2.03,17.6-1.04,5.11-2.47,10.05-4.33,14.93-2.24,5.86-5.01,11.36-8.27,16.71-1.5,2.46-3.08,4.85-4.73,7.21-.8,1.14-1.6,2.27-2.42,3.38-.8,1.09-1.62,2.18-2.44,3.25-6.14,7.98-12.77,15.19-20.12,22.07-4.32,4.05-8.81,7.9-13.4,11.63-2.22,1.81-4.45,3.58-6.71,5.34-2.2,1.72-4.41,3.42-6.64,5.11-4.24,3.23-8.51,6.42-12.75,9.65-2,1.52-3.99,3.05-5.96,4.61-1.88,1.48-3.75,2.98-5.59,4.51-7.52,6.25-13.61,12.24-19.5,20.1-1.57,2.1-3.06,4.24-4.49,6.44-.77,1.18-1.52,2.37-2.25,3.57-.77,1.27-1.53,2.55-2.26,3.84-1.6,2.86-3.07,5.77-4.4,8.77-.74,1.66-1.43,3.35-2.07,5.05-.17.45-.34.89-.5,1.34-.08.23-.16.46-.25.68-.08.21-.21.4-.39.53-.37.28-.86.32-1.27.1-.41-.22-.65-.67-.6-1.14Z"/>
    <path class="cls-3" d="M922.03,330.73c.12-1.44.24-2.89.39-4.33.12-1.12.24-2.23.38-3.35.14-1.16.3-2.32.47-3.47.22-1.48.46-2.95.72-4.42,1.08-6.13,2.53-12.22,4.49-18.13.98-2.96,2.09-5.87,3.35-8.72s2.64-5.64,4.16-8.37c.76-1.36,1.55-2.7,2.36-4.03.81-1.33,1.65-2.64,2.5-3.95,1.72-2.61,3.52-5.14,5.45-7.59,1.85-2.36,3.79-4.62,5.84-6.81,2.05-2.18,4.19-4.27,6.41-6.28,2.22-2.01,4.5-3.94,6.82-5.83s4.67-3.73,7.04-5.56c2.37-1.83,4.75-3.63,7.14-5.43s4.78-3.6,7.16-5.41c4.77-3.62,9.5-7.27,14.15-11.04,4.65-3.77,9.19-7.65,13.58-11.73,2.19-2.04,4.34-4.12,6.44-6.25s4.15-4.31,6.14-6.54c4-4.47,7.74-9.11,11.28-13.95,1.76-2.42,3.47-4.87,5.1-7.38,1.63-2.51,3.17-5.07,4.61-7.69,1.43-2.61,2.75-5.26,3.96-7.98,1.21-2.72,2.29-5.48,3.24-8.3s1.78-5.67,2.47-8.56c.69-2.89,1.26-5.8,1.7-8.75.44-2.94.76-5.89.96-8.86s.3-5.93.29-8.91c0-1.49-.04-2.97-.09-4.46,0-.19-.01-.37-.02-.56,0-.1,0-.17,0-.27.01-.09.04-.18.07-.27.14-.35.44-.61.81-.7.37-.09.77,0,1.05.26.07.06.13.13.19.2.06.07.13.15.19.22.13.15.25.3.38.45,2,2.38,3.95,4.81,5.83,7.29,2.35,3.09,4.59,6.24,6.75,9.46,1.08,1.61,2.13,3.24,3.15,4.88.51.82,1.02,1.64,1.52,2.47.25.41.5.83.75,1.24.02.04.16.27.18.31.06.1.09.21.12.33.02.12.03.23.02.35,0,.06-.01.12-.02.17,0,.07-.02.15-.03.22-.02.15-.04.3-.06.45-.59,4.57-1.3,9.11-2.16,13.63-.78,4.11-1.67,8.19-2.71,12.24-1.8,7.04-4.01,13.97-6.76,20.7-3.02,7.4-6.62,14.43-10.99,21.12-1.84,2.82-3.8,5.55-5.88,8.21-1.88,2.4-3.84,4.71-5.88,6.97-1.85,2.04-3.75,4.02-5.69,5.97-1.75,1.76-3.53,3.5-5.34,5.2-3.15,2.97-6.38,5.84-9.72,8.6-2.33,1.92-4.7,3.78-7.12,5.58-2.24,1.67-4.52,3.3-6.82,4.89-2.25,1.55-4.51,3.08-6.78,4.6-1.15.77-2.3,1.55-3.45,2.32-1.18.8-2.35,1.59-3.53,2.39-4.98,3.39-9.91,6.84-14.79,10.38-5.3,3.84-10.53,7.79-15.66,11.85-1.12.89-2.24,1.78-3.35,2.68-1.13.91-2.25,1.83-3.37,2.76-2.28,1.89-4.53,3.8-6.74,5.76-4.49,3.97-8.86,8.16-12.88,12.61-4.02,4.43-7.74,9.18-10.91,14.27-1.58,2.53-3.01,5.13-4.27,7.83-.64,1.36-1.23,2.73-1.77,4.13-.14.35-.27.71-.41,1.07-.03.09-.07.18-.1.27-.04.1-.06.17-.12.27-.11.18-.27.33-.46.43-.37.19-.82.17-1.17-.06-.36-.23-.56-.65-.53-1.07Z"/>
    <path class="cls-3" d="M921.29,419.92c.2-2.64.49-5.27.91-7.89.42-2.62.95-5.2,1.65-7.77.69-2.56,1.54-5.06,2.57-7.51.52-1.22,1.08-2.42,1.69-3.59.61-1.18,1.27-2.32,1.97-3.45s1.46-2.21,2.26-3.26,1.65-2.07,2.54-3.05c1.79-1.97,3.71-3.76,5.78-5.43,2.07-1.67,4.23-3.18,6.46-4.61,1.11-.71,2.24-1.41,3.38-2.08,1.14-.68,2.28-1.34,3.43-2,2.3-1.31,4.63-2.57,6.98-3.8,2.35-1.22,4.72-2.4,7.1-3.55,4.77-2.3,9.6-4.45,14.46-6.57,2.43-1.06,4.86-2.1,7.29-3.15s4.86-2.1,7.29-3.15c4.85-2.12,9.69-4.28,14.49-6.51,4.8-2.23,9.56-4.54,14.27-6.97,4.71-2.42,9.35-4.96,13.92-7.65,4.56-2.7,9.01-5.55,13.34-8.61,2.16-1.53,4.29-3.11,6.38-4.73,2.09-1.63,4.14-3.3,6.16-5.02,4.05-3.45,7.92-7.07,11.67-10.85,1.87-1.88,3.71-3.8,5.51-5.76s3.55-3.95,5.26-5.98c3.42-4.08,6.62-8.3,9.6-12.71,1.49-2.2,2.91-4.44,4.28-6.72.04-.07.09-.14.13-.21.04-.07.09-.13.14-.19.12-.12.26-.22.41-.29.31-.13.66-.12.96.03.31.15.53.43.62.77.04.16.05.32.02.49-.01.08-.03.15-.05.23-.02.08-.03.15-.05.23-.25,1.23-.51,2.46-.79,3.69-9.35,41.73-32.46,79.1-65.62,106.11-16.47,13.41-35.06,23.98-55.01,31.27-10.15,3.71-20.6,6.54-31.23,8.48-5.15.94-10.32,1.66-15.53,2.17-2.55.25-5.11.45-7.67.6-1.27.07-2.53.13-3.8.18-.63.02-1.26.04-1.89.06-.08,0-.16,0-.25,0-.09-.01-.17-.03-.25-.06-.16-.06-.3-.15-.43-.27-.24-.24-.37-.58-.34-.92Z"/>
    <path class="cls-3" d="M1104.56,195.02c2.06,10.81,3.17,21.78,3.33,32.78.08,5.5-.07,10.98-.47,16.47-.1,1.37-.21,2.73-.34,4.1-.02.17-.03.34-.05.51l-.02.26c0,.09-.01.18-.03.26,0,.04-.02.09-.04.13-.02.05-.04.09-.06.14-.06.12-.11.24-.17.37-.11.24-.22.48-.33.73-.44.95-.89,1.9-1.35,2.85-1.74,3.58-3.61,7.08-5.62,10.51-3.61,6.16-7.59,11.95-12.05,17.52-3.85,4.82-7.94,9.33-12.27,13.73-3.84,3.89-7.8,7.62-11.96,11.17-3.83,3.27-7.79,6.37-11.9,9.29-4.82,3.43-9.73,6.55-14.84,9.53-5.17,3.01-10.43,5.81-15.78,8.48-5.37,2.69-10.8,5.24-16.27,7.71-2.7,1.22-5.41,2.42-8.12,3.61-1.34.59-2.68,1.17-4.02,1.75-1.33.58-2.66,1.15-3.99,1.72-10.45,4.5-20.23,8.69-30.31,14.02-2.59,1.37-5.15,2.78-7.67,4.26-1.3.76-2.6,1.53-3.88,2.33-1.31.81-2.6,1.65-3.87,2.53-5.54,3.82-10.3,8.13-14.22,13.67-.45.63-.88,1.27-1.29,1.92-.21.33-.42.67-.62,1-.1.17-.21.34-.31.51-.05.09-.1.17-.15.26-.04.07-.1.18-.15.25-.21.32-.56.52-.95.53-.37.01-.72-.15-.95-.45-.12-.15-.2-.33-.23-.52-.04-.21-.01-.33.02-.54.06-.36.13-.73.19-1.09.53-2.91,1.16-5.8,1.9-8.66,1.48-5.72,3.4-11.33,5.92-16.69,1.26-2.68,2.65-5.28,4.21-7.8.78-1.26,1.59-2.49,2.44-3.7s1.74-2.39,2.66-3.54c.92-1.15,1.88-2.28,2.88-3.37.99-1.1,2.02-2.16,3.07-3.19,2.12-2.07,4.33-4.01,6.65-5.86,2.32-1.85,4.72-3.6,7.17-5.28,1.22-.84,2.46-1.67,3.69-2.49,1.24-.82,2.48-1.63,3.73-2.43,4.99-3.21,10.06-6.29,15.2-9.27,2.57-1.49,5.15-2.95,7.74-4.39,2.59-1.44,5.2-2.86,7.81-4.28,2.61-1.41,5.22-2.82,7.84-4.23s5.22-2.83,7.81-4.27c2.59-1.44,5.17-2.9,7.72-4.41,2.55-1.5,5.08-3.05,7.59-4.64,2.5-1.59,4.97-3.23,7.4-4.93,2.43-1.7,4.82-3.44,7.18-5.25,2.35-1.81,4.66-3.66,6.92-5.58,2.27-1.91,4.48-3.87,6.66-5.89,1.09-1.01,2.17-2.02,3.24-3.05s2.13-2.06,3.17-3.11c2.09-2.1,4.13-4.25,6.1-6.47,1.97-2.22,3.86-4.5,5.66-6.86,1.81-2.36,3.52-4.77,5.16-7.25,3.28-4.97,6.18-10.11,8.84-15.43,1.32-2.66,2.58-5.34,3.77-8.06,1.19-2.72,2.32-5.46,3.41-8.22,1.08-2.76,2.11-5.54,3.09-8.34.49-1.4.97-2.8,1.44-4.21.12-.35.23-.7.35-1.06.03-.09.06-.18.09-.26.03-.09.07-.16.12-.24.1-.16.24-.3.41-.39.32-.18.72-.2,1.06-.05.35.16.6.47.67.85Z"/>
    <path class="cls-3" d="M1086.42,142.67c4.88,9.39,8.97,19.17,12.23,29.23.81,2.51,1.57,5.04,2.28,7.59.18.64.35,1.27.52,1.91.09.32.17.64.25.96.02.08.04.16.06.24.02.08.04.16.06.24.03.16.02.33-.02.49-.02.07-.04.13-.06.2l-.07.22c-.04.15-.09.3-.13.44-.09.29-.17.59-.26.88-.17.58-.35,1.16-.52,1.74-.35,1.13-.7,2.27-1.05,3.4-1.33,4.21-2.75,8.39-4.27,12.54-1.36,3.69-2.8,7.35-4.35,10.97-1.78,4.15-3.69,8.22-5.77,12.22-1.81,3.47-3.74,6.86-5.83,10.17-1.84,2.91-3.78,5.73-5.85,8.48-1.85,2.45-3.8,4.83-5.83,7.14-1.86,2.11-3.79,4.15-5.77,6.15-1.82,1.84-3.77,3.73-5.66,5.5-3.57,3.34-7.25,6.54-11.06,9.61-4.84,3.89-9.78,7.46-14.98,10.87-2.5,1.64-5.03,3.23-7.59,4.77-1.28.77-2.57,1.53-3.86,2.28-1.3.76-2.61,1.5-3.92,2.24-2.66,1.5-5.35,2.97-8.04,4.43-2.79,1.51-5.58,3.01-8.37,4.52-2.93,1.58-5.86,3.18-8.77,4.79-3.1,1.72-6.18,3.46-9.25,5.25-4.48,2.61-8.91,5.3-13.28,8.09-1.17.75-2.33,1.5-3.49,2.26-.59.39-1.19.78-1.78,1.17-.6.4-1.2.8-1.79,1.2-2.47,1.66-4.9,3.38-7.27,5.18-5.25,4.01-9.96,8.33-14.19,13.43-2.36,2.84-4.47,5.81-6.4,8.95-2.14,3.51-3.98,7.14-5.59,10.92-.42,1-.83,2-1.22,3.01-.2.52-.39,1.04-.58,1.56-.1.26-.19.53-.28.79-.05.13-.09.27-.14.4-.02.07-.05.13-.07.2-.02.05-.03.1-.06.15-.16.37-.49.63-.89.69-.38.06-.77-.07-1.03-.35-.14-.14-.24-.32-.28-.52-.02-.09-.04-.18-.04-.28,0-.06,0-.22.01-.28.02-.38.04-.77.06-1.15.18-3.07.39-6.14.67-9.21.28-3.07.62-6.12,1.07-9.17.45-3.05,1-6.07,1.73-9.07.73-3,1.62-5.93,2.74-8.81.56-1.44,1.17-2.85,1.83-4.24.66-1.39,1.37-2.76,2.12-4.1,3.01-5.37,6.7-10.36,10.73-14.99,2.08-2.38,4.24-4.68,6.48-6.9s4.55-4.38,6.9-6.49,4.76-4.15,7.19-6.17c2.43-2.02,4.89-4,7.37-5.96,4.96-3.92,10-7.72,15.12-11.42,5.12-3.71,10.3-7.32,15.52-10.87,1.31-.89,2.61-1.77,3.92-2.65,1.31-.88,2.62-1.76,3.93-2.64,2.62-1.77,5.23-3.54,7.81-5.37s5.11-3.71,7.6-5.65c2.49-1.95,4.93-3.95,7.31-6.02s4.72-4.2,7.01-6.37c1.15-1.09,2.28-2.19,3.4-3.3,1.12-1.11,2.24-2.23,3.34-3.36,2.2-2.27,4.34-4.59,6.4-6.99,2.06-2.4,4.02-4.87,5.89-7.42,1.87-2.55,3.64-5.16,5.3-7.85,1.66-2.69,3.22-5.43,4.67-8.24,2.91-5.62,5.39-11.43,7.51-17.38,2.12-5.95,3.88-12.03,5.33-18.17.73-3.07,1.38-6.16,1.97-9.27.29-1.55.57-3.11.83-4.66.07-.39.13-.78.19-1.17l.09-.59s.02-.09.03-.14.03-.09.04-.14c.04-.09.08-.18.14-.26.24-.32.62-.5,1.03-.48.41.03.77.27.96.63Z"/>
    <path class="cls-6" d="M923.28,719.26c-.06.59.33,1.13.91,1.26.58.13,1.16-.19,1.36-.75,1-2.79,2.1-5.52,3.33-8.22,1.1-2.4,2.28-4.74,3.56-7.04,1.15-2.08,2.37-4.12,3.64-6.14,1.17-1.85,2.37-3.67,3.63-5.46,3.02-4.3,6.23-8.27,9.85-12.1,3.44-3.63,7.02-6.9,10.84-10.12.9-.75,1.8-1.5,2.7-2.23.93-.76,1.87-1.51,2.81-2.25,1.95-1.54,3.92-3.07,5.9-4.58,4.2-3.21,8.44-6.38,12.65-9.58,8.04-6.1,16.14-12.42,23.7-19.14,7.67-6.82,14.61-13.92,21.11-21.87,1.51-1.85,2.98-3.72,4.41-5.63.74-.98,1.46-1.97,2.18-2.97.73-1.02,1.45-2.04,2.16-3.08,3.02-4.39,5.75-8.86,8.16-13.61,2.18-4.3,4.02-8.69,5.54-13.27,1.69-5.11,2.91-10.28,3.73-15.6.73-4.72,1.12-9.44,1.23-14.21.13-5.4-.1-10.79-.62-16.17-.02-.26-.14-.5-.31-.69-6.11-6.46-12.67-12.48-19.62-18.03-.36-.29-.86-.34-1.27-.12-.41.21-.66.65-.63,1.11.32,5.13.15,10.25-.48,15.36-.31,2.55-.74,5.07-1.27,7.58-.53,2.51-1.16,4.99-1.89,7.46-1.45,4.92-3.28,9.72-5.39,14.4-1.05,2.34-2.18,4.64-3.36,6.92-1.18,2.28-2.43,4.52-3.72,6.73s-2.64,4.4-4.02,6.56-2.8,4.29-4.27,6.4c-2.93,4.22-6,8.31-9.26,12.28-3.26,3.97-6.67,7.79-10.23,11.48-3.56,3.69-7.26,7.24-11.05,10.7-4.15,3.78-7.32,6.47-11.54,10.18-1.93,1.69-3.84,3.4-5.72,5.14-1.88,1.74-3.73,3.52-5.53,5.35-1.8,1.83-3.54,3.71-5.22,5.65-1.68,1.94-3.29,3.93-4.82,5.99-1.53,2.06-2.98,4.17-4.34,6.35s-2.64,4.4-3.82,6.67c-1.19,2.28-2.28,4.59-3.29,6.95s-1.93,4.75-2.77,7.17c-.84,2.42-1.61,4.87-2.31,7.34-.7,2.47-1.33,4.95-1.91,7.45-1.16,5-2.08,10.04-2.86,15.11-.77,5.07-1.39,10.16-1.89,15.27Z"/>
    <path class="cls-6" d="M922.03,756.93c-.05.58.35,1.11.92,1.24s1.15-.19,1.35-.74c1.87-5.13,4.35-9.93,7.31-14.51,2.95-4.57,6.35-8.87,9.99-12.9,3.68-4.08,7.64-7.93,11.72-11.6,2.02-1.82,4.07-3.59,6.15-5.34,1.02-.86,2.05-1.72,3.09-2.57,1.02-.84,2.05-1.67,3.08-2.5,4.38-3.53,8.83-6.96,13.35-10.32,4.22-3.14,8.48-6.2,12.79-9.21,2.32-1.62,4.65-3.23,6.99-4.82,1.13-.77,2.26-1.54,3.4-2.3,1.11-.75,2.22-1.49,3.33-2.24,4.51-3.03,8.73-5.88,13.1-9.11,1.87-1.39,3.72-2.81,5.55-4.26,1.98-1.59,3.93-3.21,5.84-4.88,2.13-1.85,4.21-3.75,6.26-5.69,1.12-1.06,2.23-2.13,3.33-3.21,1.17-1.15,2.33-2.31,3.48-3.49,1.66-1.7,3.28-3.44,4.86-5.22,1.72-1.94,3.38-3.92,4.98-5.95,3.66-4.67,6.92-9.55,9.84-14.72,2.48-4.4,4.67-8.91,6.62-13.57,2.26-5.4,4.15-10.89,5.78-16.51,1.42-4.92,2.61-9.87,3.63-14.89,1.15-5.66,2.05-11.35,2.78-17.08.03-.26-.02-.52-.15-.74-5.5-9.31-11.79-18.13-18.79-26.37-.32-.38-.85-.51-1.32-.33-.46.18-.76.64-.74,1.14.23,5.7.12,11.42-.43,17.1-.27,2.84-.66,5.67-1.15,8.48-.5,2.81-1.11,5.59-1.85,8.36-.74,2.76-1.59,5.48-2.56,8.17-.97,2.69-2.06,5.32-3.26,7.91-1.2,2.59-2.51,5.12-3.91,7.61-1.4,2.49-2.9,4.91-4.47,7.3s-3.21,4.72-4.9,7.02c-1.69,2.3-3.43,4.56-5.23,6.78-3.6,4.44-7.39,8.69-11.38,12.78-3.99,4.09-8.16,7.98-12.46,11.73-4.31,3.75-8.73,7.35-13.22,10.88-4.49,3.52-9.04,6.97-13.6,10.4-2.28,1.72-4.56,3.44-6.83,5.16-2.27,1.73-4.53,3.47-6.77,5.24-2.24,1.77-4.45,3.57-6.62,5.42-2.17,1.85-4.29,3.76-6.34,5.75-2.05,1.99-4.01,4.05-5.89,6.21s-3.65,4.38-5.34,6.68c-1.69,2.3-3.29,4.66-4.81,7.08s-2.98,4.86-4.33,7.38c-1.35,2.52-2.58,5.08-3.71,7.71-1.12,2.63-2.13,5.29-3.02,8.01-1.95,5.89-3.39,11.95-4.46,18.06-.26,1.46-.49,2.93-.71,4.4-.17,1.15-.33,2.3-.47,3.45-.14,1.11-.26,2.22-.37,3.34-.15,1.44-.28,2.87-.39,4.31Z"/>
    <path class="cls-6" d="M921.29,846.12c-.05.69.51,1.27,1.2,1.26,43.13-1.18,84.58-16.95,117.59-44.74,33-27.79,55.61-65.96,64.11-108.26.11-.56-.19-1.12-.72-1.32-.53-.2-1.13,0-1.43.49-2.65,4.42-5.5,8.67-8.58,12.8-3.08,4.12-6.36,8.06-9.82,11.87-1.73,1.9-3.49,3.77-5.29,5.6-1.8,1.84-3.63,3.64-5.49,5.41-3.73,3.54-7.59,6.92-11.61,10.13-4.02,3.21-8.16,6.23-12.45,9.08-4.28,2.85-8.67,5.51-13.15,8.04-4.48,2.53-9.02,4.92-13.62,7.21-4.6,2.29-9.24,4.49-13.92,6.63-4.67,2.14-9.37,4.21-14.09,6.25-4.71,2.04-9.44,4.05-14.14,6.12-4.7,2.07-9.38,4.2-13.99,6.47-4.61,2.27-9.15,4.67-13.59,7.26-2.22,1.29-4.42,2.62-6.56,4.05-2.14,1.43-4.2,2.94-6.17,4.61-.98.83-1.93,1.7-2.84,2.6-.92.9-1.79,1.84-2.63,2.81-.84.98-1.63,1.98-2.39,3.02-.75,1.04-1.46,2.11-2.12,3.21-.66,1.1-1.28,2.23-1.85,3.38-.57,1.15-1.1,2.32-1.58,3.51-.48,1.19-.93,2.4-1.33,3.62-.4,1.22-.77,2.45-1.09,3.69-.66,2.49-1.17,5-1.56,7.54-.4,2.54-.68,5.09-.87,7.66Z"/>
    <path class="cls-6" d="M1104.56,621.22c-.1-.52-.54-.91-1.07-.95s-1.02.3-1.19.8c-1.78,5.42-3.71,10.78-5.85,16.08-1.07,2.65-2.18,5.27-3.36,7.87-1.17,2.6-2.41,5.17-3.7,7.71-2.6,5.09-5.45,10.01-8.64,14.76-1.59,2.37-3.26,4.68-5.01,6.93-1.75,2.26-3.57,4.44-5.47,6.57-1.9,2.13-3.86,4.19-5.88,6.22-1.01,1.01-2.02,2.01-3.05,3s-2.06,1.97-3.11,2.94c-2.09,1.94-4.22,3.83-6.4,5.68-2.17,1.85-4.39,3.65-6.64,5.39-2.25,1.75-4.54,3.45-6.87,5.09-2.33,1.65-4.69,3.24-7.09,4.79s-4.82,3.05-7.27,4.52-4.92,2.89-7.4,4.29c-4.97,2.8-10,5.49-15.02,8.2-2.51,1.35-5.02,2.71-7.52,4.09s-4.99,2.76-7.47,4.17c-2.48,1.41-4.95,2.84-7.4,4.3s-4.89,2.94-7.31,4.46c-2.42,1.51-4.82,3.06-7.2,4.63-2.38,1.57-4.74,3.17-7.05,4.85-2.31,1.68-4.55,3.42-6.72,5.29-2.17,1.86-4.23,3.82-6.19,5.9-.98,1.04-1.92,2.11-2.84,3.2-.91,1.09-1.79,2.21-2.64,3.36-1.7,2.3-3.25,4.68-4.67,7.16-1.42,2.48-2.69,5.02-3.84,7.64-1.15,2.62-2.15,5.28-3.05,7.99-1.79,5.41-3.11,10.99-4.08,16.6-.1.56.22,1.11.75,1.3.53.19,1.13-.02,1.41-.51,2.61-4.51,5.79-8.43,9.62-11.95,3.45-3.17,7.2-5.81,11.17-8.26,2.07-1.28,4.46-2.67,6.58-3.86,2.15-1.2,4.31-2.37,6.5-3.5,4.23-2.19,8.53-4.24,12.86-6.22,4.4-2.01,8.84-3.93,13.28-5.85,2.25-.97,4.49-1.93,6.74-2.9,2.28-.99,4.56-1.98,6.83-2.99,8.89-3.93,17.84-8.09,26.46-12.6,2.19-1.14,4.36-2.31,6.52-3.51,2.14-1.19,4.25-2.41,6.35-3.66,4.17-2.49,8.24-5.12,12.21-7.93,3.85-2.72,7.57-5.59,11.18-8.63,3.88-3.26,7.6-6.67,11.2-10.24.79-.79,1.58-1.58,2.36-2.37.8-.82,1.59-1.64,2.38-2.47,1.63-1.72,3.23-3.47,4.79-5.26,3.39-3.88,6.59-7.89,9.57-12.08,5.71-8.03,10.48-16.44,14.55-25.4.05-.12.09-.24.1-.37,1.78-18.11.96-36.38-2.44-54.25Z"/>
    <path class="cls-6" d="M1086.42,568.87c4.88,9.39,8.97,19.17,12.23,29.23.81,2.51,1.57,5.04,2.28,7.59.18.64.35,1.27.52,1.91.09.32.17.64.25.96.02.08.04.16.06.24.02.08.04.16.06.24.03.16.02.33-.02.49-.02.07-.04.13-.06.2l-.07.22c-.04.15-.09.3-.13.44-.09.29-.17.59-.26.88-.17.58-.35,1.16-.52,1.74-.35,1.13-.7,2.27-1.05,3.4-1.33,4.21-2.75,8.39-4.27,12.54-1.36,3.69-2.8,7.35-4.35,10.97-1.78,4.15-3.69,8.22-5.77,12.22-1.81,3.47-3.74,6.86-5.83,10.17-1.84,2.91-3.78,5.73-5.85,8.48-1.85,2.45-3.8,4.83-5.83,7.14-1.86,2.11-3.79,4.15-5.77,6.15-1.82,1.84-3.77,3.73-5.66,5.5-3.57,3.34-7.25,6.54-11.06,9.61-4.84,3.89-9.78,7.46-14.98,10.87-2.5,1.64-5.03,3.23-7.59,4.77-1.28.77-2.57,1.53-3.86,2.28-1.3.76-2.61,1.5-3.92,2.24-2.66,1.5-5.35,2.97-8.04,4.43-2.79,1.51-5.58,3.01-8.37,4.52-2.93,1.58-5.86,3.18-8.77,4.79-3.1,1.72-6.18,3.46-9.25,5.25-4.48,2.61-8.91,5.3-13.28,8.09-1.17.75-2.33,1.5-3.49,2.26-.59.39-1.19.78-1.78,1.17-.6.4-1.2.8-1.79,1.2-2.47,1.66-4.9,3.38-7.27,5.18-5.25,4.01-9.96,8.33-14.19,13.43-2.36,2.84-4.47,5.81-6.4,8.95-2.14,3.51-3.98,7.14-5.59,10.92-.42,1-.83,2-1.22,3.01-.2.52-.39,1.04-.58,1.56-.1.26-.19.53-.28.79-.05.13-.09.27-.14.4-.02.07-.05.13-.07.2-.02.05-.03.1-.06.15-.16.37-.49.63-.89.69-.38.06-.77-.07-1.03-.35-.14-.14-.24-.32-.28-.52-.02-.09-.04-.18-.04-.28,0-.06,0-.22.01-.28.02-.38.04-.77.06-1.15.18-3.07.39-6.14.67-9.21.28-3.07.62-6.12,1.07-9.17.45-3.05,1-6.07,1.73-9.07.73-3,1.62-5.93,2.74-8.81.56-1.44,1.17-2.85,1.83-4.24.66-1.39,1.37-2.76,2.12-4.1,3.01-5.37,6.7-10.36,10.73-14.99,2.08-2.38,4.24-4.68,6.48-6.9s4.55-4.38,6.9-6.49c2.36-2.1,4.76-4.15,7.19-6.17,2.43-2.02,4.89-4,7.37-5.96,4.96-3.92,10-7.72,15.12-11.42,5.12-3.71,10.3-7.32,15.52-10.87,1.31-.89,2.61-1.77,3.92-2.65,1.31-.88,2.62-1.76,3.93-2.64,2.62-1.77,5.23-3.54,7.81-5.37,2.58-1.83,5.11-3.71,7.6-5.65,2.49-1.95,4.93-3.95,7.31-6.02s4.72-4.2,7.01-6.37c1.15-1.09,2.28-2.19,3.4-3.3,1.12-1.11,2.24-2.23,3.34-3.36,2.2-2.27,4.34-4.59,6.4-6.99,2.06-2.4,4.02-4.87,5.89-7.42,1.87-2.55,3.64-5.16,5.3-7.85,1.66-2.69,3.22-5.43,4.67-8.24,2.91-5.62,5.39-11.43,7.51-17.38,2.12-5.95,3.88-12.03,5.33-18.17.73-3.07,1.38-6.16,1.97-9.27.29-1.55.57-3.11.83-4.66.07-.39.13-.78.19-1.17.03-.19.06-.39.09-.58,0-.05.02-.09.03-.14s.03-.09.04-.14c.04-.09.08-.18.14-.26.24-.32.62-.5,1.03-.48.41.03.77.27.96.63Z"/>
    <path class="cls-6" d="M1104.56,621.22c2.06,10.81,3.17,21.78,3.33,32.78.08,5.5-.07,10.98-.47,16.47-.1,1.37-.21,2.73-.34,4.1-.02.17-.03.34-.05.51l-.02.26c0,.09-.01.18-.03.26,0,.04-.02.09-.04.13-.02.05-.04.09-.06.14-.06.12-.11.24-.17.37-.11.24-.22.48-.33.73-.44.95-.89,1.9-1.35,2.85-1.74,3.58-3.61,7.08-5.62,10.51-3.61,6.16-7.59,11.95-12.05,17.52-3.85,4.82-7.94,9.33-12.27,13.73-3.84,3.89-7.8,7.62-11.96,11.17-3.83,3.28-7.79,6.37-11.9,9.29-4.82,3.43-9.73,6.55-14.84,9.53-5.17,3.01-10.43,5.81-15.78,8.48-5.37,2.69-10.8,5.24-16.27,7.71-2.7,1.22-5.41,2.42-8.12,3.61-1.34.59-2.68,1.17-4.02,1.75-1.33.57-2.66,1.15-3.99,1.72-10.45,4.5-20.23,8.69-30.31,14.02-2.59,1.37-5.15,2.78-7.67,4.26-1.3.76-2.6,1.53-3.88,2.33-1.31.81-2.6,1.65-3.87,2.53-5.54,3.82-10.3,8.13-14.22,13.67-.45.63-.88,1.27-1.29,1.92-.21.33-.42.67-.62,1-.1.17-.21.34-.31.51-.05.09-.1.17-.15.26-.04.07-.1.18-.15.25-.21.32-.56.52-.95.53-.37.01-.72-.15-.95-.45-.12-.15-.2-.33-.23-.52-.04-.21-.01-.33.02-.54.06-.36.13-.73.19-1.09.53-2.91,1.16-5.8,1.9-8.66,1.48-5.72,3.4-11.33,5.92-16.69,1.26-2.68,2.65-5.28,4.21-7.8.78-1.26,1.59-2.49,2.44-3.7s1.74-2.39,2.66-3.54c.92-1.15,1.88-2.28,2.88-3.37s2.02-2.16,3.07-3.19c2.12-2.07,4.33-4.01,6.65-5.86,2.32-1.85,4.72-3.6,7.17-5.28,1.22-.84,2.46-1.67,3.69-2.49,1.24-.82,2.48-1.63,3.73-2.43,4.99-3.21,10.06-6.29,15.2-9.27,2.57-1.49,5.15-2.95,7.74-4.39,2.59-1.44,5.2-2.86,7.81-4.28,2.61-1.41,5.22-2.82,7.84-4.23s5.22-2.83,7.81-4.27c2.59-1.44,5.17-2.9,7.72-4.41,2.55-1.5,5.08-3.05,7.59-4.64,2.5-1.59,4.97-3.23,7.4-4.93,2.43-1.7,4.82-3.44,7.18-5.25,2.35-1.81,4.66-3.66,6.92-5.58,2.27-1.91,4.48-3.87,6.66-5.89,1.09-1.01,2.17-2.02,3.24-3.05s2.13-2.07,3.17-3.11c2.09-2.1,4.13-4.25,6.1-6.47,1.97-2.22,3.86-4.5,5.66-6.86,1.81-2.36,3.52-4.77,5.16-7.25,3.28-4.97,6.18-10.11,8.84-15.43,1.32-2.66,2.58-5.34,3.77-8.06,1.19-2.72,2.32-5.46,3.41-8.22,1.08-2.76,2.11-5.54,3.09-8.34.49-1.4.97-2.8,1.44-4.21.12-.35.23-.7.35-1.06.03-.09.06-.18.09-.26.03-.09.07-.16.12-.24.1-.16.24-.3.41-.39.32-.18.72-.2,1.06-.05.35.16.6.47.67.85Z"/>
    <path class="cls-6" d="M921.29,846.12c.2-2.64.49-5.27.91-7.89.42-2.62.95-5.2,1.65-7.77.69-2.56,1.54-5.06,2.57-7.51.52-1.22,1.08-2.42,1.69-3.59.61-1.18,1.27-2.32,1.97-3.45.71-1.12,1.46-2.21,2.26-3.26s1.65-2.07,2.54-3.05c1.79-1.97,3.71-3.76,5.78-5.43,2.07-1.67,4.23-3.18,6.46-4.61,1.11-.71,2.24-1.41,3.38-2.08,1.14-.68,2.28-1.34,3.43-2,2.3-1.31,4.63-2.57,6.98-3.8,2.35-1.22,4.72-2.4,7.1-3.55,4.77-2.3,9.6-4.45,14.46-6.57,2.43-1.06,4.86-2.1,7.29-3.15s4.86-2.1,7.29-3.15c4.85-2.12,9.69-4.28,14.49-6.51,4.8-2.23,9.56-4.54,14.27-6.97,4.71-2.42,9.35-4.96,13.92-7.65,4.56-2.7,9.01-5.55,13.34-8.61,2.16-1.53,4.29-3.1,6.38-4.73,2.09-1.63,4.14-3.3,6.16-5.02,4.05-3.45,7.92-7.07,11.67-10.85,1.87-1.88,3.71-3.8,5.51-5.76s3.55-3.95,5.26-5.98c3.42-4.08,6.62-8.3,9.6-12.71,1.49-2.2,2.91-4.44,4.28-6.72.04-.07.09-.14.13-.21.04-.07.09-.13.14-.19.12-.12.26-.22.41-.29.31-.13.66-.12.96.03.31.15.53.43.62.77.04.16.05.32.02.48-.01.08-.03.15-.05.23s-.03.15-.05.23c-.25,1.23-.51,2.46-.79,3.69-9.35,41.73-32.46,79.1-65.62,106.11-16.47,13.41-35.06,23.98-55.01,31.27-10.15,3.71-20.6,6.54-31.23,8.48-5.15.94-10.32,1.66-15.53,2.17-2.55.25-5.11.45-7.67.6-1.27.07-2.53.13-3.8.18-.63.02-1.26.04-1.89.06-.08,0-.16,0-.25,0-.09-.01-.17-.03-.25-.06-.16-.06-.3-.15-.43-.27-.24-.24-.37-.58-.34-.92Z"/>
    <path class="cls-6" d="M922.03,756.93c.12-1.44.24-2.89.39-4.33.12-1.12.24-2.23.38-3.35.14-1.16.3-2.32.47-3.47.22-1.48.46-2.95.72-4.42,1.08-6.13,2.53-12.22,4.49-18.13.98-2.96,2.09-5.86,3.35-8.72,1.26-2.86,2.64-5.64,4.16-8.37.76-1.36,1.55-2.7,2.36-4.03.81-1.33,1.65-2.65,2.5-3.95,1.72-2.61,3.52-5.14,5.45-7.59,1.85-2.36,3.79-4.62,5.84-6.81,2.05-2.18,4.19-4.27,6.41-6.28,2.22-2.01,4.5-3.94,6.82-5.83s4.67-3.73,7.04-5.56c2.37-1.83,4.75-3.63,7.14-5.43s4.78-3.6,7.16-5.41c4.77-3.62,9.5-7.27,14.15-11.04,4.65-3.77,9.19-7.65,13.58-11.73,2.19-2.04,4.34-4.12,6.44-6.25s4.15-4.31,6.14-6.54c4-4.47,7.74-9.11,11.28-13.95,1.76-2.42,3.47-4.87,5.1-7.38,1.63-2.51,3.17-5.07,4.61-7.69,1.43-2.61,2.75-5.26,3.96-7.98,1.21-2.72,2.29-5.48,3.24-8.3s1.78-5.67,2.47-8.56c.69-2.89,1.26-5.8,1.7-8.75.44-2.94.76-5.89.96-8.86s.3-5.93.29-8.91c0-1.49-.04-2.97-.09-4.46,0-.19-.01-.37-.02-.56,0-.1,0-.17,0-.27.01-.09.04-.18.07-.27.14-.35.44-.61.81-.7.37-.09.77,0,1.05.26.07.06.13.13.19.2.06.07.13.15.19.22.13.15.25.3.38.45,2,2.38,3.95,4.81,5.83,7.29,2.35,3.09,4.59,6.24,6.75,9.46,1.08,1.61,2.13,3.24,3.15,4.88.51.82,1.02,1.64,1.52,2.47.25.41.5.83.75,1.24.02.04.16.27.18.31.06.1.09.21.12.33.02.12.03.23.02.35,0,.06-.01.12-.02.17,0,.07-.02.15-.03.22-.02.15-.04.3-.06.45-.59,4.57-1.3,9.11-2.16,13.63-.78,4.11-1.67,8.19-2.71,12.24-1.8,7.04-4.01,13.97-6.76,20.7-3.02,7.4-6.62,14.43-10.99,21.12-1.84,2.82-3.8,5.55-5.88,8.21-1.88,2.4-3.84,4.71-5.88,6.97-1.85,2.04-3.75,4.02-5.69,5.97-1.75,1.76-3.53,3.5-5.34,5.2-3.15,2.97-6.38,5.84-9.72,8.6-2.33,1.92-4.7,3.78-7.12,5.58-2.24,1.67-4.52,3.3-6.82,4.89-2.25,1.55-4.51,3.08-6.78,4.6-1.15.77-2.3,1.55-3.45,2.32-1.18.8-2.35,1.59-3.53,2.39-4.98,3.39-9.91,6.84-14.79,10.38-5.3,3.84-10.53,7.79-15.66,11.85-1.12.89-2.24,1.78-3.35,2.68-1.13.91-2.25,1.83-3.37,2.76-2.28,1.89-4.53,3.8-6.74,5.76-4.49,3.97-8.86,8.16-12.88,12.61-4.02,4.43-7.74,9.18-10.91,14.27-1.58,2.53-3.01,5.13-4.27,7.83-.64,1.36-1.23,2.73-1.77,4.13-.14.35-.27.71-.41,1.07-.03.09-.07.18-.1.27-.04.1-.06.17-.12.27-.11.18-.27.33-.46.43-.37.19-.82.17-1.17-.06-.36-.23-.56-.65-.53-1.07Z"/>
    <path class="cls-6" d="M923.28,719.26c.54-5.43,1.2-10.83,2.04-16.22.84-5.37,1.87-10.76,3.16-16.04,1.29-5.29,2.84-10.53,4.77-15.63.96-2.55,2.01-5.06,3.17-7.54,1.16-2.47,2.41-4.89,3.76-7.26s2.81-4.67,4.36-6.91,3.2-4.41,4.93-6.52c1.73-2.11,3.54-4.14,5.42-6.12,1.88-1.98,3.81-3.89,5.8-5.76,1.98-1.87,4-3.7,6.05-5.51,2.04-1.81,4.1-3.59,6.15-5.39,2.05-1.79,4.1-3.6,6.11-5.43,2.02-1.83,4.01-3.69,5.97-5.59,3.93-3.79,7.7-7.71,11.31-11.81,3.61-4.1,7.03-8.33,10.27-12.72,3.2-4.34,6.32-8.96,9.16-13.54,2.88-4.64,5.54-9.38,7.93-14.29,2.36-4.85,4.43-9.85,6.1-14.98,1.68-5.14,2.96-10.38,3.75-15.73.4-2.67.67-5.35.81-8.05.14-2.7.15-5.39.03-8.09-.02-.34-.03-.67-.05-1.01,0-.08,0-.17-.01-.25,0-.08,0-.16,0-.25.01-.17.07-.34.15-.48.17-.29.46-.5.79-.56.17-.03.35-.03.51.02.17.04.31.12.44.23,1.11.89,2.21,1.78,3.3,2.7,2.18,1.82,4.33,3.69,6.43,5.61,3.15,2.88,6.19,5.85,9.14,8.93.18.19.37.38.55.58.05.05.09.1.14.14.04.05.09.09.13.14.08.1.14.21.18.33.02.06.04.12.05.18,0,.03,0,.07.01.1,0,.06.01.11.02.17.02.23.04.46.06.68.04.45.08.9.12,1.36.14,1.76.25,3.52.33,5.29.14,3.32.17,6.63.05,9.95-.21,5.92-.85,11.79-2.03,17.6-1.04,5.11-2.47,10.05-4.33,14.93-2.24,5.86-5.01,11.36-8.27,16.71-1.5,2.46-3.08,4.85-4.73,7.21-.8,1.14-1.6,2.27-2.42,3.38-.8,1.09-1.62,2.18-2.44,3.25-6.14,7.98-12.77,15.19-20.12,22.07-4.32,4.05-8.81,7.9-13.4,11.63-2.22,1.81-4.45,3.58-6.71,5.34-2.2,1.72-4.41,3.42-6.64,5.11-4.24,3.23-8.51,6.42-12.75,9.65-2,1.52-3.99,3.05-5.96,4.61-1.88,1.48-3.75,2.98-5.59,4.51-7.52,6.25-13.61,12.24-19.5,20.1-1.57,2.1-3.06,4.24-4.49,6.44-.77,1.18-1.52,2.37-2.25,3.57-.77,1.27-1.53,2.55-2.26,3.84-1.6,2.86-3.07,5.77-4.4,8.77-.74,1.66-1.43,3.35-2.07,5.05-.17.45-.34.89-.5,1.34-.08.23-.16.46-.25.68-.08.21-.21.4-.39.53-.37.28-.86.32-1.27.1-.41-.22-.65-.67-.6-1.14Z"/>
    <path class="cls-6" d="M1002.77,486.43c8.92,4.48,17.48,9.65,25.59,15.46.25.18.51.36.76.55.06.05.13.09.19.14.06.04.12.09.17.14.11.11.19.23.25.38.07.16.08.28.1.45.02.17.04.33.07.5.04.33.08.66.12.99.15,1.31.27,2.62.35,3.94.16,2.57.19,5.14.1,7.72-.18,4.98-.83,9.9-1.89,14.76-2.29,10.51-6.43,20.45-11.55,29.83-2.36,4.32-4.92,8.51-7.63,12.62-2.47,3.76-5.06,7.42-7.79,11-3.19,4.18-6.54,8.2-10.07,12.09-3.34,3.67-6.81,7.2-10.4,10.63-1.77,1.69-3.56,3.34-5.37,4.98-1.82,1.64-3.66,3.26-5.51,4.88-3.77,3.29-7.55,6.56-11.21,9.97-3.2,2.98-6.3,6.06-9.23,9.32-3.12,3.47-6.01,7.1-8.66,10.95-2.92,4.25-5.47,8.66-7.71,13.3-2.6,5.39-4.7,10.93-6.45,16.65-.83,2.72-1.58,5.47-2.25,8.24-.18.73-.35,1.47-.52,2.2-.09.37-.17.75-.25,1.12-.04.19-.08.38-.13.57-.02.09-.04.19-.06.28-.02.08-.03.16-.06.24-.2.6-.85.94-1.46.75-.3-.09-.55-.31-.69-.59-.07-.14-.11-.28-.12-.43,0-.08,0-.36,0-.45,0-1.21,0-2.42,0-3.63,0-.61,0-1.21,0-1.82,0-.02,0-.21,0-.23,0-.08,0-.15.01-.23,0-.15.01-.3.02-.45.01-.3.03-.61.04-.91.12-2.42.26-4.84.43-7.26.34-4.84.78-9.66,1.36-14.47.58-4.82,1.29-9.6,2.19-14.37.46-2.47.98-4.93,1.55-7.38s1.2-4.88,1.9-7.3c.7-2.42,1.46-4.81,2.3-7.18.84-2.37,1.76-4.71,2.77-7.01,1.01-2.31,2.1-4.57,3.28-6.79,1.18-2.22,2.44-4.39,3.78-6.52,1.34-2.13,2.75-4.21,4.19-6.27,1.44-2.06,2.91-4.1,4.4-6.12s3-4.03,4.53-6.03c1.52-2,3.06-3.99,4.6-5.98,1.54-1.99,3.07-3.98,4.59-5.98,1.52-2,3.03-4.01,4.51-6.04,1.48-2.03,2.94-4.08,4.38-6.14,1.43-2.07,2.84-4.15,4.22-6.25,2.76-4.21,5.4-8.48,7.86-12.87,2.46-4.39,4.73-8.86,6.77-13.47,1.02-2.3,1.97-4.62,2.85-6.98.88-2.35,1.7-4.73,2.44-7.14.74-2.4,1.4-4.83,1.97-7.28.58-2.45,1.07-4.91,1.47-7.4s.71-4.97.92-7.48c.11-1.25.19-2.51.25-3.76.01-.31.03-.63.04-.94,0-.16.01-.31.02-.47,0-.16.04-.31.1-.45.27-.61,1-.86,1.59-.57Z"/>
    <path class="cls-6" d="M921.52,635.34c.05-35.1.11-70.21.16-105.31.03-17.55.05-35.1.08-52.66,0-2.25,0-4.49.01-6.74,0-.56,0-1.12,0-1.68,0-.28,0-.56,0-.84,0-.14,0-.28,0-.42v-.21c0-.07,0-.14.01-.21.09-.58.6-1,1.19-.99.54.01,1.08.03,1.62.06,4.35.17,8.68.48,13.01.95,8.7.93,17.32,2.46,25.8,4.58,8.29,2.07,16.44,4.69,24.38,7.85,1.98.79,3.94,1.61,5.88,2.46.49.21.97.43,1.46.64.24.11.48.22.72.33.12.05.24.11.36.16.04.02.32.15.36.17.25.13.44.34.55.6.05.13.08.26.08.4,0,.08,0,.37,0,.44,0,.6-.01,1.19-.03,1.79-.12,4.67-.58,9.27-1.37,13.87-1.58,9.18-4.43,18.02-8.17,26.52-3.35,7.62-7.34,14.82-11.76,21.85-1.37,2.18-2.77,4.33-4.2,6.46-1.31,1.96-2.65,3.91-4.01,5.83-2.49,3.53-5.02,6.94-7.63,10.37-2.46,3.24-4.96,6.45-7.44,9.68-2.61,3.39-5.15,6.76-7.66,10.22-.97,1.33-1.92,2.68-2.87,4.02-1,1.43-1.99,2.87-2.95,4.33-2.17,3.3-4.13,6.61-5.94,10.13-2.17,4.23-4.02,8.57-5.61,13.04-.94,2.63-1.78,5.29-2.54,7.98-.42,1.47-.81,2.94-1.18,4.41-.04.16-.07.3-.15.45-.07.14-.16.25-.28.35-.23.2-.53.29-.83.27-.62-.04-1.1-.55-1.09-1.17Z"/>
    <path class="cls-6" d="M1086.42,568.87c-.23-.45-.73-.7-1.22-.62s-.89.47-.97.97c-.96,5.98-2.13,11.91-3.6,17.79-1.46,5.88-3.2,11.66-5.28,17.36-1.04,2.84-2.16,5.65-3.38,8.42-1.22,2.77-2.52,5.5-3.93,8.18s-2.9,5.31-4.5,7.88-3.29,5.08-5.07,7.52-3.66,4.82-5.62,7.12c-1.96,2.31-4,4.54-6.09,6.73-1.05,1.09-2.11,2.17-3.18,3.24-1.07,1.07-2.15,2.13-3.24,3.18-2.18,2.1-4.4,4.15-6.67,6.16s-4.58,3.95-6.94,5.85c-2.36,1.89-4.77,3.72-7.22,5.5s-4.93,3.51-7.43,5.21c-2.5,1.7-5.02,3.38-7.53,5.07-5.02,3.38-10,6.81-14.93,10.33-4.93,3.51-9.8,7.11-14.59,10.8-2.4,1.85-4.77,3.72-7.13,5.62-2.36,1.9-4.69,3.82-7,5.78s-4.58,3.96-6.8,6.01c-2.22,2.05-4.4,4.16-6.5,6.33-4.19,4.33-8.15,8.98-11.55,13.98-1.71,2.51-3.27,5.08-4.68,7.77-.7,1.34-1.35,2.71-1.96,4.09s-1.16,2.79-1.66,4.22c-.51,1.43-.96,2.87-1.37,4.33s-.77,2.93-1.09,4.4c-.65,2.96-1.14,5.94-1.55,8.94-.4,3-.71,6.01-.97,9.02-.25,3.02-.45,6.03-.61,9.06-.03.58.37,1.1.94,1.21.57.11,1.14-.22,1.33-.77,1.96-5.66,4.4-11.1,7.48-16.25,2.64-4.42,5.65-8.49,9.12-12.3,3.98-4.37,8.31-8.13,13.03-11.65,2.16-1.61,4.37-3.14,6.61-4.64,2.09-1.4,4.3-2.84,6.42-4.19,4.92-3.14,9.92-6.16,14.98-9.08,4.54-2.62,9.13-5.16,13.74-7.67,2.54-1.38,5.09-2.75,7.64-4.13,2.45-1.32,4.91-2.65,7.35-3.99,1.2-.66,2.39-1.32,3.58-1.99,1.18-.66,2.35-1.33,3.53-2.01,2.33-1.34,4.63-2.71,6.92-4.12,4.58-2.82,9.05-5.79,13.41-8.96,4.62-3.37,9.07-6.93,13.37-10.7,1.88-1.65,3.73-3.34,5.56-5.06.95-.89,1.88-1.8,2.82-2.71.96-.94,1.91-1.88,2.84-2.84,1.98-2.02,3.9-4.1,5.76-6.24,2.03-2.35,3.97-4.76,5.82-7.26,2.99-4.04,5.69-8.24,8.19-12.6,3.01-5.27,5.68-10.72,8.1-16.29,2.05-4.71,3.91-9.49,5.64-14.33,2.01-5.62,3.82-11.29,5.5-17.02.06-.2.06-.42,0-.62-3.6-13.89-8.77-27.33-15.39-40.06Z"/>
    <g>
      <path class="cls-2" d="M612.69,212.84c0-6.72-4.48-11.2-11.2-11.2h-19.52v-8.8h71.04v8.8h-19.52c-6.72,0-11.2,4.48-11.2,11.2v88.8h-9.6v-88.8Z"/>
      <path class="cls-2" d="M677.01,301.64h-9.6v-108.8h9.6v33.92c0,6.72,4.48,11.2,11.2,11.2h33.28c6.72,0,11.2-4.48,11.2-11.2v-33.92h9.6v108.8h-9.6v-43.68c0-6.72-4.48-11.2-11.2-11.2h-33.28c-6.72,0-11.2,4.48-11.2,11.2v43.68Z"/>
      <path class="cls-2" d="M825.81,292.84v8.8h-64.32v-108.8h62.72v8.8h-41.92c-6.72,0-11.2,4.48-11.2,11.2v7.52c0,6.72,4.48,11.2,11.2,11.2h27.52v8.8h-27.52c-6.72,0-11.2,4.48-11.2,11.2v30.08c0,6.72,4.48,11.2,11.2,11.2h43.52Z"/>
      <path class="cls-2" d="M482.61,460.84c0,20.8-16.32,32.8-48.32,32.8h-30.56v-108.8h26.24c32,0,44.64,9.12,44.64,25.12,0,11.36-6.56,16-6.56,21.28,0,7.68,14.56,10.72,14.56,29.6ZM432.37,428.04c22.4,0,32.32-3.68,32.32-17.28s-9.92-17.12-32.32-17.12h-7.84c-6.72,0-11.2,2.08-11.2,7.84v18.72c0,5.76,4.48,7.84,11.2,7.84h7.84ZM436.37,484.84c22.4,0,36.32-7.2,36.32-24s-13.92-24-36.32-24h-11.84c-6.72,0-11.2,2.72-11.2,9.92v28.16c0,7.2,4.48,9.92,11.2,9.92h11.84Z"/>
      <path class="cls-2" d="M563.73,484.84v8.8h-64.32v-108.8h62.72v8.8h-41.92c-6.72,0-11.2,4.48-11.2,11.2v7.52c0,6.72,4.48,11.2,11.2,11.2h27.52v8.8h-27.52c-6.72,0-11.2,4.48-11.2,11.2v30.08c0,6.72,4.48,11.2,11.2,11.2h43.52Z"/>
      <path class="cls-2" d="M647.25,484.84v8.8h-64.32v-108.8h62.72v8.8h-41.92c-6.72,0-11.2,4.48-11.2,11.2v7.52c0,6.72,4.48,11.2,11.2,11.2h27.52v8.8h-27.52c-6.72,0-11.2,4.48-11.2,11.2v30.08c0,6.72,4.48,11.2,11.2,11.2h43.52Z"/>
      <path class="cls-2" d="M728.53,458.92h9.6c-1.92,22.56-17.12,36-38.72,36-25.6,0-42.56-21.28-42.56-55.68s16.64-55.68,42.88-55.68c20.96,0,34.4,13.44,36,36h-9.6c-1.6-16.32-11.2-26.88-26.4-26.88-19.84,0-32.96,16.16-32.96,46.56s13.44,46.56,32.64,46.56c15.84,0,27.2-10.56,29.12-26.88Z"/>
      <path class="cls-2" d="M760.52,493.64h-9.6v-108.8h9.6v33.92c0,6.72,4.48,11.2,11.2,11.2h33.28c6.72,0,11.2-4.48,11.2-11.2v-33.92h9.6v108.8h-9.6v-43.68c0-6.72-4.48-11.2-11.2-11.2h-33.28c-6.72,0-11.2,4.48-11.2,11.2v43.68Z"/>
      <path class="cls-2" d="M151.25,650.92h9.6c-1.92,22.56-17.12,36-38.72,36-25.6,0-42.56-21.28-42.56-55.68s16.64-55.68,42.88-55.68c20.96,0,34.4,13.44,36,36h-9.6c-1.6-16.32-11.2-26.88-26.4-26.88-19.84,0-32.96,16.16-32.96,46.56s13.44,46.56,32.64,46.56c15.84,0,27.2-10.56,29.12-26.88Z"/>
      <path class="cls-2" d="M213.49,575.56c26.4,0,43.04,21.28,43.04,55.68s-16.64,55.68-43.04,55.68-43.04-21.28-43.04-55.68,16.64-55.68,43.04-55.68ZM213.49,677.8c20,0,33.12-16.16,33.12-46.56s-13.12-46.56-33.12-46.56-33.12,16.16-33.12,46.56,13.12,46.56,33.12,46.56Z"/>
      <path class="cls-2" d="M282.13,576.84v88.8c0,6.72,4.48,11.2,11.2,11.2h33.92v8.8h-54.72v-108.8h9.6Z"/>
      <path class="cls-2" d="M349.65,576.84v88.8c0,6.72,4.48,11.2,11.2,11.2h33.92v8.8h-54.72v-108.8h9.6Z"/>
      <path class="cls-2" d="M471.89,676.84v8.8h-64.32v-108.8h62.72v8.8h-41.92c-6.72,0-11.2,4.48-11.2,11.2v7.52c0,6.72,4.48,11.2,11.2,11.2h27.52v8.8h-27.52c-6.72,0-11.2,4.48-11.2,11.2v30.08c0,6.72,4.48,11.2,11.2,11.2h43.52Z"/>
      <path class="cls-2" d="M553.17,650.92h9.6c-1.92,22.56-17.12,36-38.72,36-25.6,0-42.56-21.28-42.56-55.68s16.64-55.68,42.88-55.68c20.96,0,34.4,13.44,36,36h-9.6c-1.6-16.32-11.2-26.88-26.4-26.88-19.84,0-32.96,16.16-32.96,46.56s13.44,46.56,32.64,46.56c15.84,0,27.2-10.56,29.12-26.88Z"/>
      <path class="cls-2" d="M593.49,596.84c0-6.72-4.48-11.2-11.2-11.2h-19.52v-8.8h71.04v8.8h-19.52c-6.72,0-11.2,4.48-11.2,11.2v88.8h-9.6v-88.8Z"/>
      <path class="cls-2" d="M648.21,576.84h9.6v108.8h-9.6v-108.8Z"/>
      <path class="cls-2" d="M709.65,658.92c2.56,0,4.32-2.88,6.08-8.64l23.2-73.44h10.08l-34.56,108.8h-9.6l-34.56-108.8h10.08l23.2,73.44c1.76,5.76,3.52,8.64,6.08,8.64Z"/>
      <path class="cls-2" d="M825.81,676.84v8.8h-64.32v-108.8h62.72v8.8h-41.92c-6.72,0-11.2,4.48-11.2,11.2v7.52c0,6.72,4.48,11.2,11.2,11.2h27.52v8.8h-27.52c-6.72,0-11.2,4.48-11.2,11.2v30.08c0,6.72,4.48,11.2,11.2,11.2h43.52Z"/>
    </g>
  </g>
</svg>