<?xml version="1.0" encoding="UTF-8"?>
<svg id="Layer_1" xmlns="http://www.w3.org/2000/svg" version="1.1" viewBox="0 0 64 64">
  <!-- Generator: Adobe Illustrator 30.0.0, SVG Export Plug-In . SVG Version: 2.1.1 Build 123)  -->
  <defs>
    <style>
      .st0 {
        fill-rule: evenodd;
      }
    </style>
  </defs>
  <path class="st0" d="M15.8,52.9c-2.6,0-4.6-2.1-4.6-4.6V15.8c0-2.6,2.1-4.6,4.6-4.6h32.4c2.6,0,4.6,2.1,4.6,4.6v32.4c0,2.6-2.1,4.6-4.6,4.6H15.8ZM43.6,15.8v4.6h4.6v-4.6h-4.6ZM32,43.6c6.4,0,11.6-5.2,11.6-11.6s-5.2-11.6-11.6-11.6-11.6,5.2-11.6,11.6,5.2,11.6,11.6,11.6M32,39c3.8,0,7-3.1,7-7s-3.1-7-7-7-7,3.1-7,7,3.1,7,7,7"/>
</svg>