<?xml version="1.0" encoding="UTF-8"?>
<svg id="Layer_1" xmlns="http://www.w3.org/2000/svg" version="1.1" viewBox="0 0 90 90">
  <!-- Generator: Adobe Illustrator 30.0.0, SVG Export Plug-In . SVG Version: 2.1.1 Build 123)  -->
  <defs>
    <style>
      .st0 {
        stroke: #fff;
        stroke-miterlimit: 10;
      }

      .st0, .st1 {
        fill: #fff;
      }
    </style>
  </defs>
  <g id="SPLINE">
    <path class="st1" d="M45,29.9h.9c3.2.1,5.4.7,6.8,1.5,1.5.9,2.2,1.9,2.5,2.8s0,1.5-.2,2.1-.9,1-1.5,1.5c-1.1.9-2.3,1.9-2.3,2.8s1.2,1.9,2.6,2.6,3.1,1.3,4.1,2.2,1.3,2.2,1.5,3.2.3,1.8.2,2.5-.5,1.3-2,2.6c-1.4,1.2-3.7,3-10.6,5.7-.7.3-1.3.5-2,.8"/>
  </g>
  <g id="SPLINE-2">
    <path class="st1" d="M45,60.3c-.7-.2-1.3-.5-2-.8-7-2.7-9.3-4.5-10.6-5.7-1.5-1.3-1.9-1.9-2-2.6s0-1.5.2-2.5.5-2.3,1.5-3.2,2.7-1.5,4.1-2.2,2.6-1.7,2.6-2.6-1.2-1.9-2.3-2.8c-.6-.5-1.1-.9-1.5-1.5s-.5-1.2-.2-2.1,1-2,2.5-2.8c1.4-.8,3.6-1.4,6.8-1.5h.9"/>
  </g>
  <g id="SPLINE-3">
    <path class="st1" d="M33.6,44.5h0"/>
  </g>
  <g id="POLYLINE">
    <line class="st0" x1="45" y1="59.3" x2="45" y2="90"/>
  </g>
</svg>