<?xml version="1.0" encoding="UTF-8"?>
<svg id="Layer_1" xmlns="http://www.w3.org/2000/svg" version="1.1" viewBox="0 0 90 90">
  <!-- Generator: Adobe Illustrator 30.0.0, SVG Export Plug-In . SVG Version: 2.1.1 Build 123)  -->
  <defs>
    <style>
      .st0 {
        fill: #231f20;
        stroke-width: .1px;
      }

      .st0, .st1 {
        stroke: #000;
        stroke-linecap: round;
        stroke-linejoin: round;
      }

      .st1 {
        fill: none;
      }
    </style>
  </defs>
  <g id="SPLINE">
    <path class="st0" d="M45,60.3c.2,0,.4,0,.6,0,2-.2,3.7-1.3,5-2.8,1.5-1.6,2.5-3.5,3.3-4.8,1.7-2.6,2.3-2.9,3.3-3.3s2.5-1.1,3.8-2.5,2.7-3.5,3.3-5.1.3-2.5-.8-3.3-2.9-1.3-2.6-2,2.8-1.6,5.6-3.4c2.8-1.8,5.9-4.6,6.8-9.1.2-1.1.3-2.4-.2-3.6s-1.4-2.4-3.3-3.5c-2.5-1.4-6.6-2.6-13.2-3.2-2.4-.2-5.1-.4-8.2-.4-1.1,0-2.2,0-3.3,0s-2.2,0-3.3,0c-11.7.2-18,1.7-21.5,3.6-1,.6-1.7,1.2-2.2,1.8-.5.5-.8,1.1-1,1.7-.5,1.2-.4,2.5-.2,3.6.8,4.5,4,7.3,6.8,9.1s5.3,2.7,5.6,3.4-1.6,1.2-2.6,2-1.3,1.7-.8,3.3,1.9,3.7,3.3,5.1,2.8,2,3.8,2.5,1.7.7,3.3,3.3c.8,1.3,1.9,3.2,3.3,4.8,1.3,1.4,3,2.6,5,2.8.2,0,.4,0,.6,0h0Z"/>
  </g>
  <g id="POLYLINE">
    <line class="st1" x1="45" y1="60.3" x2="45" y2="90"/>
  </g>
</svg>