<?xml version="1.0" encoding="UTF-8"?>
<svg id="Layer_1" data-name="Layer 1" xmlns="http://www.w3.org/2000/svg" viewBox="0 0 90 90">
  <defs>
    <style>
      .cls-1 {
        fill: #231f20;
        stroke-width: .11px;
      }

      .cls-1, .cls-2 {
        stroke: #000;
        stroke-linecap: round;
        stroke-linejoin: round;
      }

      .cls-2 {
        fill: none;
        stroke-width: .5px;
      }
    </style>
  </defs>
  <g id="POLYLINE">
    <line class="cls-2" x1="44.88" y1="90" x2="44.96" y2="72.38"/>
  </g>
  <g id="SPLINE">
    <path class="cls-1" d="M44.96,72.38c1.02-.42,2.04-.83,3.06-1.24,10.48-4.21,12.92-4.9,14.09-6.25.63-.74.89-1.67.87-2.66s-.3-2.03-.75-2.98c-.89-1.9-2.41-3.43-4.4-4.77s-4.44-2.48-5.27-3.28-.03-1.26,1.4-1.62,3.49-.62,4.33-1.91c.42-.65.53-1.55.36-2.51s-.64-1.98-1.36-2.84c-1.46-1.73-3.98-2.88-5.37-4.21s-1.65-2.87-1.31-3.66,1.27-.86,1.99-2.43c.18-.39.35-.88.36-1.52s-.12-1.41-.55-2.39c-.79-1.79-2.56-4.25-6.18-7.68-.34-.32-.69-.64-1.03-.96-.35.31-.7.63-1.04.95-3.65,3.4-5.44,5.84-6.25,7.63-.44.97-.58,1.75-.58,2.39s.17,1.12.35,1.52c.71,1.58,1.64,1.65,1.97,2.45s.06,2.33-1.34,3.65-3.93,2.44-5.4,4.17c-.73.86-1.2,1.87-1.39,2.83s-.08,1.87.33,2.52c.83,1.3,2.89,1.57,4.31,1.95s2.22.84,1.39,1.63-3.3,1.91-5.3,3.23-3.54,2.84-4.44,4.73c-.45.95-.75,1.98-.77,2.97s.22,1.92.85,2.66c1.15,1.36,3.59,2.07,14.03,6.37,1.02.42,2.03.84,3.05,1.26Z"/>
  </g>
</svg>