<?xml version="1.0" encoding="UTF-8"?>
<svg id="Layer_1" data-name="Layer 1" xmlns="http://www.w3.org/2000/svg" viewBox="0 0 90 90">
  <defs>
    <style>
      .cls-1 {
        fill: none;
        stroke-miterlimit: 10;
        stroke-width: .5px;
      }

      .cls-1, .cls-2 {
        stroke: #000;
      }

      .cls-2 {
        fill: #231f20;
        stroke-linecap: round;
        stroke-linejoin: round;
        stroke-width: .09px;
      }
    </style>
  </defs>
  <g id="SPLINE">
    <path class="cls-2" d="M45,29.91c.3,0,.6,0,.9.01,3.22.1,5.36.71,6.78,1.5,1.55.87,2.24,1.95,2.51,2.83s.14,1.54-.21,2.11-.9,1.03-1.46,1.5c-1.12.94-2.27,1.9-2.27,2.84s1.15,1.86,2.57,2.59,3.12,1.28,4.13,2.2,1.33,2.2,1.54,3.23.3,1.81.16,2.5-.5,1.28-2,2.58c-1.37,1.19-3.68,2.96-10.64,5.69-.67.26-1.34.52-2.02.77"/>
  </g>
  <g id="SPLINE-2" data-name="SPLINE">
    <path class="cls-2" d="M45,60.28c-.67-.25-1.35-.51-2.02-.77-6.96-2.73-9.27-4.51-10.64-5.69-1.49-1.3-1.86-1.89-2-2.58s-.05-1.47.16-2.5.53-2.32,1.54-3.23,2.71-1.47,4.13-2.2,2.57-1.65,2.57-2.59-1.15-1.9-2.27-2.84c-.56-.47-1.12-.93-1.46-1.5s-.48-1.23-.21-2.11.96-1.96,2.51-2.83c1.42-.79,3.57-1.4,6.78-1.5.3,0,.6-.01.9-.01"/>
  </g>
  <g id="SPLINE-3" data-name="SPLINE">
    <path class="cls-2" d="M33.56,44.55s-.03.01-.04.02"/>
  </g>
  <g id="POLYLINE">
    <line class="cls-1" x1="45" y1="60.28" x2="45" y2="90"/>
  </g>
</svg>