<?xml version="1.0" encoding="UTF-8"?>
<svg id="Layer_1" data-name="Layer 1" xmlns="http://www.w3.org/2000/svg" viewBox="0 0 90 90">
  <defs>
    <style>
      .cls-1 {
        fill: #231f20;
        stroke-width: .12px;
      }

      .cls-1, .cls-2 {
        stroke: #000;
        stroke-linecap: round;
        stroke-linejoin: round;
      }

      .cls-2 {
        fill: none;
        stroke-width: .5px;
      }
    </style>
  </defs>
  <g id="SPLINE">
    <path class="cls-1" d="M45,60.29c.19,0,.38,0,.56-.03,2.02-.18,3.66-1.34,4.98-2.78,1.45-1.56,2.53-3.45,3.35-4.76,1.65-2.61,2.27-2.88,3.3-3.32s2.45-1.07,3.84-2.45,2.72-3.52,3.26-5.08.27-2.54-.8-3.3-2.94-1.29-2.63-2.01,2.81-1.61,5.62-3.43,5.93-4.59,6.76-9.09c.21-1.12.27-2.35-.18-3.57s-1.42-2.41-3.28-3.47c-2.5-1.42-6.61-2.59-13.23-3.21-2.4-.22-5.13-.37-8.23-.43-1.1-.02-2.21-.03-3.31-.03-1.1,0-2.21,0-3.31.03-11.67.23-18.05,1.7-21.46,3.64-.98.56-1.71,1.16-2.25,1.77-.48.55-.81,1.12-1.03,1.7-.45,1.21-.39,2.45-.18,3.57.83,4.49,3.95,7.26,6.76,9.09s5.31,2.72,5.62,3.43-1.56,1.25-2.63,2.01-1.34,1.74-.8,3.3,1.87,3.7,3.26,5.08,2.81,2.01,3.84,2.45,1.65.71,3.3,3.32c.83,1.3,1.91,3.19,3.35,4.76,1.33,1.43,2.96,2.59,4.98,2.78.19.02.37.03.56.03Z"/>
  </g>
  <g id="POLYLINE">
    <line class="cls-2" x1="44.44" y1="60.26" x2="44.44" y2="90"/>
  </g>
</svg>