<?xml version="1.0" encoding="UTF-8"?>
<svg id="Layer_1" xmlns="http://www.w3.org/2000/svg" version="1.1" viewBox="0 0 90 90">
  <!-- Generator: Adobe Illustrator 30.0.0, SVG Export Plug-In . SVG Version: 2.1.1 Build 123)  -->
  <defs>
    <style>
      .st0 {
        stroke: #231f20;
        stroke-miterlimit: 10;
        stroke-width: .5px;
      }

      .st0, .st1 {
        fill: #231f20;
      }

      .st1 {
        stroke: #000;
        stroke-linecap: round;
        stroke-linejoin: round;
        stroke-width: .1px;
      }
    </style>
  </defs>
  <g id="SPLINE">
    <path class="st1" d="M45,72.4c1-.4,2-.8,3.1-1.2,10.5-4.2,12.9-4.9,14.1-6.2.6-.7.9-1.7.9-2.7s-.3-2-.8-3c-.9-1.9-2.4-3.4-4.4-4.8s-4.4-2.5-5.3-3.3,0-1.3,1.4-1.6,3.5-.6,4.3-1.9c.4-.7.5-1.5.4-2.5s-.6-2-1.4-2.8c-1.5-1.7-4-2.9-5.4-4.2s-1.7-2.9-1.3-3.7,1.3-.9,2-2.4c.2-.4.3-.9.4-1.5s0-1.4-.5-2.4c-.8-1.8-2.6-4.2-6.2-7.7-.3-.3-.7-.6-1-1-.3.3-.7.6-1,1-3.7,3.4-5.4,5.8-6.2,7.6-.4,1-.6,1.8-.6,2.4s.2,1.1.3,1.5c.7,1.6,1.6,1.7,2,2.5s0,2.3-1.3,3.7-3.9,2.4-5.4,4.2c-.7.9-1.2,1.9-1.4,2.8s0,1.9.3,2.5c.8,1.3,2.9,1.6,4.3,2s2.2.8,1.4,1.6-3.3,1.9-5.3,3.2-3.5,2.8-4.4,4.7c-.5,1-.8,2-.8,3s.2,1.9.9,2.7c1.1,1.4,3.6,2.1,14,6.4,1,.4,2,.8,3,1.3h0v-.2h-.1Z"/>
  </g>
  <rect class="st0" x="43.5" y="71.3" width="2.9" height="18.3"/>
</svg>